<svg xmlns="http://www.w3.org/2000/svg" viewBox="0 0 500 500">
   <style>
     @media (prefers-color-scheme: dark) {
        path { fill: #f0f0f0 }
     }
   </style>
   <path fill="#0f0f0f" d="M330.847 406.283c-3.234 3.234-7.365 4.492-12.397 3.773-4.67-.72-9.162-3.415-13.474-8.085-3.234-3.592-4.492-6.826-3.773-9.702 1.078-3.233 2.695-6.109 4.85-8.623 9.703-10.06 20.124-20.84 31.262-32.34a1559.675 1559.675 0 0 1 33.955-35.033 2894.232 2894.232 0 0 0 33.417-33.956 2202.515 2202.515 0 0 0 30.183-30.721 1855.25 1855.25 0 0 1-39.345-44.197 1837.771 1837.771 0 0 0-38.807-44.735 1350.635 1350.635 0 0 0-11.319-12.397 517.221 517.221 0 0 0-11.857-14.552 209.658 209.658 0 0 0-10.24-12.397c-2.876-3.953-4.852-7.006-5.93-9.162-2.875-5.39-3.592-9.702-2.155-12.936 1.797-3.592 3.772-6.287 5.928-8.084 1.437-1.078 3.593-1.976 6.468-2.695 2.876-1.078 5.748-.898 8.624.539 2.875 1.436 7.187 5.39 12.935 11.857 6.11 6.11 12.936 13.655 20.482 22.637 7.904 8.982 16.169 18.865 24.793 29.644a6929.147 6929.147 0 0 1 25.87 30.183 3313.708 3313.708 0 0 1 23.716 26.95c7.546 7.903 13.833 13.832 18.864 17.785a253.644 253.644 0 0 0 10.24 7.546c3.593 2.156 5.749 5.929 6.468 11.319.359 3.953-1.077 7.365-4.311 10.24-3.234 2.876-7.007 6.468-11.319 10.78-14.733 14.372-27.13 26.768-37.19 37.19a35357.066 35357.066 0 0 0-29.104 30.182c-8.983 9.702-18.684 19.943-29.105 30.722-10.06 10.421-22.638 23.176-37.729 38.268zm-161.694 0-38.268-38.268a2700.375 2700.375 0 0 0-29.105-30.722 1995.692 1995.692 0 0 0-28.565-30.182c-10.06-10.422-22.457-22.818-37.19-37.19-4.312-4.312-8.085-7.904-11.319-10.78-3.234-2.875-4.67-6.287-4.311-10.24.719-5.39 2.875-9.163 6.467-11.319a253.075 253.075 0 0 0 10.24-7.546c5.032-3.953 11.139-9.882 18.326-17.786 7.546-8.265 15.45-17.247 23.715-26.949a1124.898 1124.898 0 0 0 25.871-30.183 9669.367 9669.367 0 0 1 24.793-29.644c7.905-8.982 14.733-16.528 20.482-22.637 6.109-6.468 10.599-10.421 13.474-11.857 2.876-1.437 5.748-1.617 8.624-.54 2.875.72 5.031 1.618 6.468 2.696 2.156 1.797 3.953 4.492 5.39 8.084 1.797 3.234 1.258 7.546-1.618 12.936-1.077 2.156-3.233 5.209-6.467 9.162a593.315 593.315 0 0 1-10.24 12.397 355.587 355.587 0 0 1-11.858 14.552 543.43 543.43 0 0 1-10.78 12.397c-12.577 14.013-25.69 28.924-39.346 44.735a1305.423 1305.423 0 0 1-38.806 44.197c8.982 9.343 18.864 19.583 29.644 30.721l33.955 33.956a1558.66 1558.66 0 0 1 33.956 35.034 20818 20818 0 0 1 31.261 32.339 19.59 19.59 0 0 1 4.312 8.623c1.078 2.876 0 6.11-3.234 9.702-4.312 4.67-8.982 7.365-14.013 8.085-4.67.72-8.624-.54-11.858-3.773z"/>
   <path fill="#0f0f0f" d="M318.526 229.447c-16.814 9.85-34.92 17.56-54.321 23.127-19.4 5.14-40.31 7.708-62.73 7.708.863 14.991 5.175 26.984 12.936 35.977 7.759 8.564 17.458 13.706 29.1 15.417a67.13 67.13 0 0 0 20.694-.641c7.327-1.286 14.01-3.213 20.047-5.784 6.465-2.996 12.286-6.209 17.46-9.634 5.175-3.428 9.7-6.853 13.58-10.28 3.88-3.426 7.977-5.569 12.289-6.423 4.309-1.285 7.543-1.5 9.699-.644 6.036 2.143 8.192 8.567 6.468 19.274-6.9 13.704-16.814 25.483-29.75 35.333-12.932 9.421-27.374 15.417-43.328 17.988-13.795 2.569-28.022 1.927-42.68-1.927-14.66-3.856-27.808-11.35-39.447-22.486-9.917-9.85-17.463-21.413-22.637-34.691a150.454 150.454 0 0 1-9.7-41.116c-1.293-13.275-.215-25.912 3.235-37.901 3.88-11.993 9.701-22.487 17.463-31.48 7.758-9.424 17.457-17.131 29.1-23.127 11.641-5.996 25.218-9.424 40.74-10.281 18.539-1.283 35.352 2.142 50.441 10.28 15.089 8.14 25.653 19.485 31.687 34.048 3.45 8.139 4.312 15.205 2.587 21.2-1.294 5.997-5.603 11.352-12.933 16.063zm-74.369-43.685c-4.311.855-9.054 2.353-14.229 4.495a64.403 64.403 0 0 0-13.58 8.355c-3.88 2.996-7.545 6.637-10.994 10.92-3.016 3.853-4.74 8.35-5.172 13.49 7.33 0 15.307-.644 23.928-1.927 9.055-1.285 17.676-2.784 25.868-4.498 8.621-2.142 16.383-4.498 23.279-7.066 7.33-2.57 13.367-5.355 18.107-8.354-3.447-8.136-9.914-13.062-19.4-14.773-9.053-2.143-18.323-2.356-27.807-.644z" style="stroke-width:2.6949"/>
</svg>