<?xml version="1.0" standalone="no"?>
<!DOCTYPE svg PUBLIC "-//W3C//DTD SVG 20010904//EN"
 "http://www.w3.org/TR/2001/REC-SVG-20010904/DTD/svg10.dtd">
<svg version="1.0" xmlns="http://www.w3.org/2000/svg"
 width="219.000000pt" height="219.000000pt" viewBox="0 0 219.000000 219.000000"
 preserveAspectRatio="xMidYMid meet">
<metadata>
Created by potrace 1.14, written by Peter Selinger 2001-2017
</metadata>
<g transform="translate(0.000000,219.000000) scale(0.100000,-0.100000)"
fill="#000000" stroke="none">
<path d="M882 2154 c-62 -16 -94 -32 -187 -92 -84 -54 -204 -171 -233 -228
-18 -35 -56 -158 -76 -244 -8 -36 -39 -35 -75 2 l-30 30 5 -33 c3 -19 18 -53
34 -76 l29 -42 -38 -68 c-20 -37 -49 -87 -64 -111 -65 -101 -87 -217 -82 -422
4 -162 36 -248 133 -368 33 -41 34 -45 30 -105 -6 -75 -22 -104 -61 -113 -16
-3 -31 -13 -34 -21 -9 -23 66 -89 115 -103 32 -8 40 -14 35 -27 -4 -9 1 -21
11 -29 16 -12 16 -13 -1 -22 -24 -14 -16 -20 32 -25 53 -5 113 9 150 37 16 12
57 36 90 51 33 16 63 31 66 32 3 2 10 -11 15 -28 12 -43 52 -71 102 -72 48 -1
86 22 114 69 24 40 32 43 25 9 -7 -40 30 -87 80 -101 36 -11 46 -10 82 8 23
11 41 25 41 31 0 6 12 -1 28 -15 55 -53 147 -63 193 -22 14 13 19 12 41 -5 31
-25 99 -41 141 -33 37 6 45 6 113 -1 56 -6 115 14 148 52 20 22 20 22 -2 28
-19 4 -15 8 26 29 54 27 99 69 104 99 2 17 -3 20 -37 23 -88 6 -102 21 -111
118 -4 45 -2 53 14 59 26 8 112 100 112 120 0 8 3 15 8 15 4 0 17 27 30 59 68
174 50 374 -54 633 l-36 87 45 45 c43 42 65 81 53 93 -3 4 -14 -1 -25 -11 -25
-23 -84 -32 -98 -14 -6 7 -18 55 -27 107 -43 249 -129 392 -292 489 -91 54
-144 72 -226 75 -64 3 -128 -12 -128 -30 0 -4 -4 -14 -9 -22 -8 -12 -14 -9
-35 16 -54 64 -180 94 -284 67z"/>
</g>
</svg>
