<svg xmlns="http://www.w3.org/2000/svg" viewBox="0 0 320 280">
	<path fill="currentColor" d="M37.69 0C16.809 0 0 16.811 0 37.692V242.31C0 263.191 16.809 280 37.69 280h244.618C303.19 280 320 263.191 320 242.31V37.692C320 16.81 303.19 0 282.308 0Zm22.392 39.379a20.674 21.004 0 0 1 20.674 21.004 20.674 21.004 0 0 1-20.674 21.004 20.674 21.004 0 0 1-20.674-21.004 20.674 21.004 0 0 1 20.674-21.004Zm54.452 4.533h150.903c8.992 0 16.229 7.24 16.229 16.23a16.193 16.193 0 0 1-16.229 16.23H114.534a16.193 16.193 0 0 1-16.23-16.23c0-8.99 7.238-16.23 16.23-16.23z"/>
</svg>
