<svg xmlns="http://www.w3.org/2000/svg" viewBox="0 0 798.373 689.898">
	<path fill="currentColor" d="M95.838 0C42.744 0 0 42.744 0 95.838V594.06c0 53.094 42.744 95.837 95.838 95.837h606.697c53.095 0 95.838-42.743 95.838-95.837V95.838C798.373 42.744 755.63 0 702.535 0H95.838zm369.767 88.99a31.98 31.98 0 0 1 6.381 1.158c17 4.9 26.9 22.602 22 39.602l-128 448c-4.9 17-22.6 26.9-39.6 22-17-4.9-26.9-22.602-22-39.602l128-448c4.288-14.875 18.376-24.313 33.22-23.158zM223.236 200.875c8.2 0 16.4 3.125 22.65 9.375 12.5 12.5 12.5 32.799 0 45.299l-89.4 89.4 89.4 89.301c12.5 12.5 12.5 32.799 0 45.299s-32.8 12.5-45.3 0l-112-112c-12.5-12.5-12.5-32.799 0-45.299l112-112c6.25-6.25 14.45-9.375 22.65-9.375zm351.9.1c8.2 0 16.401 3.125 22.651 9.375l112 112c12.5 12.5 12.5 32.798 0 45.298l-112 112c-12.5 12.5-32.8 12.5-45.3 0s-12.5-32.798 0-45.298l89.4-89.4-89.301-89.401c-12.483-12.483-12.494-32.74-.045-45.244-.017.017-.038.028-.055.045l.1-.1c-.017.017-.028.038-.045.055 6.244-6.216 14.418-9.33 22.596-9.33z"/>
</svg>
