<svg xmlns="http://www.w3.org/2000/svg" viewBox="0 0 178 128">
  <path fill="currentColor" fill-rule="evenodd" clip-rule="evenodd" d="M143.06 106.4c-11.1 6.81-23.91 12.15-38.42 16.04-16.11 4.32-31.3 6.05-45.56 5.19-14.26-.85-26.41-4.57-36.45-11.16-10.04-6.58-16.8-16.4-20.3-29.46C-1.19 73.89-.24 61.98 5.17 51.3c5.41-10.69 14.09-19.93 26.03-27.73C43.14 15.78 57.17 9.72 73.28 5.4 89.32 1.11 104.44-.63 118.66.2c9.54.56 18.16 2.4 25.84 5.54 3.75 1.53 7.27 3.36 10.57 5.51 10.07 6.54 16.85 16.33 20.35 29.38 3.5 13.06 2.53 24.95-2.91 35.68-.76 1.5-1.58 2.97-2.47 4.42-.63-2.82-1.88-5.28-3.77-7.38-.93-1.03-1.96-1.97-3.09-2.83-2.33-1.77-5.09-3.18-8.28-4.24-4.75-1.57-10.05-2.36-15.89-2.36-5.86 0-11.18.78-15.95 2.34-4.76 1.57-8.55 3.92-11.36 7.05-2.81 3.14-4.22 7.1-4.22 11.88 0 4.75 1.41 8.7 4.22 11.85 2.81 3.15 6.6 5.52 11.36 7.11 4.77 1.59 10.09 2.39 15.95 2.39 1.38 0 2.73-.05 4.05-.14zm-50.82-8.46c-1.11 1.19-3.07 2.46-5.88 3.81-2.81 1.34-6.2 2.48-10.17 3.4-3.96.92-8.23 1.39-12.79 1.39-3.99 0-7.9-.39-11.73-1.16-3.83-.78-7.3-2.01-10.39-3.69-3.1-1.69-5.56-3.89-7.4-6.6-1.83-2.72-2.75-6.02-2.75-9.9 0-3.94.92-7.27 2.75-9.98 1.84-2.72 4.3-4.91 7.4-6.56 3.09-1.66 6.56-2.86 10.39-3.61 3.83-.74 7.74-1.12 11.73-1.12 4.59 0 8.83.41 12.71 1.22 3.89.82 7.22 1.88 10 3.2 2.79 1.32 4.8 2.72 6.05 4.22L81.73 79.4c-1.52-1.65-3.83-2.98-6.92-3.97-3.1-.99-6.86-1.49-11.29-1.49-2.17 0-4.36.17-6.58.51-2.21.34-4.24.92-6.09 1.73-1.84.82-3.33 1.96-4.46 3.43-1.13 1.46-1.69 3.32-1.69 5.58 0 2.23.56 4.07 1.69 5.52 1.13 1.45 2.62 2.61 4.46 3.46 1.85.86 3.88 1.46 6.09 1.81 2.22.36 4.41.53 6.58.53 4.35 0 8.12-.54 11.31-1.63 3.19-1.08 5.44-2.33 6.74-3.74l10.67 6.8zm46.77-1.59c5.68 0 10.08-1.02 13.2-3.05 3.13-2.04 4.69-4.74 4.69-8.11 0-3.45-1.57-6.16-4.71-8.13-3.13-1.97-7.53-2.95-13.18-2.95-5.67 0-10.09.98-13.26 2.95-3.16 1.97-4.74 4.68-4.74 8.13 0 3.42 1.58 6.14 4.74 8.15 3.17 2.01 7.59 3.01 13.26 3.01z"/>
</svg>
