<svg xmlns="http://www.w3.org/2000/svg" fill="none" viewBox="0 0 310 110">
	<path fill="currentColor" d="M142.687,22.373a1285.37,1285.37,0,0,1,-4.194,10.516l-4.743,12.45c-1.601,4.19,-3.183,8.388,-4.712,12.46c-1.529,4.074,-2.88,7.625,-4.091,10.804c-1.2,3.146,-2.078,5.463,-2.635,6.952a51.456,51.456,0,0,1,-1.302,3.48c-0.52,1.25,-1.157,2.384,-1.923,3.384c-0.697,1.031,-1.548,1.895,-2.569,2.535l-0.088,0.055l-0.093,0.047c-1.247,0.625,-2.583,0.704,-3.885,0.309c-0.953,-0.195,-1.823,-0.671,-2.48,-1.471c-0.665,-0.81,-0.98,-1.79,-1.108,-3.215c-0.127,-1.425,0.094,-3.167,0.638,-4.821c0.663,-2.275,1.601,-5.235,2.864,-8.941a481.379,481.379,0,0,1,4.347,-12.19c1.638,-4.413,3.361,-8.943,5.131,-13.613l0.008,-0.02c1.864,-4.766,3.633,-9.297,5.31,-13.594c1.676,-4.297,3.214,-8.177,4.614,-11.639c1.084,-2.742,2.152,-5.49,2.951,-7.422c0.799,-1.933,1.489,-2.707,2.337,-3.269c0.848,-0.562,1.821,-0.926,2.892,-0.926c1.072,0,2.075,0.308,2.966,0.888c1.103,0.653,1.874,1.647,2.61,3.483c1.642,4.766,-1.173,9.378,-2.845,13.758zm44.925,-0.02l-0.009,0.02c-1.213,3.088,-2.61,6.593,-4.194,10.516a6164.278,6164.278,0,0,1,-4.742,12.45a1362.35,1362.35,0,0,0,-3.966,10.498l-4.838,12.766a1334.46,1334.46,0,0,0,-2.634,6.952a51.456,51.456,0,0,1,-1.302,3.48c-0.52,1.25,-1.157,2.384,-1.923,3.384c-0.697,1.031,-1.548,1.895,-2.569,2.535l-0.088,0.055l-0.093,0.047c-1.247,0.625,-2.583,0.704,-3.885,0.309c-0.953,-0.195,-1.823,-0.671,-2.48,-1.471c-0.665,-0.81,-0.98,-1.79,-1.108,-3.215c-0.127,-1.425,0.094,-3.167,0.638,-4.821c0.663,-2.275,1.6,-5.235,2.863,-8.941a481.909,481.909,0,0,1,4.349,-12.19c1.638,-4.413,3.361,-8.943,5.13,-13.613l0.008,-0.02c1.864,-4.766,3.633,-9.297,5.31,-13.594c1.677,-4.297,3.215,-8.176,4.614,-11.639c1.084,-2.742,2.152,-5.49,2.95,-7.422c0.8,-1.933,1.49,-2.707,2.338,-3.268c0.848,-0.562,1.821,-0.926,2.892,-0.926a5.38,5.38,0,0,1,2.966,0.887c1.103,0.653,1.874,1.648,2.61,3.483c0.735,1.836,0.812,4.284,0.05,6.277c-0.762,1.994,-1.678,4.289,-2.887,7.461zm58.305,49.058a60.105,60.105,0,0,1,-4.056,14.225l-0.007,0.016c-1.949,4.497,-4.576,8.69,-7.868,12.578c-3.244,3.942,-7.342,7.454,-12.259,10.547l-0.003,0.003a7.94,7.94,0,0,1,-3.455,1.163a9.76,9.76,0,0,1,-3.091,-0.157a7.9,7.9,0,0,1,-2.855,-0.902c-1.049,-0.481,-1.944,-1.301,-2.352,-2.53c-0.528,-1.587,-0.178,-3.162,0.573,-4.544c0.731,-1.344,1.872,-2.618,4.626,-4.769c2.753,-2.15,6.065,-5.298,8.731,-8.596a43.63,43.63,0,0,0,6.39,-10.678a43.026,43.026,0,0,0,3.018,-11.748c0.407,-3.814,0.527,-7.136,0.393,-10.664a75.59,75.59,0,0,1,-0.551,0.56a37.08,37.08,0,0,1,-5.028,4.249a33.859,33.859,0,0,1,-5.595,3.177c-1.979,0.888,-3.945,1.344,-5.874,1.344c-1.625,0,-3.222,-0.352,-4.773,-1.018c-1.736,-0.747,-3.305,-2.098,-4.838,-4.044c-1.533,-1.946,-2.955,-4.261,-4.153,-6.796a84.916,84.916,0,0,1,-3.104,-7.53c-0.768,-2.12,-1.48,-4.26,-2.133,-6.419l-0.015,-0.049l-0.012,-0.05c-0.45,-1.805,-0.756,-3.2,-0.876,-4.1c-0.225,-1.176,-0.229,-2.348,0.024,-3.493a3.992,3.992,0,0,1,1.315,-2.212c0.667,-0.566,1.455,-0.862,2.222,-1.005c1.756,-0.35,3.479,-0.241,5.108,0.387c1.657,0.64,2.98,1.75,3.579,3.187c0.598,1.437,1.125,3.071,1.779,5.227a57.827,57.827,0,0,0,2.284,6.2c0.884,1.948,1.8,3.652,2.744,5.12c0.946,1.332,1.531,1.423,1.687,1.423c0.702,0,1.866,-0.374,3.581,-1.664l0.02,-0.015l0.021,-0.015c1.762,-1.263,3.481,-2.933,5.147,-5.043a34.176,34.176,0,0,0,4.244,-7.02c1.155,-2.54,1.713,-4.935,1.713,-7.178c0,-0.792,0.13,-1.631,0.345,-2.493c0.228,-0.916,0.571,-1.785,1.029,-2.601c0.446,-0.885,0.985,-1.682,1.641,-2.34c0.757,-0.76,1.708,-1.4,2.862,-1.593l0.044,-0.007l0.044,-0.006c2.103,-0.264,4.018,0.345,5.59,1.757c1.425,1.12,2.568,2.629,2.594,4.554c0.278,5.024,0.556,10.094,0.835,15.21c0.376,5.154,0.47,10.325,0.284,15.4a109.583,109.583,0,0,1,-1.569,14.952zm13.512,8.912l0.02,-0.081l0.027,-0.08c0.358,-1.09,0.926,-2.101,2.597,-3.891c1.671,-1.79,4.368,-4.589,7.25,-7.571c2.901,-3.098,5.85,-6.15,8.848,-9.155a760.82,760.82,0,0,0,8.639,-8.804l0.025,-0.026a611.598,611.598,0,0,0,6.372,-6.48c-2.997,-3.3,-5.95,-6.64,-9.05,-10.297a587.975,587.975,0,0,0,-9.838,-11.323c-0.966,-1.074,-1.938,-2.141,-2.976,-3.368a191.036,191.036,0,0,1,-2.999,-3.65c-0.952,-1.182,-1.802,-2.214,-2.693,-3.32c-0.892,-1.107,-1.488,-2.013,-1.853,-2.74c-0.831,-1.572,-1.401,-3.475,-0.712,-4.958c0.689,-1.482,1.367,-2.465,2.183,-3.117c0.817,-0.653,1.654,-0.971,2.485,-1.188c1.304,-0.452,2.633,-0.334,3.566,0.134c0.933,0.467,1.577,0.981,2.184,1.539c0.622,0.571,1.313,1.291,2.07,2.143c1.624,1.632,3.417,3.622,5.375,5.96c2.211,2.53,4.363,5.11,6.455,7.739c2.311,2.69,4.53,5.287,6.659,7.793a888.074,888.074,0,0,1,6.147,7.003c1.904,1.998,3.436,3.437,4.611,4.362c0.792,0.62,1.633,1.24,2.521,1.864c1.602,1.007,2.386,2.66,2.592,4.508c0.206,1.847,-0.496,3.394,-1.798,4.555c-0.973,0.877,-1.92,1.783,-4.295,4.122a475.65,475.65,0,0,0,-8.162,8.236c-2.601,2.7,-5.108,5.309,-7.523,7.824a517.674,517.674,0,0,1,-7.57,8.014h-0.001c-3.24,3.354,-6.51,6.68,-9.808,9.977c-1.383,1.388,-3.169,1.872,-5.052,1.593c-1.883,-0.28,-3.466,-1.324,-4.65,-2.625c-1.184,-1.3,-2.098,-2.88,-1.646,-4.692zm-230.179,-4.28a702.476,702.476,0,0,0,-7.523,-7.964l-0.015,-0.015l-0.015,-0.016a511.959,511.959,0,0,0,-7.375,-7.816a476.663,476.663,0,0,0,-8.161,-8.235c-2.376,-2.339,-3.323,-3.244,-4.296,-4.122c-1.302,-1.16,-2.004,-2.709,-1.797,-4.56c0.207,-1.851,0.996,-3.509,2.609,-4.515c0.853,-0.6,1.69,-1.22,2.513,-1.86c1.165,-0.919,2.653,-2.358,4.603,-4.506a415.084,415.084,0,0,0,6.103,-6.91a444.143,444.143,0,0,0,6.618,-7.793a675.801,675.801,0,0,1,6.296,-7.514a179.742,179.742,0,0,1,4.92,-5.529c1.262,-1.355,1.998,-2.08,2.766,-2.771c0.625,-0.551,1.27,-1.05,2.195,-1.514c0.924,-0.464,2.254,-0.582,3.556,-0.13c0.832,0.218,1.669,0.535,2.498,1.198c0.829,0.663,1.462,1.668,1.917,2.773c0.908,1.781,0.375,3.717,-0.458,5.293c-0.395,0.785,-1.078,1.725,-1.92,2.757c-0.751,0.943,-1.637,2.018,-2.655,3.225a94.78,94.78,0,0,1,-3.109,3.825a142.617,142.617,0,0,1,-2.836,3.27a810.727,810.727,0,0,0,-10.16,11.587a349.317,349.317,0,0,1,-8.733,10.036c1.936,2.016,4.021,4.182,6.256,6.497l8.785,8.81a408.483,408.483,0,0,1,8.848,9.156c2.882,2.983,5.578,5.78,7.255,7.574c1.677,1.794,2.212,2.843,2.481,3.973c0.6,1.829,-0.302,3.465,-1.316,4.595l-0.019,0.02c-1.37,1.489,-3.01,2.508,-4.922,2.785c-1.865,0.283,-3.589,-0.25,-4.934,-1.6l-9.922,-9.95l-0.027,-0.028l-0.025,-0.027zm55.099,-31.9c-4.037,1.128,-7.922,1.695,-12.02,1.856c0.37,1.781,1.049,3.179,1.97,4.264c1.324,1.465,2.942,2.334,4.943,2.636c1.255,0.155,2.51,0.114,3.868,-0.133a17.653,17.653,0,0,0,3.754,-1.101a26.34,26.34,0,0,0,3.447,-1.922a24.632,24.632,0,0,0,2.695,-2.057c1.047,-0.934,2.238,-1.6,3.57,-1.89c1.002,-0.292,2.263,-0.508,3.41,-0.062c1.305,0.482,2.196,1.478,2.621,2.756c0.392,1.177,0.367,2.512,0.155,3.841c-0.039,0.25,-0.121,0.477,-0.203,0.633c-1.648,3.304,-4.01,6.128,-7.064,8.431a23.126,23.126,0,0,1,-10.295,4.378c-3.32,0.621,-6.718,0.457,-10.169,-0.46a20.827,20.827,0,0,1,-9.294,-5.309c-2.578,-2.534,-4.374,-5.316,-5.599,-8.491a35.276,35.276,0,0,1,-2.234,-9.553c-0.303,-3.149,-0.052,-6.18,0.831,-9.097s2.273,-5.461,4.143,-7.654c1.875,-2.292,4.204,-4.15,6.955,-5.581c2.832,-1.473,6.074,-2.282,9.675,-2.484c4.378,-0.304,8.425,0.515,12.077,2.503c3.657,1.991,6.305,4.829,7.818,8.503c0.849,2.023,1.194,4.075,0.666,6.007c-0.462,2.04,-1.884,3.613,-4.742,5.359c-2.859,1.745,-6.942,3.499,-10.978,4.627zm-11.223,-10.827c0.424,-0.05,0.858,-0.108,1.994,-0.271a83.15,83.15,0,0,0,4.732,-0.854c1.782,-0.448,3.365,-0.935,4.296,-1.28a45.74,45.74,0,0,0,1.708,-0.655c-0.366,-0.174,-0.754,-0.296,-1.835,-0.539c-1.081,-0.242,-2.773,-0.285,-4.532,0.033c-0.744,0.152,-1.61,0.423,-2.604,0.836a11.55,11.55,0,0,0,-2.281,1.387c-0.625,0.497,-1.055,0.891,-1.478,1.343z"/>
</svg>
