<svg xmlns="http://www.w3.org/2000/svg" viewBox="0 0 310 110" fill="none">
	<text>Elly</text>
	<path fill="currentColor" d="
		M 141.772 6.995
		h .001
		l .745-1.308-.797 1.275.051.033
		Z
		m 1.677 7.568-.027.062 2.028.816
		c -.63 1.445-1.547 3.74-2.756 6.912
		l -.007.02
		a 1284.705 1284.705 0 0 1-4.194 10.516 6861.792 6861.792 0 0 1-4.743 12.45 1413.103 1413.103 0 0 0-4.744 12.593
		l -2.047-.764 2.041.78
		c -1.491 3.925-2.842 7.476-4.053 10.655-1.2 3.146-2.078 5.463-2.635 6.952
		a 51.457 51.457 0 0 1-1.302 3.48
		c -.52 1.25-1.157 2.384-1.923 3.384-.697 1.031-1.548 1.895-2.569 2.535
		l -.088.055-.093.047
		c -1.247.625-2.583.704-3.885.309-.953-.195-1.823-.671-2.48-1.471-.665-.81-.98-1.79-1.108-2.75
		l -.01-.076-.005-.077 2.178-.136-2.178.136
		a 13.622 13.622 0 0 1 .653-5.133
		c .663-2.275 1.601-5.235 2.809-8.87
		l .01-.031 2.06.723.005-.013-2.065-.71
		c 1.308-3.746 2.754-7.817 4.34-12.215
		l 2.052.745
		h .001
		l -2.053-.745.014-.038
		h .001
		c 1.675-4.39 3.398-8.92 5.168-13.59
		l .008-.02
		c 1.864-4.766 3.633-9.297 5.31-13.594 1.676-4.297 3.214-8.177 4.614-11.639
		a 787.853 787.853 0 0 0 3.205-8.244
		l 2.039.779-2.039-.78.038-.101.049-.098
		a 5.804 5.804 0 0 1 2-2.244
		l 1.211 1.821-1.211-1.821
		c .844-.565 1.817-.929 2.888-.929 1.072 0 2.075.308 2.966.888 1.103.653 1.874 1.647 2.383 2.795
		l -1.995.89
		h .001
		l 1.994-.89.024.055.022.055
		c .916 2.414.993 4.862.16 7.25
		l -.028.078-.033.076-2-.878
		h -.001
		Z
		m 43.24-7.568
		h .001
		l .745-1.308-.797 1.275.051.033
		Z
		m 1.677 7.568-.027.062 2.028.816
		c -.63 1.445-1.546 3.74-2.755 6.912
		l -.009.02
		c -1.213 3.088-2.61 6.593-4.194 10.516
		a 6167.292 6167.292 0 0 1-4.742 12.45 1413.103 1413.103 0 0 0-4.744 12.593
		l -2.047-.764
		h -.001
		l 2.042.78
		a 9004.125 9004.125 0 0 1-4.054 10.655 1334.503 1334.503 0 0 0-2.634 6.952 51.457 51.457 0 0 1-1.302 3.48
		c -.52 1.25-1.157 2.384-1.923 3.384-.697 1.031-1.548 1.895-2.569 2.535
		l -.088.055-.093.047
		c -1.247.625-2.583.704-3.885.309-.953-.195-1.823-.671-2.48-1.471-.665-.81-.98-1.79-1.108-2.75
		l -.01-.076-.005-.077 2.178-.136-2.178.136
		a 13.622 13.622 0 0 1 .653-5.133
		c .663-2.275 1.6-5.235 2.809-8.87
		l .01-.031 2.06.723.005-.013-2.065-.71
		c 1.307-3.746 2.755-7.817 4.34-12.215
		l 2.052.745-2.052-.745.014-.038
		c 1.677-4.39 3.4-8.92 5.169-13.59
		l .008-.02
		c 1.864-4.766 3.633-9.297 5.31-13.594 1.677-4.297 3.215-8.176 4.614-11.639
		a 787.853 787.853 0 0 0 3.205-8.244
		l 2.039.78-2.039-.78.039-.102.048-.098
		a 5.796 5.796 0 0 1 2-2.244
		l 1.211 1.822-1.211-1.822
		c .844-.564 1.817-.928 2.888-.928 1.072 0 2.075.308 2.966.887 1.103.653 1.874 1.648 2.383 2.796
		l -1.995.89.001-.001 1.994-.89.024.055.021.055
		c .917 2.414.994 4.862.161 7.25
		l -.028.078-.033.076-2-.878
		h -.002.001
		Z
		m 56.655 26.629
		H 245.03
		h -.009
		Z
		m .28 15.276 2.183.083
		a 109.49 109.49 0 0 1-1.567 14.86 60.105 60.105 0 0 1-4.056 14.225
		l -.007.016
		c -1.949 4.497-4.576 8.69-7.868 12.578-3.244 3.942-7.342 7.454-12.259 10.547
		l -.003.003
		a 7.94 7.94 0 0 1-3.455 1.163 9.761 9.761 0 0 1-3.091-.157 7.887 7.887 0 0 1-2.855-.902
		c -1.049-.481-1.944-1.301-2.352-2.53-.528-1.587-.178-3.162.573-4.544.731-1.344 1.872-2.618 3.291-3.838
		l .054-.046.057-.043
		c 3.977-2.992 7.289-6.14 9.955-9.438
		a 43.63 43.63 0 0 0 6.39-10.678
		c 1.587-3.803 2.61-7.934 3.056-12.407
		l 2.171.218-2.171-.218.004-.038 1.446.17-1.446-.17
		c .365-3.117.485-6.439.351-9.967
		a 75.56 75.56 0 0 1-.551.56 41.328 41.328 0 0 1-5.017 4.29
		l -.034.024-.034.023-1.209-1.819-.002-.003 1.211 1.822
		a 42.87 42.87 0 0 1-5.447 3.1
		l -.043.02-.044.02-.846-2.016-.002-.002.848 2.017
		c -1.983.838-3.949 1.294-5.878 1.294-1.625 0-3.222-.352-4.773-1.018-1.736-.747-3.305-2.098-4.739-3.844
		l -.026-.033-.025-.033 1.735-1.325.001-.001-1.736 1.326
		c -1.581-2.08-3.003-4.395-4.269-6.934
		l -.022-.045-.02-.045 1.994-.89-1.994.89
		a 110.176 110.176 0 0 1-2.994-7.436 127.127 127.127 0 0 1-2.133-6.419
		l -.015-.049-.012-.05
		c -.45-1.805-.756-3.2-.876-4.1-.225-1.176-.229-2.348.024-3.493
		a 3.992 3.992 0 0 1 1.315-2.212
		c .667-.566 1.455-.862 2.222-1.005 1.756-.35 3.479-.241 5.108.387 1.657.64 2.98 1.75 3.72 3.38
		l -1.988.907
		h .001
		l 1.987-.907.035.078.029.08
		c .393 1.086.92 2.72 1.574 4.876
		a 57.827 57.827 0 0 0 2.284 6.2
		c .884 1.948 1.8 3.652 2.744 5.12.946 1.332 1.531 1.423 1.687 1.423.702 0 1.866-.374 3.581-1.664
		l .02-.015.021-.015
		c 1.762-1.263 3.481-2.933 5.147-5.043
		a 32.75 32.75 0 0 0 4.192-6.965
		l 1.991.896-.002-.002-1.989-.894.013-.03 1.319.617-1.319-.617
		c 1.194-2.565 1.752-4.96 1.752-7.203 0-.792.13-1.631.345-2.493.228-.916.571-1.785 1.029-2.601.446-.885.985-1.682 1.641-2.34.757-.76 1.708-1.4 2.862-1.593
		l .044-.007.044-.006
		c 2.103-.264 4.018.345 5.59 1.757 1.425 1.12 2.568 2.629 2.594 4.554.278 5.024.556 10.094.835 15.21
		a 141.89 141.89 0 0 1 .282 15.49
		v .002
		l -2.182-.082
		h -.001
		Z
		m 17.224 26.91-.007-.008-1.615 1.472
		c -1.012-1.127-1.926-2.707-1.474-4.519
		l .02-.081.027-.08
		a 8.824 8.824 0 0 1 1.671-2.975
		l 1.658 1.425
		h -.001
		l -1.657-1.425.042-.049.044-.046
		c 2.511-2.611 5.208-5.41 8.09-8.392
		a 404.548 404.548 0 0 1 8.848-9.155 760.86 760.86 0 0 0 8.639-8.804
		l 1.568 1.522-.004-.004-1.564-1.518.025-.026
		a 611.653 611.653 0 0 0 6.372-6.48 498.552 498.552 0 0 1-8.857-10.02
		l -.018-.023 1.666-1.404.005-.005-1.671 1.41
		a 479.863 479.863 0 0 0-10.013-11.578 347.004 347.004 0 0 0-2.917-3.203
		l -.059-.064-.053-.068 1.716-1.353
		h -.001
		l -.042-.055-1.673 1.408
		a 131.69 131.69 0 0 0-3.025-3.723
		l -.033-.039-.03-.04 1.729-1.334
		h .001
		l -1.73 1.334
		a 52.622 52.622 0 0 0-2.548-3.094
		l -.076-.085-.067-.092 1.765-1.287-1.765 1.287
		c -.752-1.037-1.348-1.943-1.713-2.67-.831-1.572-1.401-3.475-.612-5.253
		l 1.994.889-1.994-.89.02-.045.022-.044
		c .547-1.097 1.225-2.08 2.092-2.805
		l 1.398 1.681-1.398-1.681.043-.036.045-.034 1.31 1.751-1.31-1.751
		c .678-.51 1.515-.828 2.346-1.045 1.304-.452 2.633-.334 3.854.278
		l -.781 1.567-.196.392.977-1.96
		c .645.324 1.289.838 1.896 1.396.622.571 1.313 1.291 2.07 2.143 1.624 1.632 3.417 3.622 5.375 5.96
		a 217.38 217.38 0 0 1 6.455 7.739
		c 2.311 2.69 4.53 5.287 6.659 7.793
		a 887.919 887.919 0 0 1 6.147 7.003
		c 1.904 1.998 3.436 3.437 4.611 4.362.792.62 1.633 1.24 2.521 1.864 1.602 1.007 2.386 2.66 2.626 4.474
		l -2.164.29
		h .004
		l 2.16-.29.006.045.003.046
		c .163 1.79-.539 3.337-1.841 4.498
		a 67.873 67.873 0 0 0-2.841 2.715
		l -.02.019
		c -3.808 3.728-7.008 6.935-9.596 9.624-2.601 2.7-5.108 5.309-7.523 7.824
		a 517.684 517.684 0 0 1-7.57 8.014
		h -.001
		a 811.443 811.443 0 0 1-9.808 9.977
		c -1.383 1.388-3.169 1.872-5.067 1.6
		l -.023-.003.33-2.151.002-.013-.332 2.164
		c -1.845-.284-3.428-1.328-4.766-2.781
		l -.019-.02 1.623-1.465
		h -.001.001
		Z
		m 33.679-39.103
		h -.001.001
		Z
		M 29.25 76.043
		a 702.476 702.476 0 0 0-7.523-7.964
		l -.015-.015-.015-.016
		a 511.962 511.962 0 0 0-7.375-7.816
		c -2.589-2.688-5.786-5.896-9.597-9.623
		l 1.525-1.567-1.525 1.567-.019-.02 1.544-1.547-1.544 1.548
		a 68.388 68.388 0 0 0-2.841-2.715
		C .563 46.715-.139 45.166.023 43.377
		l 2.173.198-2.173-.198.004-.046.006-.045 2.163.29-2.163-.29
		c .242-1.822 1.031-3.48 2.644-4.486
		A 63.61 63.61 0 0 0 5.19 36.94
		c 1.165-.919 2.653-2.358 4.476-4.37
		l .004-.003 1.609 1.474.002.002-1.611-1.476
		a 269.595 269.595 0 0 0 6.099-6.95
		l .015-.018.015-.017 1.631 1.454-1.631-1.454
		c 2.218-2.503 4.437-5.1 6.658-7.79
		l .004-.006 1.675 1.4-1.675-1.4
		c 2.331-2.805 4.476-5.376 6.434-7.715
		l 1.672 1.408-.003-.002-1.669-1.406.016-.02.017-.018
		a 245.076 245.076 0 0 1 5.36-5.94
		l 1.585 1.496-.036-.034-1.55-1.463.003-.002
		a 34.368 34.368 0 0 1 2.206-2.173
		c .625-.551 1.27-1.05 1.899-1.366
		l .976 1.958-.976-1.958
		c 1.22-.612 2.55-.73 3.852-.278.832.218 1.669.535 2.347 1.046
		l -1.308 1.75 1.308-1.75.045.033.043.036
		c .892.746 1.525 1.751 1.98 2.856.908 1.781.375 3.717-.458 5.293-.395.785-1.078 1.725-1.92 2.757-.751.943-1.637 2.018-2.655 3.225
		a 94.779 94.779 0 0 1-3.109 3.825 142.615 142.615 0 0 1-2.836 3.27 810.722 810.722 0 0 0-10.16 11.587 349.318 349.318 0 0 1-8.733 10.036
		c 1.936 2.016 4.021 4.182 6.256 6.497
		l 8.785 8.81
		a 408.482 408.482 0 0 1 8.848 9.156
		c 2.882 2.983 5.578 5.78 8.089 8.392
		l -1.572 1.52.001-.001 1.57-1.519.045.046.042.049
		a 7.286 7.286 0 0 1 1.561 3.06
		c .6 1.829-.302 3.465-1.316 4.595
		l -.019.02
		c -1.37 1.489-3.01 2.508-4.922 2.785-1.865.283-3.589-.25-4.934-1.6
		l -9.922-9.95-.027-.028-.025-.027
		Z
		m 19.064 4.812
		h -.001
		Z
		m -9.223-10.65
		Z
		m -25.295-25.93
		v .002-.001
		Z
		M 34.06 21.152
		Z
		m 2.795-3.223-.001-.001
		Z
		m 3.074-3.785
		Z
		m 2.655-3.223
		Z
		m 1.677-2.383
		Z
		m .42-3.363
		h -.002.001
		Z
		m -3.075-2.803
		V 2.37
		v .001
		Z
		m 54.658 36.644
		c -3.796 2.245-7.879 3.999-12.241 5.262
		l -.606-2.103.002.006.604 2.097-.022.007-.022.006
		c -3.667.98-7.552 1.547-11.65 1.708.37 1.781 1.049 3.179 1.97 4.264 1.324 1.465 2.942 2.334 4.943 2.636 1.255.155 2.51.114 3.772-.123
		l .023-.004.377 2.143.003.013-.38-2.156
		c 1.43-.253 2.701-.626 3.827-1.107
		a 26.34 26.34 0 0 0 3.447-1.922 24.632 24.632 0 0 0 2.695-2.057
		c 1.047-.934 2.238-1.6 3.57-1.89 1.002-.292 2.263-.508 3.41-.062 1.305.482 2.196 1.478 2.621 2.756.392 1.177.367 2.512.155 3.841
		l -2.156-.346 2.156.346-.053.333-.15.3
		c -1.648 3.304-4.01 6.128-7.053 8.468
		l -1.329-1.738.003.004 1.326 1.734-.019.014-.018.014
		A 23.55 23.55 0 0 1 85.2 65.773
		c -3.32.621-6.718.457-10.169-.46-3.55-.942-6.715-2.774-9.48-5.444
		l 1.514-1.577-.003.003-1.511 1.574-.015-.015-.014-.014
		c -2.363-2.37-4.159-5.152-5.384-8.327
		a 35.276 35.276 0 0 1-2.234-9.553
		c -.303-3.149-.052-6.18.773-9.077
		l .01-.034.011-.034 2.078.67-2.078-.67
		c .92-2.869 2.31-5.413 4.18-7.606 1.875-2.292 4.204-4.15 6.955-5.581 2.832-1.473 6.074-2.282 9.675-2.484 4.378-.304 8.425.515 12.077 2.503 3.657 1.991 6.305 4.829 7.818 8.503.849 2.023 1.194 4.075.666 6.007-.462 2.04-1.884 3.613-3.728 4.81
		l -1.186-1.839.001.003 1.185 1.836-.038.024-.04.024
		Z
		m 1.686-5.39
		Z
		M 84.814 63.617
		Z
		m -5.869-8.55
		Z
		m -6.288-3.363
		h -.001
		Z
		m -2.796-7.849
		h -.001.001
		Z
		m 6.15-15.275-.001-.001
		Z
		m -1.595 3.55
		c -.437.34-.867.734-1.29 1.186.424-.05.858-.108 1.303-.175
		l .015-.002.305 2.147.004.02-.31-2.167
		a 84.298 84.298 0 0 0 5.409-.948
		c 1.782-.448 3.365-.935 4.754-1.457
		l .02-.008.02-.007.725 2.058.002.006-.727-2.064
		c .433-.153.836-.307 1.21-.463
		a 4.347 4.347 0 0 0-1.153-.363
		l .39-2.154
		v .002
		l -.39 2.152-.058-.01-.057-.014
		c -1.648-.394-3.34-.437-5.099-.119-.744.152-1.61.423-2.604.836-.84.386-1.656.891-2.446 1.525
		l -1.36-1.706.002.004 1.358 1.702-.023.02
		v -.001
		Z
		m 62.05-.046
		h -.002
		l -.001-.001.003.001
		Z
		m -19.147 49.053
		h -.001.001
		Z
		m 11.689-23.202-.006.016-2.041-.78 2.047.764
		Z
		m 52.373-25.85-.002-.001
		h -.002.004
		Z
		m -19.147 49.053
		h -.001
		v -.001
		h .001
		Z
		m 11.688-23.203-.005.016-2.041-.78 2.046.764
		Z
		m 40.076-8.612
		h -.001.001
		Z
		m -.7 57.602.001-.001-.001.001
		Z
		m 2.237.701
		v -.001.001
		Z
		m 2.515.139
		Z
		m 14.254-10.932
		Z
		m 11.461-25.787
		h -.002.002
		Z
		m 32.171-49.888.005-.005-.005.005
		Z
		m 3.08 53.391
		h -.001.001
		Z
		m 7.546-7.988
		Z
		m -.838-47.371
		h -.001.001
		Z
		m -6.428-7.71-.001.002
		s -.001 0 0 0
		l .001-.001
		Z
		m -5.311-5.885
		h -.001.001
		Z
		M 23.862 32.785
		l -.001-.002
		v .001
		Z
		m 75.35 14.995
		Z
		M 70.702 32.784
		Z
		m 63.107-16.118
		h .001-.001
		Z
		m 44.917 0
		h .001-.001
		Z
		m 21.999 13.455
		Z
		m 104.303 20.233-1.22-1.257-.056-.055 1.276 1.312
		Z" />
</svg>