<svg xmlns="http://www.w3.org/2000/svg" viewBox="0 0 416.954 200.677" fill="none">
	<title>Elly</title>
	<path fill="currentColor" d="M39.709 0C17.71 0 0 17.71 0 39.709v121.258c0 21.999 17.71 39.71 39.709 39.71h337.535c21.999 0 39.71-17.711 39.71-39.71V39.709C416.953 17.71 399.242 0 377.243 0H39.71zm54.059 53.354a4.815 4.815 0 0 1 1.957.26c.832.217 1.667.535 2.345 1.046l.045.033.043.036c.892.746 1.526 1.75 1.98 2.855.909 1.781.377 3.717-.456 5.293-.395.785-1.078 1.726-1.92 2.758a151.5 151.5 0 0 1-2.657 3.224 94.779 94.779 0 0 1-3.109 3.827 142.615 142.615 0 0 1-2.836 3.27A810.722 810.722 0 0 0 79 87.54a349.318 349.318 0 0 1-8.732 10.037c1.936 2.016 4.02 4.181 6.255 6.496l8.786 8.81a408.482 408.482 0 0 1 8.847 9.157 4694.55 4694.55 0 0 1 8.09 8.393l.043.045.043.048a7.286 7.286 0 0 1 1.56 3.06c.6 1.83-.302 3.467-1.316 4.597l-.017.02c-1.37 1.488-3.01 2.507-4.922 2.784-1.865.283-3.59-.25-4.936-1.6l-9.922-9.95-.027-.028-.023-.027h-.002a702.476 702.476 0 0 0-7.524-7.963l-.014-.016-.015-.015a511.962 511.962 0 0 0-7.375-7.817c-2.59-2.688-5.787-5.896-9.598-9.623l-.017-.017a68.388 68.388 0 0 0-2.842-2.717c-1.302-1.16-2.004-2.71-1.842-4.498l.004-.045.006-.045c.242-1.822 1.031-3.48 2.644-4.486a63.61 63.61 0 0 0 2.512-1.86c1.165-.919 2.654-2.359 4.477-4.37l.003-.003a269.595 269.595 0 0 0 6.1-6.951l.016-.018.013-.017c2.218-2.503 4.438-5.1 6.659-7.79l.004-.005c2.33-2.805 4.475-5.376 6.433-7.715l.018-.02.015-.019a245.076 245.076 0 0 1 5.362-5.937v-.002l.002-.002a34.368 34.368 0 0 1 2.205-2.174c.625-.551 1.27-1.05 1.898-1.365a5.088 5.088 0 0 1 1.897-.54zm229.421.001c.648.05 1.284.232 1.895.538.645.324 1.29.836 1.896 1.394.622.571 1.314 1.293 2.07 2.145 1.625 1.632 3.418 3.62 5.376 5.959a217.38 217.38 0 0 1 6.455 7.738c2.31 2.69 4.53 5.287 6.658 7.793a887.919 887.919 0 0 1 6.149 7.004c1.904 1.998 3.434 3.436 4.609 4.361.792.62 1.633 1.241 2.521 1.865 1.602 1.007 2.387 2.659 2.627 4.473l.006.045.002.047c.163 1.79-.538 3.337-1.84 4.498a67.873 67.873 0 0 0-2.842 2.715l-.019.02c-3.808 3.727-7.008 6.933-9.596 9.622-2.6 2.7-5.108 5.31-7.523 7.824a517.684 517.684 0 0 1-7.57 8.014 811.443 811.443 0 0 1-9.81 9.979c-1.382 1.388-3.167 1.871-5.065 1.6l-.024-.005c-1.845-.284-3.428-1.328-4.766-2.78l-.02-.02c-1.011-1.127-1.924-2.708-1.472-4.52l.02-.082.027-.08a8.824 8.824 0 0 1 1.67-2.975l.043-.048.043-.045c2.511-2.611 5.21-5.411 8.092-8.393a404.548 404.548 0 0 1 8.847-9.154 760.86 760.86 0 0 0 8.64-8.805l.024-.025a611.653 611.653 0 0 0 6.372-6.48 498.552 498.552 0 0 1-8.858-10.02l-.017-.024a479.863 479.863 0 0 0-10.014-11.578 347.004 347.004 0 0 0-2.916-3.203l-.059-.063-.052-.068a131.69 131.69 0 0 0-3.026-3.723l-.033-.039-.03-.04a52.622 52.622 0 0 0-2.548-3.094l-.076-.084-.067-.094c-.752-1.037-1.348-1.943-1.713-2.67-.83-1.572-1.402-3.474-.613-5.252l1.994.889-1.994-.891.022-.045.021-.043c.547-1.097 1.225-2.08 2.092-2.805l.043-.037.045-.033c.678-.51 1.514-.828 2.345-1.045a4.826 4.826 0 0 1 1.96-.26zm1.579 19.266 1.714-1.353-.043-.055-1.671 1.408zm-10.39 65.563 1.622-1.465-.006-.008-1.615 1.473zM95.083 55.71v.002-.002zm98.352 1.873a5.37 5.37 0 0 1 2.964.889c1.103.653 1.874 1.647 2.383 2.795l.026.054.021.055c.916 2.414.993 4.862.16 7.25l-.029.078-.031.076c-.63 1.445-1.55 3.74-2.758 6.912l-.006.02a1284.705 1284.705 0 0 1-4.193 10.517 6861.792 6861.792 0 0 1-4.744 12.45 1413.103 1413.103 0 0 0-4.745 12.593l.002.002-.005.016h-.002a12101.4 12101.4 0 0 1-4.053 10.652 1262.94 1262.94 0 0 0-2.635 6.953 51.457 51.457 0 0 1-1.303 3.479c-.52 1.25-1.156 2.385-1.922 3.385-.697 1.03-1.549 1.895-2.57 2.535l-.088.055-.092.046c-1.247.625-2.582.704-3.884.31-.953-.196-1.824-.672-2.48-1.472-.666-.81-.98-1.79-1.108-2.75l-.012-.076-.004-.076a13.622 13.622 0 0 1 .653-5.133c.663-2.275 1.6-5.236 2.808-8.87l.01-.032c1.308-3.746 2.756-7.817 4.342-12.215l.013-.037a6566.4 6566.4 0 0 0 5.168-13.59l.008-.02c1.864-4.765 3.634-9.298 5.31-13.595 1.677-4.297 3.214-8.177 4.614-11.639a787.853 787.853 0 0 0 3.205-8.244l.04-.102.048-.097a5.804 5.804 0 0 1 2-2.244c.844-.565 1.818-.93 2.889-.93zm-27.637 62.713 2.06.724.006-.013-2.066-.711zm16.685-9.024-2.046-.765.328.125 1.718.64zm16.446-42.492-2-.877h-.002l-.028.06 2.03.817zm39.422-11.195a5.38 5.38 0 0 1 2.966.887c1.103.652 1.874 1.647 2.383 2.795v.002l.024.052.021.055c.917 2.414.993 4.862.16 7.25l-.027.078-.033.076c-.63 1.445-1.547 3.74-2.756 6.912l-.008.02a1235.52 1235.52 0 0 1-4.193 10.517 6167.292 6167.292 0 0 1-4.742 12.45 1413.103 1413.103 0 0 0-4.745 12.593l-2.046-.765.353.135 1.691.632-.003.014a9004.125 9004.125 0 0 1-4.055 10.654 1334.503 1334.503 0 0 0-2.635 6.953 51.457 51.457 0 0 1-1.3 3.479c-.52 1.25-1.159 2.385-1.925 3.385-.697 1.03-1.547 1.895-2.568 2.535l-.088.055-.094.046c-1.247.625-2.582.704-3.884.31-.953-.196-1.824-.672-2.48-1.472-.666-.81-.98-1.79-1.108-2.75l-.01-.076-.006-.076a13.622 13.622 0 0 1 .654-5.133c.663-2.275 1.6-5.236 2.81-8.87l.009-.032c1.307-3.746 2.755-7.817 4.34-12.215l.013-.037c1.677-4.39 3.401-8.92 5.17-13.59l.008-.02c1.864-4.765 3.634-9.298 5.31-13.595a1085.89 1085.89 0 0 1 4.614-11.639 787.853 787.853 0 0 0 3.205-8.244l.04-.102.046-.097a5.796 5.796 0 0 1 2-2.244c.844-.564 1.818-.928 2.889-.928zm-27.635 62.71 2.06.725.004-.013-2.064-.711zm33.129-51.515-2-.877-.028.06 2.028.817zM98.156 58.516h.002-.002zm97.838.511-.797 1.276.051.033h.002l.744-1.309zm44.918 0-.797 1.276.051.033.746-1.309zm-53.627 10.979h.002-.002zm-51.08.463c3.156.195 6.118 1.028 8.857 2.52 3.657 1.99 6.304 4.827 7.817 8.501.849 2.023 1.194 4.076.666 6.008-.462 2.04-1.883 3.614-3.727 4.81l-.039.024-.039.023v.002c-3.796 2.245-7.878 4-12.24 5.262l-.021.006-.024.006c-3.667.98-7.55 1.548-11.648 1.709.37 1.78 1.047 3.179 1.968 4.264 1.324 1.465 2.943 2.334 4.944 2.636a12.19 12.19 0 0 0 3.771-.123l.024-.004c1.43-.253 2.702-.626 3.828-1.107a26.34 26.34 0 0 0 3.445-1.922 24.632 24.632 0 0 0 2.695-2.057c1.047-.934 2.239-1.6 3.57-1.89 1.003-.292 2.264-.509 3.41-.063 1.306.482 2.197 1.478 2.622 2.756.392 1.177.366 2.513.154 3.842l-.052.332-.15.3c-1.649 3.305-4.01 6.13-7.054 8.47l-.02.013-.017.014a23.55 23.55 0 0 1-10.267 4.312c-3.32.621-6.72.458-10.17-.459-3.55-.942-6.716-2.775-9.48-5.445l-.014-.014-.016-.013c-2.363-2.37-4.158-5.153-5.383-8.328a35.276 35.276 0 0 1-2.234-9.553c-.303-3.15-.052-6.18.773-9.076l.01-.036.012-.033c.92-2.869 2.31-5.414 4.18-7.607 1.874-2.292 4.204-4.15 6.955-5.58 2.832-1.473 6.072-2.283 9.673-2.485a24.566 24.566 0 0 1 3.221-.015zm.309 35.644.377 2.143.004.014-.381-2.157zM90.33 71.27h.002-.002zm248.87 1.26h.001-.002zm-46 .313c1.499.126 2.871.734 4.05 1.793 1.425 1.12 2.568 2.627 2.594 4.552.278 5.024.557 10.095.836 15.211a141.89 141.89 0 0 1 .28 15.49v.003a109.49 109.49 0 0 1-1.565 14.859 60.105 60.105 0 0 1-4.057 14.225l-.008.015c-1.949 4.497-4.575 8.69-7.867 12.578-3.244 3.942-7.343 7.454-12.26 10.547l-.002.004a7.94 7.94 0 0 1-3.455 1.162 9.761 9.761 0 0 1-3.092-.156 7.887 7.887 0 0 1-2.853-.902c-1.05-.481-1.946-1.3-2.354-2.53-.528-1.587-.177-3.163.574-4.545.731-1.344 1.873-2.618 3.291-3.838l.053-.044.057-.043c3.977-2.992 7.289-6.142 9.955-9.44a43.63 43.63 0 0 0 6.39-10.678c1.588-3.803 2.611-7.933 3.057-12.406l.004-.039c.365-3.117.486-6.439.352-9.967a75.56 75.56 0 0 1-.553.56 41.328 41.328 0 0 1-5.016 4.29l-.035.025-.033.022a42.87 42.87 0 0 1-5.447 3.101l-.043.02-.043.02c-1.983.837-3.95 1.292-5.88 1.292-1.624 0-3.222-.351-4.773-1.017-1.736-.747-3.304-2.098-4.738-3.844l-.025-.033-.026-.033c-1.58-2.08-3.003-4.395-4.27-6.934l-.02-.045-.022-.045a110.176 110.176 0 0 1-2.992-7.435 127.127 127.127 0 0 1-2.135-6.42l-.014-.05-.011-.05c-.45-1.805-.757-3.2-.877-4.1-.225-1.175-.23-2.347.023-3.492a3.992 3.992 0 0 1 1.316-2.213c.667-.566 1.454-.86 2.221-1.003 1.756-.35 3.48-.242 5.11.386 1.656.64 2.978 1.75 3.718 3.38l.035.077.03.08c.393 1.086.92 2.721 1.574 4.877a57.827 57.827 0 0 0 2.283 6.2c.884 1.948 1.8 3.653 2.744 5.12.946 1.333 1.532 1.423 1.688 1.423.702 0 1.867-.375 3.582-1.665l.02-.015.02-.014c1.763-1.263 3.481-2.933 5.147-5.043a32.75 32.75 0 0 0 4.192-6.965l.013-.03c1.194-2.566 1.752-4.961 1.752-7.204 0-.792.13-1.63.344-2.492.228-.916.571-1.786 1.03-2.602.445-.885.984-1.682 1.64-2.34.757-.76 1.71-1.398 2.863-1.591l.043-.008.045-.006a7.373 7.373 0 0 1 1.54-.035zm36.218 1.65-.006.004.006-.004zM129.486 81.92h.002-.002zm6.07.963c-.848-.02-1.71.048-2.59.207-.743.152-1.61.425-2.605.838-.84.386-1.655.89-2.445 1.523l-.023.022v-.002c-.437.34-.866.733-1.29 1.185.425-.05.858-.107 1.303-.174l.014-.002a84.298 84.298 0 0 0 5.408-.949c1.782-.448 3.365-.935 4.754-1.457l.022-.008.019-.005c.433-.153.835-.307 1.209-.463a4.347 4.347 0 0 0-1.152-.364l-.059-.01-.057-.015a11.978 11.978 0 0 0-2.507-.326zm-58.218 3.24v.002-.002zm221.16 8.41h.008-.008zm-175.162 2.662h.002-.002zm-56.063.42v.002-.002zm282.407 0h.002-.002zm7.549 4.768 1.275 1.312-1.219-1.257-.056-.055zm-231.096 2.662h.002-.002zm171.107 19.342h.002-.002zm-195.45 9.808h.001-.002zm113.919.284h.002-.002zm53.303 26.486v.002-.002z"/>
</svg>
