<svg width="297" height="223" viewBox="0 0 297 223" fill="none"
	xmlns="http://www.w3.org/2000/svg">
	<rect width="297" height="223" fill="#F5F5F5"/>
	<rect x="-4.21783" y="-4.93844" width="257.216" height="207.304" rx="15" transform="matrix(1 0 -0.156434 0.987688 39.7142 17.5019)" fill="white" stroke="black" stroke-width="10"/>
	<path d="M110.804 166.725L93.8823 146.913C93.6505 146.642 93.3584 146.426 93.0225 146.279C92.6867 146.132 92.3137 146.057 91.925 146.057C91.5363 146.057 91.1393 146.132 90.7569 146.279C90.3745 146.426 90.0141 146.642 89.6963 146.913L84.8806 151.028L89.3372 156.246C89.9913 156.038 90.6642 156.005 91.2797 156.152C91.8953 156.299 92.429 156.62 92.8205 157.078C93.2139 157.539 93.4475 158.121 93.4944 158.756C93.5414 159.392 93.3997 160.055 93.0858 160.671L97.3827 165.701C98.0404 165.487 98.7184 165.451 99.3389 165.597C99.9594 165.743 100.497 166.065 100.891 166.526C101.167 166.849 101.365 167.232 101.475 167.654C101.586 168.076 101.605 168.528 101.533 168.985C101.46 169.442 101.298 169.894 101.054 170.316C100.81 170.737 100.49 171.121 100.112 171.444C99.3479 172.096 98.3938 172.462 97.4596 172.462C96.5253 172.462 95.6873 172.096 95.1296 171.444C94.7155 170.958 94.479 170.339 94.4496 169.666C94.4203 168.993 94.5995 168.295 94.9648 167.661L90.9576 162.971L89.0024 175.315C89.465 175.56 89.8433 175.919 90.1059 176.363C90.3685 176.807 90.5078 177.322 90.5124 177.867C90.517 178.412 90.3867 178.971 90.1322 179.496C89.8778 180.022 89.5066 180.5 89.0493 180.891C88.6713 181.214 88.2427 181.47 87.7879 181.645C87.3331 181.819 86.8611 181.909 86.3988 181.909C85.9364 181.909 85.4929 181.819 85.0935 181.645C84.694 181.47 84.3465 181.214 84.0708 180.891C83.7949 180.568 83.5963 180.185 83.4861 179.763C83.3759 179.341 83.3565 178.889 83.4288 178.432C83.5011 177.975 83.6638 177.523 83.9076 177.101C84.1514 176.679 84.4716 176.296 84.8497 175.973C85.2307 175.647 85.6632 175.389 86.1221 175.213L88.0953 162.755C87.6936 162.58 87.3442 162.324 87.0669 161.999C86.7897 161.675 86.5902 161.291 86.4798 160.867C86.3694 160.443 86.3504 159.989 86.4238 159.53C86.4972 159.072 86.6616 158.618 86.9075 158.195L82.5136 153.049L66.6062 166.632C65.965 167.181 65.5359 167.924 65.4132 168.699C65.2904 169.474 65.484 170.217 65.9514 170.766L82.8742 190.58C83.3429 191.127 84.0467 191.435 84.8313 191.435C85.6159 191.435 86.4171 191.127 87.0592 190.58L110.15 170.859C110.791 170.31 111.22 169.567 111.343 168.792C111.466 168.017 111.272 167.273 110.804 166.725Z" fill="#F03C2E"/>
	<text fill="black" xml:space="preserve" style="white-space: pre" font-family="JetBrains Mono" font-size="64" font-style="italic" font-weight="800" letter-spacing="-0.07em">
		<tspan x="35" y="192.04">F CKED</tspan>
	</text>
	<text fill="black" xml:space="preserve" style="white-space: pre" font-family="JetBrains Mono" font-size="128" font-style="italic" font-weight="800" letter-spacing="-0.065em">
		<tspan x="43" y="130.58">GIT</tspan>
	</text>
</svg>
