<svg xmlns="http://www.w3.org/2000/svg" viewBox="0 0 140 140">
	<path fill="currentColor" d="m46.9 102.661.146.146c5.835-5.835 10.055-5.386 17.101 1.661l11.132 11.131c11.58 11.58 22.397 10.997 35.324-1.93l3.95-3.95-8.393-8.393-2.02 2.02c-7.317 7.316-12.433 7.406-19.435.404L71.643 90.688c-6.733-6.732-13.42-7.406-19.839-2.064l-1.257-1.257c5.476-6.643 4.938-12.837-1.57-19.345L37.26 56.307c-7.136-7.137-7.091-12.12.315-19.525l2.02-2.02-8.35-8.348-3.949 3.95c-12.972 12.971-13.69 23.564-2.379 34.875l9.65 9.65c7.047 7.047 7.496 11.356 1.706 17.146l.043.043A7.5 7.5 0 0 0 46.9 102.66Z"/>
	<g fill="currentColor" transform="rotate(-45 111.786 -40.04)">
		<circle cx="7.5" cy="7.5" r="7.5"/>
		<circle cx="32.5" cy="7.5" r="7.5"/>
		<circle cx="57.5" cy="7.5" r="7.5"/>
	</g>
</svg>
