<svg xmlns="http://www.w3.org/2000/svg" fill="none" viewBox="0 0 210.064 162.548">
	<path fill="currentColor" d="M99.354 0c-23.638 0-43.647.229-59.79 2.275C18.195 5.005.006 21.37.006 51.609H0c0 30.69 1.591 53.653 13.87 74.338 13.867 23.644 37.055 36.602 67.066 36.602h7.273c36.828 0 56.835-19.552 66.838-35.01 4.321-6.824 7.503-13.64 9.549-20.465 26.146-2.268 45.469-23.864 45.469-50.238v-3.637c0-28.42-18.64-48.2-50.698-51.38-13.64-1.363-23.185-1.82-60.013-1.82Zm-.006 17.049c36.834 0 44.563.457 57.52 1.592 22.965 2.724 36.15 13.866 36.15 35.007v3.41c0 18.874-15.688 33.647-33.877 33.647h-8.186l-1.361 5.684c-1.818 8.87-5.227 15.914-9.092 22.28-7.957 12.5-22.282 26.825-51.836 26.825h-7.045c-22.51 0-42.29-7.73-53.2-27.965-9.546-17.505-11.364-36.372-11.364-65.699h-.008c0-19.095 7.508-29.775 26.375-32.506 13.412-2.046 31.146-2.275 55.924-2.275z"/>
	<path fill="currentColor" d="M150.967 67.521c0 2.73 2.046 4.777 5.683 4.777 11.594 0 17.961-6.595 17.961-17.505s-6.367-17.732-17.961-17.732c-3.637 0-5.683 2.046-5.683 4.776v25.69zm-111.626-1.36c0 13.412 7.501 25.006 17.049 34.104 6.367 6.138 16.37 12.506 23.188 16.598 2.046 1.135 4.092 1.819 6.367 1.819 2.73 0 4.998-.684 6.823-1.819 6.823-4.092 16.82-10.46 22.96-16.598 9.775-9.092 17.276-20.686 17.276-34.104 0-14.553-10.909-27.509-26.596-27.509-9.319 0-15.687 4.777-20.463 11.366-4.321-6.595-10.91-11.366-20.236-11.366-15.915 0-26.374 12.956-26.374 27.509"/>
</svg>
