<svg xmlns="http://www.w3.org/2000/svg" viewBox="0 0 800 800">
	<path d="M73.643.094C72.755-.047 71.858-.043 71 .2l-1.5 1.5-7.5.5-1.5 1.5c-2.686 1.046-5.182.016-7.5 1-1.642.697-2.621 2.48-4.5 3L36 8.2c-.951.283-1.863 1.735-2.5 2H25c-1.544-1.963-6.576-5.229-9-6L1 4.7 0 3.2v790.6c5.213-.958 11.278-7.98 18-2 5.286-.347 8.112-4.084 12-6 3.179-1.567 4.471 2.358 7 2 .982-.14 2.346-1.767 3-2 2.788-.996 8.147 3.454 10 4 3.357.99 5.007-.467 7 1.5 2.494.007 3.014-.076 4-1.5 2.029.175 2.487.44 3.5 1.5 2.811-.094 3.445-.782 4.5-2.5 4.294.382 9.458 1.053 15 1 1.223-1.316 2.515-2.414 3.5-4 2.487.16 3.394 1.705 6 1 1.779-.481 4.217-2.461 5.5-3 1.708-.718 15.212-.77 17.5 0 .789.265 1.712 1.734 2.5 2h12l2 2c2.393 1.277 4.414.975 7 2 1.72.682 2.958 2.487 5 3 4.567 1.147 7.353-2.793 13-1.5 2.123.486 5.085 2.298 8 1.5 3.228-.884 6.346-4.127 9.5-5 5.096-1.41 8.868 1.952 11.5 3 5.704 2.27 9.103-3.242 14-2.5 4.933.747 9.859 5.578 13.5.5 4.09.332 8.161 3.222 11.5 4 2.34.546 3.459-2.225 6-1 3.539 1.706 12.146 7.65 18 5l1-1.5 15 .5c2.424-.771 7.456-4.037 9-6h8.5c.637.265 1.549 1.717 2.5 2l12.5.5c1.879.52 2.858 2.303 4.5 3 2.318.984 4.814-.046 7.5 1l1.5 1.5 7.5.5 1.5 1.5c3.433.975 7.495-1.891 9-2.5l12.5.5 1-1c2.816-.654 2.879 1.493 4.5 2 7.6 2.378 20.337-2.11 24-5 .499.9.927 1.272 1.5 2 1.663-.003 2.976-.144 4-.5-.199-1.027-.124-.964-.5-1.5v-1c2.953.109 3.029 1.448 4.5 2 2.101.788 7.8-3.122 10-1 1.159-.113 1.41-.1 2-.5.581-1.082.325-2.973 1.5-4.5 2.328-3.712 13.152.098 16 1h8c2.627.754 6.857 1.622 9.5 0l1.5-2h12l1.5-1.5c2.334-.531 1.756 1.213 3.5 1.5 3.85.633 10.924-1.267 13.5-.5.172.05 14.418 8.89 14.5 9 4.311-.083 5.205-1.598 8-2.5 5.295-1.71 9.428 1.766 14 1 7.805-1.308 14.449-5.7 23-7 3.442-.523 12.913 5.21 17.5 4 2.166-.572 5.424-2.69 7.5-3.5l9-.5c3.419-.914 8.116-1 11.5-2h7c1.529-.546 5.504-2.57 8-2 .455.104 2.347 1.339 3 1.5l7.5-.5c1.648.69 2.523 3.002 5 3.5 2.176.438 3.287-1.128 4.5-1.5h7.5c1.076-.352 1.392-2.074 3.5-1.5l2 2 5 .5c1.45.652 2.717 3.158 4 4 2.547 1.67 6.042-.203 8.5.5 1.979.566 3.544 3.399 6 4 2.467.604 3.23-1.294 4.5-1.5.518-.084 1.262.942 1.5 1 4.427 1.074 6.303-.51 8.5 2.5 7.215-.12 6.961-3.66 11-5l7.5 1c2.109-.588 6.646-2.311 9-3h11l1.5-1.5c3.473-1.016 4.721 2.365 7 3 6.135 1.709 15.662-1.004 19-3 .518.82 1.735 3.413 2.5 4 1.938 1.488 5.916-.448 8.5.5.357.13 4.12 3.53 4.5 4 4.046-.146 4.152-1.764 7-2.5 2.23-.834 2.856 1.89 5 2.5 4.204 1.195 6.679-2.687 12-1.5 8.713 1.943 21.611 2.92 26.5-3.5 2.055.458 1.637 1.494 3 2 3.602 1.336 5.927-1.542 8-2 2.31-.51 3.521.749 5.5 1V3.2c-5.854-2.65-14.461 3.294-18 5-2.541 1.225-3.66-1.546-6-1-3.339.778-7.41 3.668-11.5 4-3.641-5.078-8.567-.247-13.5.5-4.897.742-8.296-4.77-14-2.5-2.632 1.048-6.404 4.41-11.5 3-3.154-.873-6.272-4.116-9.5-5-2.915-.798-5.877 1.014-8 1.5-5.647 1.293-8.433-2.647-13-1.5-2.042.513-3.28 2.318-5 3-2.586 1.025-4.607.723-7 2l-2 2h-12c-.788.266-1.711 1.735-2.5 2-2.288.77-15.792.718-17.5 0-1.283-.539-3.721-2.519-5.5-3-2.606-.705-3.513.84-6 1-.985-1.586-2.277-2.684-3.5-4-5.542-.053-10.706.618-15 1-1.055-1.718-1.689-2.406-4.5-2.5-1.013 1.06-1.471 1.325-3.5 1.5-.986-1.424-1.506-1.507-4-1.5-1.993 1.967-3.643.51-7 1.5-1.853.546-7.212 4.996-10 4-.654-.233-2.018-1.86-3-2-2.529-.358-3.821 3.567-7 2-3.888-1.916-6.714-5.653-12-6-6.722 5.98-12.787-1.042-18-2v-.5c-1.979.251-3.19 1.51-5.5 1-2.073-.458-4.398-3.336-8-2-1.363.506-.945 1.542-3 2-4.889-6.42-17.787-5.443-26.5-3.5-5.321 1.187-7.796-2.695-12-1.5-2.144.61-2.77 3.334-5 2.5-2.848-.736-2.954-2.354-7-2.5-.38.47-4.143 3.87-4.5 4-2.584.948-6.562-.988-8.5.5-.765.587-1.982 3.18-2.5 4-3.338-1.996-12.865-4.709-19-3-2.279.635-3.527 4.016-7 3L440 8.7h-11c-2.354-.689-6.891-2.412-9-3l-7.5 1c-4.039-1.34-3.785-4.88-11-5-2.197 3.01-4.073 1.426-8.5 2.5-.238.058-.982 1.084-1.5 1-1.27-.206-2.033-2.104-4.5-1.5-2.456.601-4.021 3.434-6 4-2.458.703-5.953-1.17-8.5.5-1.283.842-2.55 3.348-4 4l-5 .5-2 2c-2.108.574-2.424-1.148-3.5-1.5h-7.5c-1.213-.372-2.324-1.938-4.5-1.5-2.477.498-3.352 2.81-5 3.5l-7.5-.5c-.653.161-2.545 1.396-3 1.5-2.496.57-6.471-1.454-8-2h-7c-3.384-1-8.081-1.086-11.5-2l-9-.5c-2.076-.81-5.334-2.928-7.5-3.5-4.587-1.21-14.058 4.523-17.5 4-8.551-1.3-15.195-5.692-23-7-4.572-.766-8.705 2.71-14 1-2.795-.902-3.689-2.417-8-2.5-.082.11-14.328 8.95-14.5 9-2.576.767-9.65-1.133-13.5-.5-1.744.287-1.166 2.031-3.5 1.5l-1.5-1.5h-12l-1.5-2c-2.643-1.622-6.873-.754-9.5 0h-8c-2.848.902-13.672 4.712-16 1-1.175-1.527-.919-3.418-1.5-4.5-.59-.4-.841-.387-2-.5-2.2 2.122-7.899-1.788-10-1-1.471.552-1.547 1.891-4.5 2v-1c.376-.536.301-.473.5-1.5-1.024-.356-2.337-.497-4-.5-.573.728-1.001 1.1-1.5 2-3.663-2.89-16.4-7.378-24-5-1.621.507-1.684 2.654-4.5 2l-1-1-12.5.5C78.871 2.244 76.304.517 73.643.094Z"/>
</svg>
