<svg xmlns="http://www.w3.org/2000/svg" viewBox="0 0 320 280">
	<path fill="currentColor" d="M37.979 0C16.939 0 0 16.939 0 37.979V242.02C0 263.061 16.939 280 37.979 280H282.02c21.04 0 37.979-16.939 37.979-37.979V37.98C320 16.939 303.061 0 282.021 0Zm198.117 39.742h30.76c8.398 0 15.16 6.762 15.16 15.16a15.126 15.126 0 0 1-15.16 15.159h-30.76c-8.399 0-15.16-6.76-15.16-15.159 0-8.398 6.761-15.16 15.16-15.16zM54.902 40h110.196A14.87 14.87 0 0 1 180 54.902v170.196A14.87 14.87 0 0 1 165.098 240H54.902A14.87 14.87 0 0 1 40 225.098V54.902A14.87 14.87 0 0 1 54.902 40Zm181.645 59.69h30.76c8.398 0 15.16 6.761 15.16 15.16a15.126 15.126 0 0 1-15.16 15.158h-30.76c-8.399 0-15.16-6.76-15.16-15.158 0-8.399 6.761-15.16 15.16-15.16zm0 59.947h30.76c8.398 0 15.16 6.761 15.16 15.16 0 8.398-6.762 15.16-15.16 15.16h-30.76a15.127 15.127 0 0 1-15.16-15.16c0-8.399 6.761-15.16 15.16-15.16z"/>
</svg>
