<svg width="1236" height="659" viewBox="0 0 1236 659" fill="none"
   xmlns="http://www.w3.org/2000/svg">
   <rect x="1.35498" y="435" width="474.675" height="224" rx="32" fill="#E4CCFF"/>
   <path d="M146.723 531.4C143.87 531.4 141.63 530.627 140.003 529.08C138.403 527.507 137.603 525.373 137.603 522.68V501.8H142.643V522.64C142.643 524.027 142.99 525.107 143.683 525.88C144.376 526.653 145.39 527.04 146.723 527.04C148.03 527.04 149.03 526.653 149.723 525.88C150.443 525.107 150.803 524.027 150.803 522.64V501.8H155.843V522.68C155.843 525.373 155.043 527.507 153.443 529.08C151.843 530.627 149.603 531.4 146.723 531.4ZM160.907 531V509H165.787V513.2H165.867C166.107 511.76 166.734 510.64 167.747 509.84C168.761 509.013 170.081 508.6 171.707 508.6C173.867 508.6 175.587 509.32 176.867 510.76C178.174 512.2 178.827 514.133 178.827 516.56V531H173.827V517.08C173.827 515.747 173.467 514.72 172.747 514C172.054 513.28 171.107 512.92 169.907 512.92C168.654 512.92 167.667 513.293 166.947 514.04C166.254 514.787 165.907 515.853 165.907 517.24V531H160.907ZM194.812 531.4C193.212 531.4 191.892 531.013 190.852 530.24C189.812 529.467 189.158 528.373 188.892 526.96V531H184.012V501.8H189.012V507.96L188.852 513.2C189.092 511.76 189.732 510.64 190.772 509.84C191.838 509.013 193.185 508.6 194.812 508.6C197.025 508.6 198.798 509.36 200.132 510.88C201.465 512.4 202.132 514.453 202.132 517.04V523C202.132 525.587 201.465 527.64 200.132 529.16C198.798 530.653 197.025 531.4 194.812 531.4ZM193.052 527.08C194.332 527.08 195.332 526.707 196.052 525.96C196.772 525.213 197.132 524.147 197.132 522.76V517.24C197.132 515.853 196.772 514.787 196.052 514.04C195.332 513.293 194.332 512.92 193.052 512.92C191.772 512.92 190.772 513.307 190.052 514.08C189.358 514.827 189.012 515.88 189.012 517.24V522.76C189.012 524.12 189.358 525.187 190.052 525.96C190.772 526.707 191.772 527.08 193.052 527.08ZM207.756 531V509H212.636V513.2H212.756C212.969 511.76 213.609 510.64 214.676 509.84C215.743 509.013 217.103 508.6 218.756 508.6C221.023 508.6 222.836 509.347 224.196 510.84C225.556 512.307 226.236 514.32 226.236 516.88V518.68H220.996V517.24C220.996 515.88 220.636 514.827 219.916 514.08C219.223 513.307 218.209 512.92 216.876 512.92C214.129 512.92 212.756 514.453 212.756 517.52V531H207.756ZM236.7 531.4C234.434 531.4 232.647 530.813 231.34 529.64C230.034 528.44 229.38 526.813 229.38 524.76C229.38 522.6 230.127 520.933 231.62 519.76C233.114 518.56 235.194 517.96 237.86 517.96H243.14V516.12C243.14 515.053 242.794 514.227 242.1 513.64C241.407 513.053 240.434 512.76 239.18 512.76C238.034 512.76 237.087 513 236.34 513.48C235.62 513.96 235.22 514.6 235.14 515.4H230.38C230.487 513.347 231.354 511.707 232.98 510.48C234.634 509.227 236.754 508.6 239.34 508.6C242.06 508.6 244.207 509.267 245.78 510.6C247.354 511.933 248.14 513.76 248.14 516.08V531H243.3V527.28H243.22C242.927 528.56 242.207 529.573 241.06 530.32C239.914 531.04 238.46 531.4 236.7 531.4ZM238.34 527.68C239.754 527.68 240.9 527.333 241.78 526.64C242.687 525.92 243.14 524.973 243.14 523.8V521.16H237.98C236.86 521.16 235.98 521.453 235.34 522.04C234.7 522.6 234.38 523.373 234.38 524.36C234.38 525.4 234.727 526.213 235.42 526.8C236.14 527.387 237.114 527.68 238.34 527.68ZM253.325 531V509H258.205V513.2H258.285C258.525 511.76 259.151 510.64 260.165 509.84C261.178 509.013 262.498 508.6 264.125 508.6C266.285 508.6 268.005 509.32 269.285 510.76C270.591 512.2 271.245 514.133 271.245 516.56V531H266.245V517.08C266.245 515.747 265.885 514.72 265.165 514C264.471 513.28 263.525 512.92 262.325 512.92C261.071 512.92 260.085 513.293 259.365 514.04C258.671 514.787 258.325 515.853 258.325 517.24V531H253.325ZM283.349 531.4C281.216 531.4 279.482 530.64 278.149 529.12C276.816 527.6 276.149 525.56 276.149 523V517.04C276.149 514.453 276.802 512.4 278.109 510.88C279.442 509.36 281.189 508.6 283.349 508.6C284.869 508.6 286.149 508.987 287.189 509.76C288.229 510.507 288.949 511.573 289.349 512.96H289.429L289.269 507.96V501.8H294.269V531H289.389V527.04H289.349C288.949 528.427 288.229 529.507 287.189 530.28C286.176 531.027 284.896 531.4 283.349 531.4ZM285.229 527.08C286.509 527.08 287.496 526.693 288.189 525.92C288.909 525.147 289.269 524.053 289.269 522.64V517.36C289.269 515.947 288.909 514.853 288.189 514.08C287.496 513.307 286.509 512.92 285.229 512.92C283.949 512.92 282.949 513.293 282.229 514.04C281.509 514.787 281.149 515.853 281.149 517.24V522.76C281.149 524.147 281.509 525.213 282.229 525.96C282.949 526.707 283.949 527.08 285.229 527.08ZM308.493 531.4C306.627 531.4 305 531.04 303.613 530.32C302.227 529.6 301.147 528.6 300.373 527.32C299.627 526.013 299.253 524.493 299.253 522.76V517.24C299.253 515.507 299.627 514 300.373 512.72C301.147 511.413 302.227 510.4 303.613 509.68C305 508.96 306.627 508.6 308.493 508.6C310.333 508.6 311.933 508.96 313.293 509.68C314.68 510.4 315.747 511.413 316.493 512.72C317.267 514 317.653 515.507 317.653 517.24V521.2H304.093V522.76C304.093 525.88 305.573 527.44 308.533 527.44C310.827 527.44 312.173 526.68 312.573 525.16H317.493C317.12 527.053 316.107 528.573 314.453 529.72C312.827 530.84 310.84 531.4 308.493 531.4ZM304.093 517.24V518.08L312.813 518.04V517.2C312.813 515.68 312.453 514.52 311.733 513.72C311.013 512.893 309.933 512.48 308.493 512.48C307.027 512.48 305.92 512.893 305.173 513.72C304.453 514.547 304.093 515.72 304.093 517.24ZM329.558 531.4C327.425 531.4 325.691 530.64 324.358 529.12C323.025 527.6 322.358 525.56 322.358 523V517.04C322.358 514.453 323.011 512.4 324.318 510.88C325.651 509.36 327.398 508.6 329.558 508.6C331.078 508.6 332.358 508.987 333.398 509.76C334.438 510.507 335.158 511.573 335.558 512.96H335.638L335.478 507.96V501.8H340.478V531H335.598V527.04H335.558C335.158 528.427 334.438 529.507 333.398 530.28C332.385 531.027 331.105 531.4 329.558 531.4ZM331.438 527.08C332.718 527.08 333.705 526.693 334.398 525.92C335.118 525.147 335.478 524.053 335.478 522.64V517.36C335.478 515.947 335.118 514.853 334.398 514.08C333.705 513.307 332.718 512.92 331.438 512.92C330.158 512.92 329.158 513.293 328.438 514.04C327.718 514.787 327.358 515.853 327.358 517.24V522.76C327.358 524.147 327.718 525.213 328.438 525.96C329.158 526.707 330.158 527.08 331.438 527.08ZM53.9853 591.4C52.1187 591.4 50.4787 591.053 49.0653 590.36C47.6787 589.64 46.5987 588.64 45.8253 587.36C45.052 586.053 44.6653 584.52 44.6653 582.76V577.24C44.6653 575.48 45.052 573.96 45.8253 572.68C46.5987 571.373 47.6787 570.373 49.0653 569.68C50.4787 568.96 52.1187 568.6 53.9853 568.6C56.7587 568.6 58.972 569.32 60.6253 570.76C62.2787 572.173 63.1453 574.107 63.2253 576.56H58.3453C58.2653 575.413 57.8253 574.533 57.0253 573.92C56.252 573.28 55.2387 572.96 53.9853 572.96C52.652 572.96 51.5987 573.333 50.8253 574.08C50.052 574.8 49.6653 575.84 49.6653 577.2V582.76C49.6653 584.12 50.052 585.173 50.8253 585.92C51.5987 586.667 52.652 587.04 53.9853 587.04C55.2653 587.04 56.292 586.733 57.0653 586.12C57.8387 585.48 58.2653 584.587 58.3453 583.44H63.2253C63.1453 585.893 62.2787 587.84 60.6253 589.28C58.972 590.693 56.7587 591.4 53.9853 591.4ZM76.9697 591.36C74.1431 591.36 71.9031 590.587 70.2497 589.04C68.5964 587.467 67.7697 585.36 67.7697 582.72V577.28C67.7697 574.64 68.5964 572.547 70.2497 571C71.9031 569.427 74.1431 568.64 76.9697 568.64C79.7964 568.64 82.0364 569.427 83.6897 571C85.3431 572.547 86.1697 574.627 86.1697 577.24V582.72C86.1697 585.36 85.3431 587.467 83.6897 589.04C82.0364 590.587 79.7964 591.36 76.9697 591.36ZM76.9697 587C78.3031 587 79.3297 586.64 80.0497 585.92C80.7964 585.173 81.1697 584.107 81.1697 582.72V577.28C81.1697 575.893 80.7964 574.84 80.0497 574.12C79.3297 573.373 78.3031 573 76.9697 573C75.6364 573 74.5964 573.373 73.8497 574.12C73.1297 574.84 72.7697 575.893 72.7697 577.28V582.72C72.7697 584.107 73.1297 585.173 73.8497 585.92C74.5964 586.64 75.6364 587 76.9697 587ZM90.0341 591V569H94.1141V571.96H94.3141C94.4474 570.947 94.8474 570.133 95.5141 569.52C96.1808 568.907 97.0074 568.6 97.9941 568.6C98.9008 568.6 99.6874 568.907 100.354 569.52C101.021 570.133 101.474 570.947 101.714 571.96H101.834C101.994 570.947 102.407 570.133 103.074 569.52C103.767 568.907 104.621 568.6 105.634 568.6C106.941 568.6 108.007 569.133 108.834 570.2C109.687 571.24 110.114 572.587 110.114 574.24V591H105.794V574.6C105.794 573.053 105.154 572.28 103.874 572.28C102.594 572.28 101.954 573.053 101.954 574.6V591H98.1941V574.6C98.1941 573.053 97.5541 572.28 96.2741 572.28C95.0208 572.28 94.3941 573.053 94.3941 574.6V591H90.0341ZM114.258 598.2V569H119.138V572.96H119.218C119.618 571.573 120.325 570.507 121.338 569.76C122.378 568.987 123.658 568.6 125.178 568.6C127.338 568.6 129.072 569.36 130.378 570.88C131.712 572.4 132.378 574.44 132.378 577V582.96C132.378 585.547 131.712 587.6 130.378 589.12C129.072 590.64 127.338 591.4 125.178 591.4C123.685 591.4 122.418 591.027 121.378 590.28C120.338 589.507 119.618 588.427 119.218 587.04H119.138L119.258 592.04V598.2H114.258ZM123.338 587.08C124.618 587.08 125.605 586.707 126.298 585.96C127.018 585.213 127.378 584.147 127.378 582.76V577.24C127.378 575.853 127.018 574.787 126.298 574.04C125.605 573.293 124.618 572.92 123.338 572.92C122.058 572.92 121.058 573.307 120.338 574.08C119.618 574.853 119.258 575.947 119.258 577.36V582.64C119.258 584.053 119.618 585.147 120.338 585.92C121.058 586.693 122.058 587.08 123.338 587.08ZM146.283 591.36C143.456 591.36 141.216 590.587 139.563 589.04C137.91 587.467 137.083 585.36 137.083 582.72V577.28C137.083 574.64 137.91 572.547 139.563 571C141.216 569.427 143.456 568.64 146.283 568.64C149.11 568.64 151.35 569.427 153.003 571C154.656 572.547 155.483 574.627 155.483 577.24V582.72C155.483 585.36 154.656 587.467 153.003 589.04C151.35 590.587 149.11 591.36 146.283 591.36ZM146.283 587C147.616 587 148.643 586.64 149.363 585.92C150.11 585.173 150.483 584.107 150.483 582.72V577.28C150.483 575.893 150.11 574.84 149.363 574.12C148.643 573.373 147.616 573 146.283 573C144.95 573 143.91 573.373 143.163 574.12C142.443 574.84 142.083 575.893 142.083 577.28V582.72C142.083 584.107 142.443 585.173 143.163 585.92C143.91 586.64 144.95 587 146.283 587ZM160.467 591V569H165.347V573.2H165.427C165.667 571.76 166.294 570.64 167.307 569.84C168.321 569.013 169.641 568.6 171.267 568.6C173.427 568.6 175.147 569.32 176.427 570.76C177.734 572.2 178.387 574.133 178.387 576.56V591H173.387V577.08C173.387 575.747 173.027 574.72 172.307 574C171.614 573.28 170.667 572.92 169.467 572.92C168.214 572.92 167.227 573.293 166.507 574.04C165.814 574.787 165.467 575.853 165.467 577.24V591H160.467ZM192.532 591.4C190.665 591.4 189.038 591.04 187.652 590.32C186.265 589.6 185.185 588.6 184.412 587.32C183.665 586.013 183.292 584.493 183.292 582.76V577.24C183.292 575.507 183.665 574 184.412 572.72C185.185 571.413 186.265 570.4 187.652 569.68C189.038 568.96 190.665 568.6 192.532 568.6C194.372 568.6 195.972 568.96 197.332 569.68C198.718 570.4 199.785 571.413 200.532 572.72C201.305 574 201.692 575.507 201.692 577.24V581.2H188.132V582.76C188.132 585.88 189.612 587.44 192.572 587.44C194.865 587.44 196.212 586.68 196.612 585.16H201.532C201.158 587.053 200.145 588.573 198.492 589.72C196.865 590.84 194.878 591.4 192.532 591.4ZM188.132 577.24V578.08L196.852 578.04V577.2C196.852 575.68 196.492 574.52 195.772 573.72C195.052 572.893 193.972 572.48 192.532 572.48C191.065 572.48 189.958 572.893 189.212 573.72C188.492 574.547 188.132 575.72 188.132 577.24ZM206.676 591V569H211.556V573.2H211.636C211.876 571.76 212.503 570.64 213.516 569.84C214.529 569.013 215.849 568.6 217.476 568.6C219.636 568.6 221.356 569.32 222.636 570.76C223.943 572.2 224.596 574.133 224.596 576.56V591H219.596V577.08C219.596 575.747 219.236 574.72 218.516 574C217.823 573.28 216.876 572.92 215.676 572.92C214.423 572.92 213.436 573.293 212.716 574.04C212.023 574.787 211.676 575.853 211.676 577.24V591H206.676ZM241.1 591C239.047 591 237.407 590.413 236.18 589.24C234.98 588.04 234.38 586.427 234.38 584.4V573.52H228.42V569H234.38V562.8H239.42V569H247.86V573.52H239.42V584.28C239.42 584.92 239.594 585.453 239.94 585.88C240.314 586.28 240.82 586.48 241.46 586.48H247.46V591H241.1ZM288.469 591C286.282 591 284.522 590.347 283.189 589.04C281.882 587.733 281.229 586.013 281.229 583.88V566.32H273.989V561.8H286.229V583.76C286.229 584.587 286.456 585.253 286.909 585.76C287.389 586.24 288.029 586.48 288.829 586.48H295.269V591H288.469ZM299.053 591V586.48H306.573V573.52H299.853V569H311.573V586.48H318.333V591H299.053ZM308.733 565.32C307.72 565.32 306.92 565.067 306.333 564.56C305.747 564.027 305.453 563.32 305.453 562.44C305.453 561.56 305.747 560.867 306.333 560.36C306.92 559.827 307.72 559.56 308.733 559.56C309.747 559.56 310.547 559.827 311.133 560.36C311.72 560.867 312.013 561.56 312.013 562.44C312.013 563.32 311.72 564.027 311.133 564.56C310.547 565.067 309.747 565.32 308.733 565.32ZM332.998 591.4C331.398 591.4 330.078 591.013 329.038 590.24C327.998 589.467 327.345 588.373 327.078 586.96V591H322.198V561.8H327.198V567.96L327.038 573.2C327.278 571.76 327.918 570.64 328.958 569.84C330.025 569.013 331.371 568.6 332.998 568.6C335.211 568.6 336.985 569.36 338.318 570.88C339.651 572.4 340.318 574.453 340.318 577.04V583C340.318 585.587 339.651 587.64 338.318 589.16C336.985 590.653 335.211 591.4 332.998 591.4ZM331.238 587.08C332.518 587.08 333.518 586.707 334.238 585.96C334.958 585.213 335.318 584.147 335.318 582.76V577.24C335.318 575.853 334.958 574.787 334.238 574.04C333.518 573.293 332.518 572.92 331.238 572.92C329.958 572.92 328.958 573.307 328.238 574.08C327.545 574.827 327.198 575.88 327.198 577.24V582.76C327.198 584.12 327.545 585.187 328.238 585.96C328.958 586.707 329.958 587.08 331.238 587.08ZM345.942 591V569H350.822V573.2H350.942C351.156 571.76 351.796 570.64 352.862 569.84C353.929 569.013 355.289 568.6 356.942 568.6C359.209 568.6 361.022 569.347 362.382 570.84C363.742 572.307 364.422 574.32 364.422 576.88V578.68H359.182V577.24C359.182 575.88 358.822 574.827 358.102 574.08C357.409 573.307 356.396 572.92 355.062 572.92C352.316 572.92 350.942 574.453 350.942 577.52V591H345.942ZM374.887 591.4C372.62 591.4 370.833 590.813 369.527 589.64C368.22 588.44 367.567 586.813 367.567 584.76C367.567 582.6 368.313 580.933 369.807 579.76C371.3 578.56 373.38 577.96 376.047 577.96H381.327V576.12C381.327 575.053 380.98 574.227 380.287 573.64C379.593 573.053 378.62 572.76 377.367 572.76C376.22 572.76 375.273 573 374.527 573.48C373.807 573.96 373.407 574.6 373.327 575.4H368.567C368.673 573.347 369.54 571.707 371.167 570.48C372.82 569.227 374.94 568.6 377.527 568.6C380.247 568.6 382.393 569.267 383.967 570.6C385.54 571.933 386.327 573.76 386.327 576.08V591H381.487V587.28H381.407C381.113 588.56 380.393 589.573 379.247 590.32C378.1 591.04 376.647 591.4 374.887 591.4ZM376.527 587.68C377.94 587.68 379.087 587.333 379.967 586.64C380.873 585.92 381.327 584.973 381.327 583.8V581.16H376.167C375.047 581.16 374.167 581.453 373.527 582.04C372.887 582.6 372.567 583.373 372.567 584.36C372.567 585.4 372.913 586.213 373.607 586.8C374.327 587.387 375.3 587.68 376.527 587.68ZM392.151 591V569H397.031V573.2H397.151C397.364 571.76 398.004 570.64 399.071 569.84C400.138 569.013 401.498 568.6 403.151 568.6C405.418 568.6 407.231 569.347 408.591 570.84C409.951 572.307 410.631 574.32 410.631 576.88V578.68H405.391V577.24C405.391 575.88 405.031 574.827 404.311 574.08C403.618 573.307 402.604 572.92 401.271 572.92C398.524 572.92 397.151 574.453 397.151 577.52V591H392.151ZM418.175 598.2L421.295 589.8L412.815 569H418.255L422.575 580.24C422.815 580.853 423.042 581.6 423.255 582.48C423.469 583.333 423.629 584.04 423.735 584.6C423.869 584.04 424.042 583.333 424.255 582.48C424.495 581.6 424.722 580.853 424.935 580.24L429.055 569H434.255L423.415 598.2H418.175Z" fill="black" fill-opacity="0.8"/>
   <rect x="744.03" y="35" width="474.675" height="224" rx="32" fill="#E4CCFF"/>
   <path d="M833.749 161V131.8H842.429C844.402 131.8 846.109 132.187 847.549 132.96C849.016 133.707 850.149 134.76 850.949 136.12C851.749 137.48 852.149 139.08 852.149 140.92V151.84C852.149 153.68 851.749 155.293 850.949 156.68C850.149 158.04 849.016 159.107 847.549 159.88C846.109 160.627 844.402 161 842.429 161H833.749ZM838.749 156.52H842.429C843.869 156.52 845.016 156.107 845.869 155.28C846.722 154.427 847.149 153.28 847.149 151.84V140.92C847.149 139.507 846.722 138.387 845.869 137.56C845.016 136.707 843.869 136.28 842.429 136.28H838.749V156.52ZM865.894 161.4C864.027 161.4 862.4 161.04 861.014 160.32C859.627 159.6 858.547 158.6 857.774 157.32C857.027 156.013 856.654 154.493 856.654 152.76V147.24C856.654 145.507 857.027 144 857.774 142.72C858.547 141.413 859.627 140.4 861.014 139.68C862.4 138.96 864.027 138.6 865.894 138.6C867.734 138.6 869.334 138.96 870.694 139.68C872.08 140.4 873.147 141.413 873.894 142.72C874.667 144 875.054 145.507 875.054 147.24V151.2H861.494V152.76C861.494 155.88 862.974 157.44 865.934 157.44C868.227 157.44 869.574 156.68 869.974 155.16H874.894C874.52 157.053 873.507 158.573 871.854 159.72C870.227 160.84 868.24 161.4 865.894 161.4ZM861.494 147.24V148.08L870.214 148.04V147.2C870.214 145.68 869.854 144.52 869.134 143.72C868.414 142.893 867.334 142.48 865.894 142.48C864.427 142.48 863.32 142.893 862.574 143.72C861.854 144.547 861.494 145.72 861.494 147.24ZM888.118 161.36C886.438 161.36 884.958 161.107 883.678 160.6C882.398 160.067 881.398 159.32 880.678 158.36C879.985 157.4 879.638 156.267 879.638 154.96H884.678C884.678 155.733 884.985 156.333 885.598 156.76C886.238 157.16 887.091 157.36 888.158 157.36H889.878C891.131 157.36 892.065 157.133 892.678 156.68C893.291 156.227 893.598 155.6 893.598 154.8C893.598 153.28 892.465 152.347 890.198 152L887.118 151.6C882.505 150.933 880.198 148.733 880.198 145C880.198 142.92 880.891 141.347 882.278 140.28C883.691 139.187 885.731 138.64 888.398 138.64H889.918C892.398 138.64 894.385 139.2 895.878 140.32C897.398 141.413 898.158 142.867 898.158 144.68H893.118C893.118 144.04 892.838 143.547 892.278 143.2C891.718 142.827 890.918 142.64 889.878 142.64H888.358C886.171 142.64 885.078 143.427 885.078 145C885.078 146.36 886.051 147.187 887.998 147.48L891.118 147.96C893.598 148.307 895.438 149.027 896.638 150.12C897.865 151.213 898.478 152.733 898.478 154.68C898.478 156.787 897.745 158.427 896.278 159.6C894.838 160.773 892.705 161.36 889.878 161.36H888.118ZM903.102 161V156.48H910.622V143.52H903.902V139H915.622V156.48H922.382V161H903.102ZM912.782 135.32C911.769 135.32 910.969 135.067 910.382 134.56C909.796 134.027 909.502 133.32 909.502 132.44C909.502 131.56 909.796 130.867 910.382 130.36C910.969 129.827 911.769 129.56 912.782 129.56C913.796 129.56 914.596 129.827 915.182 130.36C915.769 130.867 916.062 131.56 916.062 132.44C916.062 133.32 915.769 134.027 915.182 134.56C914.596 135.067 913.796 135.32 912.782 135.32ZM929.247 168.2V164.04H935.767C938.007 164.04 939.127 162.987 939.127 160.88V159.24L939.207 155.12H939.127C938.913 156.56 938.3 157.693 937.287 158.52C936.273 159.32 934.967 159.72 933.367 159.72C931.127 159.72 929.34 158.96 928.007 157.44C926.7 155.92 926.047 153.867 926.047 151.28V147C926.047 144.44 926.7 142.4 928.007 140.88C929.34 139.36 931.127 138.6 933.367 138.6C934.967 138.6 936.273 139.013 937.287 139.84C938.3 140.64 938.913 141.76 939.127 143.2H939.207L939.087 139H944.087V161C944.087 163.24 943.353 165 941.887 166.28C940.42 167.56 938.407 168.2 935.847 168.2H929.247ZM935.047 155.4C936.327 155.4 937.313 155.027 938.007 154.28C938.727 153.507 939.087 152.44 939.087 151.08V147.24C939.087 145.88 938.727 144.827 938.007 144.08C937.313 143.307 936.327 142.92 935.047 142.92C933.767 142.92 932.78 143.293 932.087 144.04C931.393 144.787 931.047 145.853 931.047 147.24V151.08C931.047 152.467 931.393 153.533 932.087 154.28C932.78 155.027 933.767 155.4 935.047 155.4ZM949.351 161V139H954.231V143.2H954.311C954.551 141.76 955.178 140.64 956.191 139.84C957.204 139.013 958.524 138.6 960.151 138.6C962.311 138.6 964.031 139.32 965.311 140.76C966.618 142.2 967.271 144.133 967.271 146.56V161H962.271V147.08C962.271 145.747 961.911 144.72 961.191 144C960.498 143.28 959.551 142.92 958.351 142.92C957.098 142.92 956.111 143.293 955.391 144.04C954.698 144.787 954.351 145.853 954.351 147.24V161H949.351ZM1006.88 161C1004.83 161 1003.19 160.413 1001.96 159.24C1000.76 158.04 1000.16 156.427 1000.16 154.4V143.52H994.2V139H1000.16V132.8H1005.2V139H1013.64V143.52H1005.2V154.28C1005.2 154.92 1005.37 155.453 1005.72 155.88C1006.09 156.28 1006.6 156.48 1007.24 156.48H1013.24V161H1006.88ZM1027.58 161.36C1024.76 161.36 1022.52 160.587 1020.86 159.04C1019.21 157.467 1018.38 155.36 1018.38 152.72V147.28C1018.38 144.64 1019.21 142.547 1020.86 141C1022.52 139.427 1024.76 138.64 1027.58 138.64C1030.41 138.64 1032.65 139.427 1034.3 141C1035.96 142.547 1036.78 144.627 1036.78 147.24V152.72C1036.78 155.36 1035.96 157.467 1034.3 159.04C1032.65 160.587 1030.41 161.36 1027.58 161.36ZM1027.58 157C1028.92 157 1029.94 156.64 1030.66 155.92C1031.41 155.173 1031.78 154.107 1031.78 152.72V147.28C1031.78 145.893 1031.41 144.84 1030.66 144.12C1029.94 143.373 1028.92 143 1027.58 143C1026.25 143 1025.21 143.373 1024.46 144.12C1023.74 144.84 1023.38 145.893 1023.38 147.28V152.72C1023.38 154.107 1023.74 155.173 1024.46 155.92C1025.21 156.64 1026.25 157 1027.58 157ZM1041.89 161V131.8H1046.89V147.64H1050.41L1055.77 139H1061.33L1054.69 149.64L1061.45 161H1055.77L1050.41 151.88H1046.89V161H1041.89ZM1073.83 161.4C1071.97 161.4 1070.34 161.04 1068.95 160.32C1067.57 159.6 1066.49 158.6 1065.71 157.32C1064.97 156.013 1064.59 154.493 1064.59 152.76V147.24C1064.59 145.507 1064.97 144 1065.71 142.72C1066.49 141.413 1067.57 140.4 1068.95 139.68C1070.34 138.96 1071.97 138.6 1073.83 138.6C1075.67 138.6 1077.27 138.96 1078.63 139.68C1080.02 140.4 1081.09 141.413 1081.83 142.72C1082.61 144 1082.99 145.507 1082.99 147.24V151.2H1069.43V152.76C1069.43 155.88 1070.91 157.44 1073.87 157.44C1076.17 157.44 1077.51 156.68 1077.91 155.16H1082.83C1082.46 157.053 1081.45 158.573 1079.79 159.72C1078.17 160.84 1076.18 161.4 1073.83 161.4ZM1069.43 147.24V148.08L1078.15 148.04V147.2C1078.15 145.68 1077.79 144.52 1077.07 143.72C1076.35 142.893 1075.27 142.48 1073.83 142.48C1072.37 142.48 1071.26 142.893 1070.51 143.72C1069.79 144.547 1069.43 145.72 1069.43 147.24ZM1087.98 161V139H1092.86V143.2H1092.94C1093.18 141.76 1093.8 140.64 1094.82 139.84C1095.83 139.013 1097.15 138.6 1098.78 138.6C1100.94 138.6 1102.66 139.32 1103.94 140.76C1105.24 142.2 1105.9 144.133 1105.9 146.56V161H1100.9V147.08C1100.9 145.747 1100.54 144.72 1099.82 144C1099.12 143.28 1098.18 142.92 1096.98 142.92C1095.72 142.92 1094.74 143.293 1094.02 144.04C1093.32 144.787 1092.98 145.853 1092.98 147.24V161H1087.98ZM1119.16 161.36C1117.48 161.36 1116 161.107 1114.72 160.6C1113.44 160.067 1112.44 159.32 1111.72 158.36C1111.03 157.4 1110.68 156.267 1110.68 154.96H1115.72C1115.72 155.733 1116.03 156.333 1116.64 156.76C1117.28 157.16 1118.13 157.36 1119.2 157.36H1120.92C1122.17 157.36 1123.11 157.133 1123.72 156.68C1124.33 156.227 1124.64 155.6 1124.64 154.8C1124.64 153.28 1123.51 152.347 1121.24 152L1118.16 151.6C1113.55 150.933 1111.24 148.733 1111.24 145C1111.24 142.92 1111.93 141.347 1113.32 140.28C1114.73 139.187 1116.77 138.64 1119.44 138.64H1120.96C1123.44 138.64 1125.43 139.2 1126.92 140.32C1128.44 141.413 1129.2 142.867 1129.2 144.68H1124.16C1124.16 144.04 1123.88 143.547 1123.32 143.2C1122.76 142.827 1121.96 142.64 1120.92 142.64H1119.4C1117.21 142.64 1116.12 143.427 1116.12 145C1116.12 146.36 1117.09 147.187 1119.04 147.48L1122.16 147.96C1124.64 148.307 1126.48 149.027 1127.68 150.12C1128.91 151.213 1129.52 152.733 1129.52 154.68C1129.52 156.787 1128.79 158.427 1127.32 159.6C1125.88 160.773 1123.75 161.36 1120.92 161.36H1119.16Z" fill="black" fill-opacity="0.8"/>
   <rect y="35" width="474.675" height="224" rx="32" fill="#E4CCFF"/>
   <path d="M110.871 131.4C108.978 131.4 107.338 131.053 105.951 130.36C104.565 129.64 103.485 128.64 102.711 127.36C101.965 126.053 101.591 124.52 101.591 122.76V110.04C101.591 108.28 101.965 106.76 102.711 105.48C103.485 104.173 104.565 103.173 105.951 102.48C107.338 101.76 108.978 101.4 110.871 101.4C112.738 101.4 114.365 101.76 115.751 102.48C117.138 103.173 118.218 104.173 118.991 105.48C119.765 106.76 120.151 108.28 120.151 110.04H115.111C115.111 108.68 114.738 107.64 113.991 106.92C113.271 106.173 112.231 105.8 110.871 105.8C109.511 105.8 108.458 106.16 107.711 106.88C106.965 107.6 106.591 108.64 106.591 110V122.76C106.591 124.12 106.965 125.173 107.711 125.92C108.458 126.64 109.511 127 110.871 127C112.231 127 113.271 126.64 113.991 125.92C114.738 125.173 115.111 124.12 115.111 122.76H120.151C120.151 124.52 119.765 126.053 118.991 127.36C118.218 128.64 117.138 129.64 115.751 130.36C114.365 131.053 112.738 131.4 110.871 131.4ZM137.376 131C135.189 131 133.429 130.347 132.096 129.04C130.789 127.733 130.136 126.013 130.136 123.88V106.32H122.896V101.8H135.136V123.76C135.136 124.587 135.362 125.253 135.816 125.76C136.296 126.24 136.936 126.48 137.736 126.48H144.176V131H137.376ZM147.96 131V126.48H155.48V113.52H148.76V109H160.48V126.48H167.24V131H147.96ZM157.64 105.32C156.627 105.32 155.827 105.067 155.24 104.56C154.653 104.027 154.36 103.32 154.36 102.44C154.36 101.56 154.653 100.867 155.24 100.36C155.827 99.8267 156.627 99.56 157.64 99.56C158.653 99.56 159.453 99.8267 160.04 100.36C160.627 100.867 160.92 101.56 160.92 102.44C160.92 103.32 160.627 104.027 160.04 104.56C159.453 105.067 158.653 105.32 157.64 105.32ZM180.064 131.4C178.198 131.4 176.571 131.04 175.184 130.32C173.798 129.6 172.718 128.6 171.944 127.32C171.198 126.013 170.824 124.493 170.824 122.76V117.24C170.824 115.507 171.198 114 171.944 112.72C172.718 111.413 173.798 110.4 175.184 109.68C176.571 108.96 178.198 108.6 180.064 108.6C181.904 108.6 183.504 108.96 184.864 109.68C186.251 110.4 187.318 111.413 188.064 112.72C188.838 114 189.224 115.507 189.224 117.24V121.2H175.664V122.76C175.664 125.88 177.144 127.44 180.104 127.44C182.398 127.44 183.744 126.68 184.144 125.16H189.064C188.691 127.053 187.678 128.573 186.024 129.72C184.398 130.84 182.411 131.4 180.064 131.4ZM175.664 117.24V118.08L184.384 118.04V117.2C184.384 115.68 184.024 114.52 183.304 113.72C182.584 112.893 181.504 112.48 180.064 112.48C178.598 112.48 177.491 112.893 176.744 113.72C176.024 114.547 175.664 115.72 175.664 117.24ZM194.209 131V109H199.089V113.2H199.169C199.409 111.76 200.035 110.64 201.049 109.84C202.062 109.013 203.382 108.6 205.009 108.6C207.169 108.6 208.889 109.32 210.169 110.76C211.475 112.2 212.129 114.133 212.129 116.56V131H207.129V117.08C207.129 115.747 206.769 114.72 206.049 114C205.355 113.28 204.409 112.92 203.209 112.92C201.955 112.92 200.969 113.293 200.249 114.04C199.555 114.787 199.209 115.853 199.209 117.24V131H194.209ZM228.633 131C226.58 131 224.94 130.413 223.713 129.24C222.513 128.04 221.913 126.427 221.913 124.4V113.52H215.953V109H221.913V102.8H226.953V109H235.393V113.52H226.953V124.28C226.953 124.92 227.127 125.453 227.473 125.88C227.847 126.28 228.353 126.48 228.993 126.48H234.993V131H228.633ZM274.322 131.4C272.722 131.4 271.402 131.013 270.362 130.24C269.322 129.467 268.669 128.373 268.402 126.96V131H263.522V101.8H268.522V107.96L268.362 113.2C268.602 111.76 269.242 110.64 270.282 109.84C271.349 109.013 272.695 108.6 274.322 108.6C276.535 108.6 278.309 109.36 279.642 110.88C280.975 112.4 281.642 114.453 281.642 117.04V123C281.642 125.587 280.975 127.64 279.642 129.16C278.309 130.653 276.535 131.4 274.322 131.4ZM272.562 127.08C273.842 127.08 274.842 126.707 275.562 125.96C276.282 125.213 276.642 124.147 276.642 122.76V117.24C276.642 115.853 276.282 114.787 275.562 114.04C274.842 113.293 273.842 112.92 272.562 112.92C271.282 112.92 270.282 113.307 269.562 114.08C268.869 114.827 268.522 115.88 268.522 117.24V122.76C268.522 124.12 268.869 125.187 269.562 125.96C270.282 126.707 271.282 127.08 272.562 127.08ZM287.266 131V109H292.146V113.2H292.266C292.48 111.76 293.12 110.64 294.186 109.84C295.253 109.013 296.613 108.6 298.266 108.6C300.533 108.6 302.346 109.347 303.706 110.84C305.066 112.307 305.746 114.32 305.746 116.88V118.68H300.506V117.24C300.506 115.88 300.146 114.827 299.426 114.08C298.733 113.307 297.72 112.92 296.386 112.92C293.64 112.92 292.266 114.453 292.266 117.52V131H287.266ZM316.211 131.4C313.944 131.4 312.157 130.813 310.851 129.64C309.544 128.44 308.891 126.813 308.891 124.76C308.891 122.6 309.637 120.933 311.131 119.76C312.624 118.56 314.704 117.96 317.371 117.96H322.651V116.12C322.651 115.053 322.304 114.227 321.611 113.64C320.917 113.053 319.944 112.76 318.691 112.76C317.544 112.76 316.597 113 315.851 113.48C315.131 113.96 314.731 114.6 314.651 115.4H309.891C309.997 113.347 310.864 111.707 312.491 110.48C314.144 109.227 316.264 108.6 318.851 108.6C321.571 108.6 323.717 109.267 325.291 110.6C326.864 111.933 327.651 113.76 327.651 116.08V131H322.811V127.28H322.731C322.437 128.56 321.717 129.573 320.571 130.32C319.424 131.04 317.971 131.4 316.211 131.4ZM317.851 127.68C319.264 127.68 320.411 127.333 321.291 126.64C322.197 125.92 322.651 124.973 322.651 123.8V121.16H317.491C316.371 121.16 315.491 121.453 314.851 122.04C314.211 122.6 313.891 123.373 313.891 124.36C313.891 125.4 314.237 126.213 314.931 126.8C315.651 127.387 316.624 127.68 317.851 127.68ZM332.835 131V109H337.715V113.2H337.795C338.035 111.76 338.662 110.64 339.675 109.84C340.688 109.013 342.008 108.6 343.635 108.6C345.795 108.6 347.515 109.32 348.795 110.76C350.102 112.2 350.755 114.133 350.755 116.56V131H345.755V117.08C345.755 115.747 345.395 114.72 344.675 114C343.982 113.28 343.035 112.92 341.835 112.92C340.582 112.92 339.595 113.293 338.875 114.04C338.182 114.787 337.835 115.853 337.835 117.24V131H332.835ZM362.859 131.4C360.726 131.4 358.993 130.64 357.659 129.12C356.326 127.6 355.659 125.56 355.659 123V117.04C355.659 114.453 356.313 112.4 357.619 110.88C358.953 109.36 360.699 108.6 362.859 108.6C364.379 108.6 365.659 108.987 366.699 109.76C367.739 110.507 368.459 111.573 368.859 112.96H368.939L368.779 107.96V101.8H373.779V131H368.899V127.04H368.859C368.459 128.427 367.739 129.507 366.699 130.28C365.686 131.027 364.406 131.4 362.859 131.4ZM364.739 127.08C366.019 127.08 367.006 126.693 367.699 125.92C368.419 125.147 368.779 124.053 368.779 122.64V117.36C368.779 115.947 368.419 114.853 367.699 114.08C367.006 113.307 366.019 112.92 364.739 112.92C363.459 112.92 362.459 113.293 361.739 114.04C361.019 114.787 360.659 115.853 360.659 117.24V122.76C360.659 124.147 361.019 125.213 361.739 125.96C362.459 126.707 363.459 127.08 364.739 127.08ZM147.52 191V186.48H155.04V173.52H148.32V169H160.04V186.48H166.8V191H147.52ZM157.2 165.32C156.187 165.32 155.387 165.067 154.8 164.56C154.213 164.027 153.92 163.32 153.92 162.44C153.92 161.56 154.213 160.867 154.8 160.36C155.387 159.827 156.187 159.56 157.2 159.56C158.213 159.56 159.013 159.827 159.6 160.36C160.187 160.867 160.48 161.56 160.48 162.44C160.48 163.32 160.187 164.027 159.6 164.56C159.013 165.067 158.213 165.32 157.2 165.32ZM177.584 191.4C175.451 191.4 173.718 190.64 172.384 189.12C171.051 187.6 170.384 185.56 170.384 183V177.04C170.384 174.453 171.038 172.4 172.344 170.88C173.678 169.36 175.424 168.6 177.584 168.6C179.104 168.6 180.384 168.987 181.424 169.76C182.464 170.507 183.184 171.573 183.584 172.96H183.664L183.504 167.96V161.8H188.504V191H183.624V187.04H183.584C183.184 188.427 182.464 189.507 181.424 190.28C180.411 191.027 179.131 191.4 177.584 191.4ZM179.464 187.08C180.744 187.08 181.731 186.693 182.424 185.92C183.144 185.147 183.504 184.053 183.504 182.64V177.36C183.504 175.947 183.144 174.853 182.424 174.08C181.731 173.307 180.744 172.92 179.464 172.92C178.184 172.92 177.184 173.293 176.464 174.04C175.744 174.787 175.384 175.853 175.384 177.24V182.76C175.384 184.147 175.744 185.213 176.464 185.96C177.184 186.707 178.184 187.08 179.464 187.08ZM202.729 191.4C200.862 191.4 199.235 191.04 197.849 190.32C196.462 189.6 195.382 188.6 194.609 187.32C193.862 186.013 193.489 184.493 193.489 182.76V177.24C193.489 175.507 193.862 174 194.609 172.72C195.382 171.413 196.462 170.4 197.849 169.68C199.235 168.96 200.862 168.6 202.729 168.6C204.569 168.6 206.169 168.96 207.529 169.68C208.915 170.4 209.982 171.413 210.729 172.72C211.502 174 211.889 175.507 211.889 177.24V181.2H198.329V182.76C198.329 185.88 199.809 187.44 202.769 187.44C205.062 187.44 206.409 186.68 206.809 185.16H211.729C211.355 187.053 210.342 188.573 208.689 189.72C207.062 190.84 205.075 191.4 202.729 191.4ZM198.329 177.24V178.08L207.049 178.04V177.2C207.049 175.68 206.689 174.52 205.969 173.72C205.249 172.893 204.169 172.48 202.729 172.48C201.262 172.48 200.155 172.893 199.409 173.72C198.689 174.547 198.329 175.72 198.329 177.24ZM216.873 191V169H221.753V173.2H221.833C222.073 171.76 222.7 170.64 223.713 169.84C224.727 169.013 226.047 168.6 227.673 168.6C229.833 168.6 231.553 169.32 232.833 170.76C234.14 172.2 234.793 174.133 234.793 176.56V191H229.793V177.08C229.793 175.747 229.433 174.72 228.713 174C228.02 173.28 227.073 172.92 225.873 172.92C224.62 172.92 223.633 173.293 222.913 174.04C222.22 174.787 221.873 175.853 221.873 177.24V191H216.873ZM251.298 191C249.244 191 247.604 190.413 246.378 189.24C245.178 188.04 244.578 186.427 244.578 184.4V173.52H238.618V169H244.578V162.8H249.618V169H258.058V173.52H249.618V184.28C249.618 184.92 249.791 185.453 250.138 185.88C250.511 186.28 251.018 186.48 251.658 186.48H257.658V191H251.298ZM263.042 191V186.48H270.562V173.52H263.842V169H275.562V186.48H282.322V191H263.042ZM272.722 165.32C271.709 165.32 270.909 165.067 270.322 164.56C269.735 164.027 269.442 163.32 269.442 162.44C269.442 161.56 269.735 160.867 270.322 160.36C270.909 159.827 271.709 159.56 272.722 159.56C273.735 159.56 274.535 159.827 275.122 160.36C275.709 160.867 276.002 161.56 276.002 162.44C276.002 163.32 275.709 164.027 275.122 164.56C274.535 165.067 273.735 165.32 272.722 165.32ZM297.506 191C295.453 191 293.813 190.413 292.586 189.24C291.386 188.04 290.786 186.427 290.786 184.4V173.52H284.826V169H290.786V162.8H295.826V169H304.266V173.52H295.826V184.28C295.826 184.92 296 185.453 296.346 185.88C296.72 186.28 297.226 186.48 297.866 186.48H303.866V191H297.506ZM312.851 198.2L315.971 189.8L307.491 169H312.931L317.251 180.24C317.491 180.853 317.717 181.6 317.931 182.48C318.144 183.333 318.304 184.04 318.411 184.6C318.544 184.04 318.717 183.333 318.931 182.48C319.171 181.6 319.397 180.853 319.611 180.24L323.731 169H328.931L318.091 198.2H312.851Z" fill="black" fill-opacity="0.8"/>
   <rect x="744.707" y="435" width="474.675" height="224" rx="32" fill="#E4CCFF"/>
   <path d="M834.426 561V531.8H843.106C845.079 531.8 846.786 532.187 848.226 532.96C849.693 533.707 850.826 534.76 851.626 536.12C852.426 537.48 852.826 539.08 852.826 540.92V551.84C852.826 553.68 852.426 555.293 851.626 556.68C850.826 558.04 849.693 559.107 848.226 559.88C846.786 560.627 845.079 561 843.106 561H834.426ZM839.426 556.52H843.106C844.546 556.52 845.693 556.107 846.546 555.28C847.399 554.427 847.826 553.28 847.826 551.84V540.92C847.826 539.507 847.399 538.387 846.546 537.56C845.693 536.707 844.546 536.28 843.106 536.28H839.426V556.52ZM866.57 561.4C864.704 561.4 863.077 561.04 861.69 560.32C860.304 559.6 859.224 558.6 858.45 557.32C857.704 556.013 857.33 554.493 857.33 552.76V547.24C857.33 545.507 857.704 544 858.45 542.72C859.224 541.413 860.304 540.4 861.69 539.68C863.077 538.96 864.704 538.6 866.57 538.6C868.41 538.6 870.01 538.96 871.37 539.68C872.757 540.4 873.824 541.413 874.57 542.72C875.344 544 875.73 545.507 875.73 547.24V551.2H862.17V552.76C862.17 555.88 863.65 557.44 866.61 557.44C868.904 557.44 870.25 556.68 870.65 555.16H875.57C875.197 557.053 874.184 558.573 872.53 559.72C870.904 560.84 868.917 561.4 866.57 561.4ZM862.17 547.24V548.08L870.89 548.04V547.2C870.89 545.68 870.53 544.52 869.81 543.72C869.09 542.893 868.01 542.48 866.57 542.48C865.104 542.48 863.997 542.893 863.25 543.72C862.53 544.547 862.17 545.72 862.17 547.24ZM888.795 561.36C887.115 561.36 885.635 561.107 884.355 560.6C883.075 560.067 882.075 559.32 881.355 558.36C880.661 557.4 880.315 556.267 880.315 554.96H885.355C885.355 555.733 885.661 556.333 886.275 556.76C886.915 557.16 887.768 557.36 888.835 557.36H890.555C891.808 557.36 892.741 557.133 893.355 556.68C893.968 556.227 894.275 555.6 894.275 554.8C894.275 553.28 893.141 552.347 890.875 552L887.795 551.6C883.181 550.933 880.875 548.733 880.875 545C880.875 542.92 881.568 541.347 882.955 540.28C884.368 539.187 886.408 538.64 889.075 538.64H890.595C893.075 538.64 895.061 539.2 896.555 540.32C898.075 541.413 898.835 542.867 898.835 544.68H893.795C893.795 544.04 893.515 543.547 892.955 543.2C892.395 542.827 891.595 542.64 890.555 542.64H889.035C886.848 542.64 885.755 543.427 885.755 545C885.755 546.36 886.728 547.187 888.675 547.48L891.795 547.96C894.275 548.307 896.115 549.027 897.315 550.12C898.541 551.213 899.155 552.733 899.155 554.68C899.155 556.787 898.421 558.427 896.955 559.6C895.515 560.773 893.381 561.36 890.555 561.36H888.795ZM903.779 561V556.48H911.299V543.52H904.579V539H916.299V556.48H923.059V561H903.779ZM913.459 535.32C912.446 535.32 911.646 535.067 911.059 534.56C910.472 534.027 910.179 533.32 910.179 532.44C910.179 531.56 910.472 530.867 911.059 530.36C911.646 529.827 912.446 529.56 913.459 529.56C914.472 529.56 915.272 529.827 915.859 530.36C916.446 530.867 916.739 531.56 916.739 532.44C916.739 533.32 916.446 534.027 915.859 534.56C915.272 535.067 914.472 535.32 913.459 535.32ZM929.923 568.2V564.04H936.443C938.683 564.04 939.803 562.987 939.803 560.88V559.24L939.883 555.12H939.803C939.59 556.56 938.977 557.693 937.963 558.52C936.95 559.32 935.643 559.72 934.043 559.72C931.803 559.72 930.017 558.96 928.683 557.44C927.377 555.92 926.723 553.867 926.723 551.28V547C926.723 544.44 927.377 542.4 928.683 540.88C930.017 539.36 931.803 538.6 934.043 538.6C935.643 538.6 936.95 539.013 937.963 539.84C938.977 540.64 939.59 541.76 939.803 543.2H939.883L939.763 539H944.763V561C944.763 563.24 944.03 565 942.563 566.28C941.097 567.56 939.083 568.2 936.523 568.2H929.923ZM935.723 555.4C937.003 555.4 937.99 555.027 938.683 554.28C939.403 553.507 939.763 552.44 939.763 551.08V547.24C939.763 545.88 939.403 544.827 938.683 544.08C937.99 543.307 937.003 542.92 935.723 542.92C934.443 542.92 933.457 543.293 932.763 544.04C932.07 544.787 931.723 545.853 931.723 547.24V551.08C931.723 552.467 932.07 553.533 932.763 554.28C933.457 555.027 934.443 555.4 935.723 555.4ZM950.028 561V539H954.908V543.2H954.988C955.228 541.76 955.854 540.64 956.868 539.84C957.881 539.013 959.201 538.6 960.828 538.6C962.988 538.6 964.708 539.32 965.988 540.76C967.294 542.2 967.948 544.133 967.948 546.56V561H962.948V547.08C962.948 545.747 962.588 544.72 961.868 544C961.174 543.28 960.228 542.92 959.028 542.92C957.774 542.92 956.788 543.293 956.068 544.04C955.374 544.787 955.028 545.853 955.028 547.24V561H950.028ZM1004.32 561.36C1002.64 561.36 1001.16 561.107 999.877 560.6C998.597 560.067 997.597 559.32 996.877 558.36C996.183 557.4 995.837 556.267 995.837 554.96H1000.88C1000.88 555.733 1001.18 556.333 1001.8 556.76C1002.44 557.16 1003.29 557.36 1004.36 557.36H1006.08C1007.33 557.36 1008.26 557.133 1008.88 556.68C1009.49 556.227 1009.8 555.6 1009.8 554.8C1009.8 553.28 1008.66 552.347 1006.4 552L1003.32 551.6C998.703 550.933 996.397 548.733 996.397 545C996.397 542.92 997.09 541.347 998.477 540.28C999.89 539.187 1001.93 538.64 1004.6 538.64H1006.12C1008.6 538.64 1010.58 539.2 1012.08 540.32C1013.6 541.413 1014.36 542.867 1014.36 544.68H1009.32C1009.32 544.04 1009.04 543.547 1008.48 543.2C1007.92 542.827 1007.12 542.64 1006.08 542.64H1004.56C1002.37 542.64 1001.28 543.427 1001.28 545C1001.28 546.36 1002.25 547.187 1004.2 547.48L1007.32 547.96C1009.8 548.307 1011.64 549.027 1012.84 550.12C1014.06 551.213 1014.68 552.733 1014.68 554.68C1014.68 556.787 1013.94 558.427 1012.48 559.6C1011.04 560.773 1008.9 561.36 1006.08 561.36H1004.32ZM1022.9 568.2L1026.02 559.8L1017.54 539H1022.98L1027.3 550.24C1027.54 550.853 1027.77 551.6 1027.98 552.48C1028.19 553.333 1028.35 554.04 1028.46 554.6C1028.59 554.04 1028.77 553.333 1028.98 552.48C1029.22 551.6 1029.45 550.853 1029.66 550.24L1033.78 539H1038.98L1028.14 568.2H1022.9ZM1050.53 561.36C1048.85 561.36 1047.37 561.107 1046.09 560.6C1044.81 560.067 1043.81 559.32 1043.09 558.36C1042.39 557.4 1042.05 556.267 1042.05 554.96H1047.09C1047.09 555.733 1047.39 556.333 1048.01 556.76C1048.65 557.16 1049.5 557.36 1050.57 557.36H1052.29C1053.54 557.36 1054.47 557.133 1055.09 556.68C1055.7 556.227 1056.01 555.6 1056.01 554.8C1056.01 553.28 1054.87 552.347 1052.61 552L1049.53 551.6C1044.91 550.933 1042.61 548.733 1042.61 545C1042.61 542.92 1043.3 541.347 1044.69 540.28C1046.1 539.187 1048.14 538.64 1050.81 538.64H1052.33C1054.81 538.64 1056.79 539.2 1058.29 540.32C1059.81 541.413 1060.57 542.867 1060.57 544.68H1055.53C1055.53 544.04 1055.25 543.547 1054.69 543.2C1054.13 542.827 1053.33 542.64 1052.29 542.64H1050.77C1048.58 542.64 1047.49 543.427 1047.49 545C1047.49 546.36 1048.46 547.187 1050.41 547.48L1053.53 547.96C1056.01 548.307 1057.85 549.027 1059.05 550.12C1060.27 551.213 1060.89 552.733 1060.89 554.68C1060.89 556.787 1060.15 558.427 1058.69 559.6C1057.25 560.773 1055.11 561.36 1052.29 561.36H1050.53ZM1076.87 561C1074.82 561 1073.18 560.413 1071.95 559.24C1070.75 558.04 1070.15 556.427 1070.15 554.4V543.52H1064.19V539H1070.15V532.8H1075.19V539H1083.63V543.52H1075.19V554.28C1075.19 554.92 1075.36 555.453 1075.71 555.88C1076.08 556.28 1076.59 556.48 1077.23 556.48H1083.23V561H1076.87ZM1097.61 561.4C1095.75 561.4 1094.12 561.04 1092.73 560.32C1091.35 559.6 1090.27 558.6 1089.49 557.32C1088.75 556.013 1088.37 554.493 1088.37 552.76V547.24C1088.37 545.507 1088.75 544 1089.49 542.72C1090.27 541.413 1091.35 540.4 1092.73 539.68C1094.12 538.96 1095.75 538.6 1097.61 538.6C1099.45 538.6 1101.05 538.96 1102.41 539.68C1103.8 540.4 1104.87 541.413 1105.61 542.72C1106.39 544 1106.77 545.507 1106.77 547.24V551.2H1093.21V552.76C1093.21 555.88 1094.69 557.44 1097.65 557.44C1099.95 557.44 1101.29 556.68 1101.69 555.16H1106.61C1106.24 557.053 1105.23 558.573 1103.57 559.72C1101.95 560.84 1099.96 561.4 1097.61 561.4ZM1093.21 547.24V548.08L1101.93 548.04V547.2C1101.93 545.68 1101.57 544.52 1100.85 543.72C1100.13 542.893 1099.05 542.48 1097.61 542.48C1096.15 542.48 1095.04 542.893 1094.29 543.72C1093.57 544.547 1093.21 545.72 1093.21 547.24ZM1110.64 561V539H1114.72V541.96H1114.92C1115.05 540.947 1115.45 540.133 1116.12 539.52C1116.79 538.907 1117.61 538.6 1118.6 538.6C1119.51 538.6 1120.29 538.907 1120.96 539.52C1121.63 540.133 1122.08 540.947 1122.32 541.96H1122.44C1122.6 540.947 1123.01 540.133 1123.68 539.52C1124.37 538.907 1125.23 538.6 1126.24 538.6C1127.55 538.6 1128.61 539.133 1129.44 540.2C1130.29 541.24 1130.72 542.587 1130.72 544.24V561H1126.4V544.6C1126.4 543.053 1125.76 542.28 1124.48 542.28C1123.2 542.28 1122.56 543.053 1122.56 544.6V561H1118.8V544.6C1118.8 543.053 1118.16 542.28 1116.88 542.28C1115.63 542.28 1115 543.053 1115 544.6V561H1110.64Z" fill="black" fill-opacity="0.8"/>
   <path d="M478.675 143C476.466 143 474.675 144.791 474.675 147C474.675 149.209 476.466 151 478.675 151V143ZM740.03 147L700.03 123.906V170.094L740.03 147ZM478.675 151H704.03V143H478.675V151Z" fill="#9747FF"/>
   <path d="M985.367 263C985.367 260.791 983.577 259 981.367 259C979.158 259 977.367 260.791 977.367 263H985.367ZM238.692 431L261.786 391H215.598L238.692 431ZM977.367 263V299H985.367V263H977.367ZM957.367 319H262.692V327H957.367V319ZM234.692 347V395H242.692V347H234.692ZM262.692 319C247.228 319 234.692 331.536 234.692 347H242.692C242.692 335.954 251.647 327 262.692 327V319ZM977.367 299C977.367 310.046 968.413 319 957.367 319V327C972.831 327 985.367 314.464 985.367 299H977.367Z" fill="#9747FF"/>
   <path d="M480.03 543C477.821 543 476.03 544.791 476.03 547C476.03 549.209 477.821 551 480.03 551V543ZM740.707 547L700.707 523.906V570.094L740.707 547ZM480.03 551H704.707V543H480.03V551Z" fill="#9747FF"/>
   <g clip-path="url(#clip0_0_1)">
      <path d="M438.205 37.1787C433.213 33.8895 427.361 32.1476 421.383 32.1717C415.403 32.1466 409.548 33.8903 404.556 37.1835C404.658 36.86 404.764 36.551 404.87 36.2179C408.274 26.3101 414.392 19.6855 421.388 19.6855C428.384 19.6855 434.492 26.3052 437.891 36.2227C437.997 36.5365 438.104 36.8649 438.205 37.1787Z" fill="#C7B9FF"/>
      <path d="M440.725 54.2469C440.732 57.7544 440.43 61.2556 439.822 64.71C437.345 78.7123 430.026 88.8181 421.383 88.8181C412.74 88.8181 405.42 78.6785 402.943 64.71C402.338 61.2553 402.036 57.7543 402.04 54.2469C402.023 49.5465 402.574 44.8611 403.682 40.293C403.943 39.2307 404.237 38.1975 404.551 37.1883C409.544 33.892 415.4 32.1465 421.383 32.1717C427.361 32.1487 433.213 33.8905 438.205 37.1787C438.524 38.1781 438.813 39.2162 439.079 40.2785C440.19 44.8509 440.743 49.5413 440.725 54.2469V54.2469Z" fill="white"/>
      <path d="M480.878 37.1787C475.875 33.9099 470.029 32.1691 464.053 32.1691C458.078 32.1691 452.231 33.9099 447.229 37.1787C447.33 36.8552 447.441 36.5462 447.548 36.2131C450.928 26.2908 457.074 19.6663 464.061 19.6663C471.047 19.6663 477.16 26.3053 480.54 36.2227C480.665 36.5366 480.776 36.8649 480.878 37.1787Z" fill="#C7B9FF"/>
      <path d="M483.399 54.2469C483.403 57.7542 483.101 61.2552 482.496 64.7099C480.014 78.7122 472.694 88.818 464.056 88.818C455.418 88.818 448.094 78.6784 445.612 64.7099C445.007 61.2552 444.704 57.7542 444.709 54.2469C444.693 49.5462 445.246 44.8608 446.355 40.2929C446.611 39.2306 446.906 38.1974 447.224 37.1882C452.226 33.9182 458.073 32.1768 464.049 32.1768C470.025 32.1768 475.871 33.9182 480.873 37.1882C481.197 38.1877 481.486 39.2258 481.747 40.2881C482.86 44.8572 483.414 49.5443 483.399 54.2469V54.2469Z" fill="white"/>
      <path d="M486.595 44.3006C486.325 43.1949 486.025 42.1327 485.711 41.1525C485.605 40.829 485.499 40.5055 485.388 40.1869C483.147 33.6444 479.859 28.7292 476.016 25.9046C472.626 21.4673 468.469 19 464.056 19C456.958 19 450.537 25.359 446.891 36.0103V36.0634C446.79 36.3676 446.684 36.6718 446.587 36.9808C446.239 38.0962 445.95 39.1246 445.708 40.1289C445.162 42.3181 444.749 44.5384 444.472 46.7776C444.308 45.9423 444.129 45.1166 443.927 44.3006C443.651 43.1949 443.357 42.1327 443.038 41.1525C442.937 40.829 442.826 40.5055 442.72 40.1869C440.465 33.6444 437.196 28.7292 433.348 25.9046C429.963 21.4673 425.806 19 421.383 19C414.29 19 407.873 25.359 404.218 36.0103V36.0634C404.112 36.3676 404.011 36.6718 403.914 36.9808C403.547 38.0962 403.286 39.1246 403.016 40.1289C401.894 44.7507 401.337 49.4912 401.355 54.2471C401.351 57.7948 401.656 61.3362 402.267 64.8309C404.073 75.0091 408.279 82.8696 413.609 86.7806C416.989 91.1696 421.127 93.69 425.564 93.69C434.381 93.69 442.063 83.7725 444.68 69.0122C444.863 67.9886 445.013 66.9553 445.163 65.9076C447.065 75.5643 451.164 83.0193 456.307 86.7854C459.686 91.1696 463.815 93.69 468.257 93.69C477.069 93.69 484.75 83.7725 487.372 69.0122C487.977 65.5186 488.276 61.9789 488.266 58.4333C488.287 53.6719 487.726 48.9258 486.595 44.3006V44.3006ZM421.383 20.3713C427.583 20.3713 433.488 26.1653 436.935 35.5903C432.2 32.8828 426.837 31.4674 421.383 31.4862C415.924 31.4664 410.557 32.8853 405.821 35.5999C409.273 26.1798 415.183 20.3713 421.383 20.3713ZM403.837 65.7579C405.258 67.6147 407.246 68.9578 409.499 69.5837C411.752 70.2097 414.148 70.0844 416.323 69.2269C418.499 68.3693 420.336 66.8263 421.556 64.8313C422.776 62.8364 423.313 60.4982 423.085 58.1709C422.857 55.8436 421.877 53.6538 420.294 51.9333C418.71 50.2127 416.609 49.055 414.308 48.6356C412.008 48.2161 409.633 48.5576 407.544 49.6085C405.455 50.6594 403.766 52.3624 402.731 54.4595C402.731 54.3919 402.731 54.3195 402.731 54.2471C402.71 49.602 403.254 44.9715 404.349 40.4573C404.571 39.5495 404.831 38.6225 405.136 37.6278C409.971 34.4888 415.618 32.8308 421.383 32.8574C427.143 32.8326 432.786 34.487 437.621 37.6182C437.901 38.5066 438.166 39.453 438.413 40.4428C439.514 44.9609 440.061 49.5966 440.04 54.2471C440.045 57.7138 439.748 61.1744 439.151 64.5894C436.65 78.6738 429.495 88.1325 421.383 88.1325C413.479 88.1325 406.512 79.1856 403.837 65.7482V65.7579ZM464.056 20.3713C470.251 20.3713 476.161 26.1653 479.608 35.5903C474.866 32.8972 469.505 31.4814 464.051 31.4814C458.597 31.4814 453.237 32.8972 448.494 35.5903C451.947 26.1798 457.847 20.3713 464.056 20.3713V20.3713ZM446.505 65.7579C447.922 67.6139 449.904 68.9588 452.152 69.5898C454.4 70.2207 456.792 70.1033 458.968 69.2555C461.143 68.4076 462.984 66.8752 464.213 64.8895C465.441 62.9037 465.99 60.5724 465.778 58.2471C465.565 55.9219 464.602 53.7289 463.033 51.999C461.465 50.2691 459.377 49.0962 457.083 48.6572C454.79 48.2182 452.416 48.5369 450.32 49.5652C448.224 50.5936 446.519 52.2758 445.462 54.3581L445.404 53.6146C445.433 49.1842 445.976 44.7721 447.022 40.4669C447.239 39.5592 447.504 38.6321 447.804 37.6375C452.651 34.526 458.289 32.8719 464.049 32.8719C469.809 32.8719 475.447 34.526 480.294 37.6375C480.574 38.5259 480.839 39.4723 481.081 40.4621C482.183 44.9738 482.731 49.6029 482.713 54.2471C482.716 57.7139 482.417 61.1745 481.82 64.5894C479.323 78.6738 472.163 88.1325 464.056 88.1325C456.152 88.1325 449.185 79.1856 446.505 65.7482V65.7579Z" fill="black"/>
      <path d="M458.793 59.4954C461.017 59.4954 462.82 57.6925 462.82 55.4685C462.82 53.2445 461.017 51.4417 458.793 51.4417C456.569 51.4417 454.766 53.2445 454.766 55.4685C454.766 57.6925 456.569 59.4954 458.793 59.4954Z" fill="white"/>
      <path d="M416.125 59.4954C418.349 59.4954 420.152 57.6925 420.152 55.4685C420.152 53.2445 418.349 51.4417 416.125 51.4417C413.901 51.4417 412.098 53.2445 412.098 55.4685C412.098 57.6925 413.901 59.4954 416.125 59.4954Z" fill="white"/>
   </g>
   <g clip-path="url(#clip1_0_1)">
      <path d="M1235.25 459.339V464.892H1233.44H1232.69C1231.7 464.835 1230.7 464.969 1229.75 465.288L1228.92 465.671L1228.86 465.818C1228.55 466.965 1228.38 468.147 1228.37 469.335C1228.33 470.114 1228.33 470.905 1228.37 471.658V473.458V491.7H1125.9V462.863C1126.1 451.108 1130.35 439.785 1137.95 430.808C1137.93 430.718 1137.9 430.628 1137.87 430.54L1137.8 430.323L1137.03 429.978C1136.04 429.628 1134.98 429.476 1133.92 429.532H1133.36C1133.36 429.532 1133.85 424.062 1134.1 424.062C1135.1 424.121 1136.1 423.984 1137.05 423.659L1137.89 423.276L1137.93 423.136C1138.44 421.477 1143.94 417.283 1143.94 417.283C1143.94 419.498 1143.94 421.604 1144.41 423.142L1144.48 423.359L1145.24 423.723C1151.9 418.415 1159.78 414.853 1168.16 413.358C1176.55 411.863 1185.17 412.483 1193.26 415.162C1201.34 417.841 1208.63 422.494 1214.46 428.7C1220.29 434.906 1224.48 442.469 1226.65 450.703H1229.71V458.912H1229.76C1230.76 459.272 1231.81 459.427 1232.86 459.365H1233.43L1235.25 459.339Z" fill="black"/>
      <path d="M1221.91 458.216H1211.63C1211.63 447.598 1207.41 437.416 1199.9 429.908C1192.4 422.4 1182.21 418.183 1171.6 418.183C1160.98 418.183 1150.8 422.4 1143.29 429.908C1135.78 437.416 1131.56 447.598 1131.56 458.216H1121.25C1121.25 444.868 1126.55 432.067 1135.99 422.628C1145.43 413.19 1158.23 407.887 1171.58 407.887C1184.93 407.887 1197.73 413.19 1207.16 422.628C1216.6 432.067 1221.91 444.868 1221.91 458.216V458.216Z" fill="#F24E1E"/>
      <path d="M1211.63 458.216H1201.31C1201.31 450.329 1198.18 442.765 1192.6 437.188C1187.03 431.611 1179.46 428.478 1171.58 428.478C1163.69 428.478 1156.13 431.611 1150.55 437.188C1144.97 442.765 1141.84 450.329 1141.84 458.216H1131.54C1131.54 447.598 1135.76 437.416 1143.27 429.908C1150.78 422.4 1160.96 418.183 1171.58 418.183C1182.19 418.183 1192.38 422.4 1199.88 429.908C1207.39 437.416 1211.61 447.598 1211.61 458.216H1211.63Z" fill="#FFC700"/>
      <path d="M1201.31 458.216H1191.01C1191.06 455.633 1190.59 453.067 1189.64 450.668C1188.68 448.269 1187.26 446.084 1185.45 444.241C1183.64 442.398 1181.48 440.934 1179.1 439.935C1176.71 438.936 1174.16 438.421 1171.57 438.421C1168.99 438.421 1166.43 438.936 1164.05 439.935C1161.67 440.934 1159.51 442.398 1157.7 444.241C1155.89 446.084 1154.47 448.269 1153.51 450.668C1152.56 453.067 1152.09 455.633 1152.14 458.216H1141.84C1141.84 450.329 1144.97 442.765 1150.55 437.188C1156.13 431.611 1163.69 428.478 1171.58 428.478C1179.46 428.478 1187.03 431.611 1192.6 437.188C1198.18 442.765 1201.31 450.329 1201.31 458.216V458.216Z" fill="#A259FF"/>
      <path d="M1221.92 458.216H1121.24V485.266H1221.92V458.216Z" fill="#C7B9FF"/>
      <path d="M1133.68 431.759V430.859C1133.71 428.491 1133.68 426.391 1133.17 424.725L1132.99 424.151L1131.84 423.595C1130.74 423.185 1129.56 423.007 1128.38 423.072H1127.8H1126.89V419.357H1127.79H1128.56C1129.68 419.419 1130.81 419.254 1131.87 418.872L1133.06 418.336L1133.24 417.806C1133.72 415.805 1133.91 413.742 1133.8 411.685V410.785H1137.52V411.685C1137.52 414.053 1137.52 416.153 1138.04 417.819L1138.22 418.393L1139.36 418.949C1140.47 419.36 1141.65 419.538 1142.83 419.472H1143.41H1144.32V423.213H1143.42H1142.65C1141.52 423.15 1140.4 423.315 1139.34 423.698L1138.12 424.234L1137.95 424.764C1137.4 426.512 1137.36 428.74 1137.38 430.885V431.785L1133.68 431.759Z" fill="white"/>
      <path d="M1129.14 480.071V463.405H1136.16L1138.23 469.833C1138.68 471.403 1138.8 473.426 1138.8 476.854H1140.28C1140.28 473.394 1140.44 471.371 1140.91 469.833L1143.01 463.405H1149.72V480.071H1145.36V475.239C1145.45 472.034 1146.12 468.872 1147.33 465.901L1145.81 465.378L1141.23 480.058H1137.59L1133.04 465.378L1131.52 465.875C1132.72 468.848 1133.38 472.01 1133.47 475.213V480.045L1129.14 480.071Z" fill="black"/>
      <path d="M1164.58 480.07L1163.45 476.573H1157.22L1156.05 480.045H1151.45L1157.48 463.379H1163.43L1169.46 480.045L1164.58 480.07ZM1158.33 473.164H1162.36L1161.57 470.688C1161.18 469.062 1161.04 467.389 1161.14 465.722H1159.64C1159.74 467.402 1159.58 469.087 1159.17 470.72L1158.33 473.164Z" fill="black"/>
      <path d="M1169.86 471.83C1169.86 466.858 1173.43 462.997 1178.93 462.997C1183.84 462.997 1186.24 465.499 1187.08 468.02L1182.7 469.552C1182.17 467.956 1181.1 466.577 1178.87 466.577C1176.31 466.577 1174.56 468.53 1174.56 471.862C1174.56 475.315 1176.42 477.103 1178.85 477.103C1181.13 477.103 1182.32 475.826 1182.56 474.549H1177.95V471.237H1186.96V480.045H1182.96C1183.08 478.846 1183.49 477.694 1184.15 476.688H1182.46C1182.03 477.856 1180.84 480.454 1177.35 480.454C1173.43 480.479 1169.86 477.524 1169.86 471.83Z" fill="black"/>
      <path d="M1189.89 480.071V463.405H1194.4V480.071H1189.89Z" fill="black"/>
      <path d="M1196.95 471.786C1196.95 466.737 1200.54 462.997 1205.88 462.997C1210.05 462.997 1213.05 465.186 1214 468.333L1209.71 469.807C1209.12 467.809 1207.93 466.616 1205.83 466.616C1203.28 466.616 1201.76 468.492 1201.76 471.779C1201.76 475.066 1203.31 476.886 1205.83 476.886C1207.88 476.886 1209.12 475.666 1209.78 473.694L1214.05 475.245C1212.91 478.437 1210.05 480.53 1205.86 480.53C1200.44 480.479 1196.95 476.956 1196.95 471.786Z" fill="black"/>
      <path d="M1185.67 428.287V427.387C1185.75 426.102 1185.65 424.811 1185.36 423.557L1185.29 423.321L1184.69 423.027C1184.02 422.789 1183.32 422.687 1182.61 422.727H1182.27H1181.36V419.727L1182.27 419.765H1182.75C1183.43 419.806 1184.1 419.711 1184.73 419.485L1185.37 419.204L1185.44 419C1185.74 417.757 1185.85 416.477 1185.78 415.202V414.302H1188.81V415.202C1188.73 416.487 1188.84 417.777 1189.12 419.031L1189.2 419.268L1189.8 419.561C1190.46 419.799 1191.17 419.901 1191.87 419.861H1192.24H1193.14V422.899H1192.24H1191.76C1191.09 422.86 1190.41 422.953 1189.77 423.174L1189.14 423.461L1189.07 423.665C1188.76 424.918 1188.65 426.208 1188.72 427.495V428.395L1185.67 428.287Z" fill="white"/>
      <path d="M1218.19 466.998V466.098C1218.19 463.724 1218.19 461.63 1217.67 459.958L1217.5 459.384L1216.35 458.835C1215.17 458.367 1213.9 458.15 1212.63 458.196H1212.31H1211.4V454.59H1212.3H1213.07C1214.19 454.654 1215.32 454.491 1216.38 454.111L1217.57 453.569L1217.74 453.046C1218.24 451.045 1218.43 448.981 1218.31 446.924V446.024H1222.03V446.924C1222.03 449.292 1222.03 451.392 1222.54 453.058L1222.72 453.633L1223.87 454.188C1224.97 454.598 1226.15 454.777 1227.33 454.711H1227.91H1228.82V458.445H1227.92H1227.15C1226.03 458.38 1224.9 458.545 1223.84 458.93L1222.65 459.467L1222.48 459.977C1221.93 461.726 1221.89 463.954 1221.92 466.092V466.998H1218.19Z" fill="white"/>
      <path d="M1227.89 453.837H1227.32C1226.27 453.897 1225.21 453.745 1224.22 453.39L1223.45 453.02L1223.39 452.797C1222.91 451.265 1222.89 449.152 1222.91 446.944V445.15H1221.09C1218.92 436.918 1214.73 429.357 1208.9 423.152C1203.07 416.947 1195.79 412.294 1187.7 409.614C1179.62 406.934 1171 406.311 1162.62 407.803C1154.24 409.295 1146.36 412.854 1139.7 418.157L1138.87 417.576C1138.39 416.038 1138.37 413.932 1138.4 411.717V409.93H1132.89V411.723C1132.99 413.687 1132.82 415.656 1132.37 417.57L1132.32 417.704L1131.47 418.093C1130.53 418.415 1129.53 418.551 1128.54 418.496H1127.81L1126 418.457V424.004L1127.82 423.966H1128.38C1129.44 423.908 1130.49 424.062 1131.49 424.419L1132.26 424.795L1132.33 425.006C1132.33 425.095 1132.38 425.178 1132.4 425.28C1124.81 434.253 1120.56 445.572 1120.35 457.322V457.322V486.147H1222.81V467.879V466.079C1222.81 465.326 1222.81 464.535 1222.81 463.756C1222.83 462.568 1223 461.386 1223.31 460.239L1223.37 460.086L1224.2 459.716C1225.14 459.386 1226.15 459.247 1227.15 459.307H1227.89H1229.71V453.754L1227.89 453.837ZM1132.23 422.798C1131.01 422.322 1129.71 422.104 1128.4 422.159H1127.8V420.244H1128.58C1129.83 420.32 1131.08 420.13 1132.25 419.689L1133.76 419.006L1134.06 418.113C1134.59 416.029 1134.81 413.877 1134.7 411.73H1136.61C1136.58 414.206 1136.61 416.37 1137.17 418.144L1137.47 419.083L1138.19 419.44L1138.95 419.804C1139.31 419.968 1139.68 420.092 1140.07 420.174C1140.97 420.36 1141.89 420.443 1142.8 420.423H1143.4V422.338L1142.63 422.319C1141.38 422.246 1140.13 422.437 1138.95 422.881L1137.41 423.576L1137.1 424.476C1136.59 426.562 1136.38 428.713 1136.5 430.859H1134.59C1134.66 429.153 1134.57 427.444 1134.34 425.753C1134.27 425.32 1134.17 424.893 1134.04 424.476L1133.76 423.698V423.512L1132.23 422.798ZM1132.76 427.648C1132.81 428.644 1132.81 429.729 1132.8 430.84V432.64H1138.32V430.84C1138.32 428.868 1138.32 426.646 1138.85 425L1138.87 424.872L1139.7 424.489C1140.65 424.171 1141.65 424.036 1142.65 424.093H1143.4L1145.2 424.125V418.572L1143.39 418.617H1142.83C1142.56 418.617 1142.31 418.617 1142.06 418.617C1148.51 413.803 1156.04 410.637 1163.99 409.394C1171.94 408.151 1180.08 408.868 1187.69 411.484C1195.3 414.099 1202.16 418.534 1207.66 424.402C1213.17 430.271 1217.16 437.395 1219.29 445.157H1217.42V446.963C1217.52 448.922 1217.35 450.886 1216.9 452.797L1216.85 452.937L1216.01 453.327C1215.06 453.646 1214.06 453.78 1213.07 453.722H1212.27C1211.6 447.646 1209.57 441.797 1206.34 436.606C1203.11 431.415 1198.76 427.013 1193.61 423.723H1193.99V418.898L1192.17 418.936H1191.84C1191.26 418.967 1190.68 418.891 1190.12 418.713L1189.9 418.598C1189.68 417.475 1189.6 416.331 1189.66 415.189V413.396H1184.82V415.196C1184.88 416.317 1184.8 417.441 1184.57 418.54L1184.3 418.661C1183.8 418.818 1183.28 418.883 1182.75 418.853C1176.74 417.147 1170.42 416.841 1164.26 417.96C1158.11 419.079 1152.3 421.592 1147.28 425.306C1142.25 429.02 1138.14 433.838 1135.26 439.387C1132.38 444.937 1130.82 451.073 1130.68 457.322H1122.15C1122.34 446.536 1126.06 436.109 1132.76 427.648V427.648ZM1171.58 437.861C1166.34 437.867 1161.31 439.894 1157.53 443.519C1153.75 447.144 1151.51 452.088 1151.28 457.322H1142.76C1143.01 449.843 1146.15 442.752 1151.53 437.549C1156.91 432.346 1164.1 429.438 1171.59 429.438C1179.07 429.438 1186.26 432.346 1191.64 437.549C1197.02 442.752 1200.17 449.843 1200.41 457.322H1191.9C1191.66 452.092 1189.42 447.154 1185.63 443.535C1181.85 439.915 1176.82 437.893 1171.58 437.887V437.861ZM1190.09 457.297H1153.05C1153.27 452.528 1155.32 448.027 1158.77 444.729C1162.22 441.431 1166.81 439.591 1171.58 439.591C1176.36 439.591 1180.95 441.431 1184.4 444.729C1187.85 448.027 1189.9 452.528 1190.11 457.297H1190.09ZM1171.58 427.572C1163.61 427.577 1155.96 430.686 1150.25 436.241C1144.53 441.795 1141.21 449.357 1140.98 457.322H1132.48C1132.73 447.102 1136.95 437.382 1144.26 430.235C1151.57 423.089 1161.39 419.082 1171.61 419.07C1174.6 419.067 1177.57 419.41 1180.48 420.091V423.672L1182.27 423.64H1182.62C1183.2 423.608 1183.78 423.686 1184.33 423.87L1184.55 423.978C1184.77 425.1 1184.85 426.245 1184.79 427.387V429.187H1189.61V427.38C1189.56 426.259 1189.65 425.136 1189.87 424.036L1190.13 423.915L1190.33 423.844C1195.9 426.884 1200.66 431.232 1204.18 436.514C1207.71 441.796 1209.9 447.854 1210.56 454.169V457.36H1202.19C1201.96 449.393 1198.64 441.828 1192.92 436.271C1187.21 430.714 1179.55 427.602 1171.58 427.597V427.572ZM1186.64 415.138H1187.88C1187.79 416.514 1187.91 417.895 1188.22 419.236L1188.42 419.842L1189.36 420.289C1190.15 420.593 1190.99 420.727 1191.83 420.685H1192.2V421.936H1191.71C1191.34 421.935 1190.96 421.954 1190.59 421.993C1190.17 422.026 1189.75 422.13 1189.36 422.3L1188.38 422.746V422.849L1188.22 423.315C1187.88 424.649 1187.74 426.03 1187.83 427.406H1186.6C1186.69 426.032 1186.57 424.653 1186.24 423.315L1186.06 422.715L1185.11 422.261C1184.33 421.954 1183.49 421.816 1182.65 421.859H1182.27V420.634H1182.76C1183.56 420.681 1184.36 420.559 1185.11 420.276L1185.97 419.893L1186.1 419.83L1186.28 419.261C1186.61 417.922 1186.73 416.54 1186.64 415.164V415.138ZM1221.04 484.347H1122.14V459.103H1213.63C1214.45 459.143 1215.25 459.324 1216 459.639L1216.77 460.016L1216.85 460.226C1217.32 461.758 1217.34 463.871 1217.32 466.079V467.879H1221.07L1221.04 484.347ZM1227.92 457.539H1227.15C1225.89 457.472 1224.64 457.665 1223.46 458.107L1222.82 458.401L1221.93 458.809L1221.64 459.703C1221.27 461.009 1221.07 462.356 1221.05 463.711C1221.02 464.471 1221.02 465.282 1221.05 466.111H1219.14C1219.14 463.641 1219.14 461.477 1218.59 459.729L1218.4 459.141L1218.29 458.777L1216.74 458.024C1215.76 457.621 1214.72 457.383 1213.66 457.322C1213.32 457.322 1212.98 457.284 1212.62 457.284H1212.28V455.509H1213.06C1214.31 455.581 1215.56 455.392 1216.74 454.954L1218.31 454.233L1218.6 453.327C1219.16 451.559 1219.24 449.388 1219.24 446.944H1221.15C1221.15 449.414 1221.15 451.584 1221.71 453.327L1222.01 454.271L1222.7 454.609L1223.48 454.992C1224.71 455.47 1226.03 455.687 1227.34 455.631H1227.94L1227.92 457.539Z" fill="black"/>
      <path d="M1190.11 457.322H1153.05C1153.27 452.554 1155.32 448.052 1158.77 444.754C1162.22 441.457 1166.81 439.616 1171.58 439.616C1176.36 439.616 1180.95 441.457 1184.4 444.754C1187.85 448.052 1189.9 452.554 1190.11 457.322V457.322Z" fill="#F5F5F5"/>
   </g>
   <g clip-path="url(#clip2_0_1)">
      <path d="M1210.13 64.6613H1190.04C1188.76 64.663 1187.54 65.1708 1186.64 66.0734C1185.73 66.9761 1185.23 68.1998 1185.22 69.4763V83.9152H1131.03C1129.31 83.9185 1127.63 83.4699 1126.14 82.6146C1124.66 81.7594 1123.43 80.5277 1122.57 79.0438C1121.71 77.5599 1121.26 75.8762 1121.26 74.1623C1121.26 72.4484 1121.71 70.765 1122.57 69.2817L1159.28 5.76946C1160.13 4.28853 1161.36 3.05878 1162.84 2.20379C1164.32 1.34879 1166 0.898682 1167.71 0.898682C1169.42 0.898682 1171.1 1.34879 1172.59 2.20379C1174.07 3.05878 1175.3 4.28853 1176.15 5.76946L1210.13 64.6613Z" fill="#F24E1E"/>
      <path d="M1164.93 56.9898C1164.93 52.7335 1166.57 50.982 1168.99 48.9668C1171.04 47.1965 1172.85 45.6145 1172.85 42.9653C1172.85 39.9833 1170.8 38.169 1167.83 38.169C1164.34 38.169 1162.33 40.4479 1162.29 44.9616L1157.82 44.2648C1157.87 37.7987 1161.73 34.1638 1167.83 34.1638C1173.28 34.1638 1177.56 37.4722 1177.56 42.8209C1177.56 46.4055 1175.67 48.8287 1172.07 51.8044C1169.83 53.6877 1169.23 54.8303 1169.23 57.0212L1164.93 56.9898ZM1164.14 67.323V61.2713H1170.04V67.323H1164.14Z" fill="black"/>
      <path d="M1222.26 64.655H1190.04C1187.38 64.655 1185.22 66.8108 1185.22 69.4701V101.694C1185.22 104.353 1187.38 106.509 1190.04 106.509H1222.26C1224.92 106.509 1227.08 104.353 1227.08 101.694V69.4701C1227.08 66.8108 1224.92 64.655 1222.26 64.655Z" fill="#FFC701"/>
      <path d="M1227.96 69.156C1227.88 67.6981 1227.25 66.3263 1226.19 65.3222C1225.13 64.3182 1223.72 63.7581 1222.26 63.7571H1212.91L1200.62 42.4566L1182.28 10.7036C1181.18 8.77915 1179.5 7.25328 1177.48 6.34684L1176.89 5.32356C1175.96 3.70569 1174.62 2.36218 1173 1.42807C1171.38 0.493968 1169.54 0.00219727 1167.68 0.00219727C1165.81 0.00219727 1163.97 0.493968 1162.36 1.42807C1160.74 2.36218 1159.4 3.70569 1158.46 5.32356L1140.13 37.0766L1121.79 68.8358C1121.05 70.1304 1120.58 71.5668 1120.43 73.0521C1120.27 74.5375 1120.43 76.0387 1120.9 77.4588C1121.36 78.8789 1122.11 80.1862 1123.11 81.2961C1124.11 82.4061 1125.33 83.294 1126.7 83.9025C1127.53 85.7766 1128.89 87.3681 1130.61 88.4829C1132.33 89.5976 1134.34 90.1874 1136.39 90.1803H1184.33V101.7C1184.33 103.159 1184.89 104.563 1185.89 105.622C1186.9 106.681 1188.27 107.315 1189.72 107.394C1189.8 108.851 1190.44 110.223 1191.5 111.227C1192.56 112.232 1193.96 112.792 1195.42 112.793H1227.64C1229.16 112.793 1230.61 112.191 1231.68 111.12C1232.75 110.048 1233.36 108.595 1233.36 107.08V74.8499C1233.36 73.3911 1232.8 71.9875 1231.79 70.9283C1230.79 69.869 1229.42 69.2347 1227.96 69.156ZM1123.35 78.5727C1122.57 77.2299 1122.16 75.7038 1122.16 74.15C1122.16 72.5961 1122.57 71.0701 1123.35 69.7273L1141.7 37.9743L1160.02 6.22128C1160.8 4.87569 1161.92 3.7581 1163.26 2.98102C1164.6 2.20394 1166.13 1.7948 1167.68 1.7948C1169.24 1.7948 1170.76 2.20394 1172.11 2.98102C1173.45 3.7581 1174.57 4.87569 1175.34 6.22128L1193.68 37.9743L1208.57 63.7571H1202.69L1170.94 8.78889C1170.6 8.22102 1170.13 7.74997 1169.56 7.42262C1168.99 7.09526 1168.34 6.92301 1167.68 6.92301C1167.03 6.92301 1166.38 7.09526 1165.81 7.42262C1165.24 7.74997 1164.76 8.22102 1164.43 8.78889L1127.76 72.2761C1127.43 72.8475 1127.26 73.4955 1127.26 74.1553C1127.26 74.8151 1127.43 75.4635 1127.76 76.0356C1128.09 76.6078 1128.56 77.0835 1129.13 77.4153C1129.7 77.747 1130.35 77.9232 1131.01 77.9261H1184.33V83.0173H1131.03C1129.47 83.0246 1127.94 82.6174 1126.59 81.8375C1125.24 81.0576 1124.12 79.933 1123.35 78.5789V78.5727ZM1184.33 69.4636V76.1118H1131.03C1130.68 76.1092 1130.35 76.0167 1130.05 75.8435C1129.75 75.6703 1129.51 75.4224 1129.34 75.1245C1129.17 74.8267 1129.08 74.4892 1129.08 74.1459C1129.08 73.8025 1129.17 73.4652 1129.34 73.1675L1165.99 9.65523C1166.16 9.35975 1166.41 9.11483 1166.71 8.94467C1167.01 8.77452 1167.34 8.68502 1167.69 8.68502C1168.03 8.68502 1168.37 8.77452 1168.66 8.94467C1168.96 9.11483 1169.21 9.35975 1169.38 9.65523L1200.62 63.7571H1190.04C1188.52 63.7571 1187.07 64.359 1186 65.4303C1184.93 66.5017 1184.33 67.9548 1184.33 69.4699V69.4636ZM1186.12 101.7V69.4699C1186.12 68.4315 1186.54 67.436 1187.27 66.7017C1188 65.9675 1189 65.5542 1190.04 65.5526H1222.26C1223.3 65.5542 1224.3 65.9675 1225.03 66.7017C1225.76 67.436 1226.18 68.4315 1226.18 69.4699V101.7C1226.18 102.738 1225.76 103.734 1225.03 104.468C1224.3 105.202 1223.3 105.616 1222.26 105.617H1190.04C1189 105.616 1188 105.202 1187.27 104.468C1186.54 103.734 1186.12 102.738 1186.12 101.7V101.7Z" fill="black"/>
      <path d="M1203.76 97.9334V93.2502H1208.54V97.9334H1203.76ZM1205.24 90.2682L1203.98 81.2659V73.2617H1208.28V81.2659L1207.02 90.2368L1205.24 90.2682Z" fill="black"/>
   </g>
   <g clip-path="url(#clip3_0_1)">
      <path d="M444.695 409.476L455.854 432.087L480.812 435.727C481.406 435.814 481.963 436.066 482.422 436.453C482.88 436.84 483.221 437.347 483.407 437.918C483.592 438.488 483.615 439.1 483.471 439.682C483.328 440.265 483.024 440.796 482.595 441.215L464.536 458.818L468.796 483.672C468.897 484.264 468.83 484.871 468.604 485.427C468.378 485.982 468.001 486.463 467.516 486.816C467.031 487.169 466.457 487.379 465.858 487.423C465.26 487.467 464.662 487.343 464.13 487.065L441.807 475.351L419.489 487.065C418.957 487.344 418.358 487.47 417.759 487.426C417.16 487.383 416.585 487.173 416.099 486.82C415.614 486.467 415.236 485.985 415.01 485.429C414.783 484.873 414.717 484.264 414.818 483.672L419.083 458.818L401.024 441.215C400.595 440.795 400.291 440.263 400.149 439.679C400.006 439.095 400.03 438.483 400.217 437.912C400.404 437.341 400.747 436.834 401.207 436.448C401.668 436.062 402.227 435.812 402.822 435.727L427.78 432.102L438.924 409.476C439.189 408.937 439.6 408.483 440.11 408.165C440.62 407.848 441.209 407.679 441.81 407.679C442.41 407.679 442.999 407.848 443.509 408.165C444.019 408.483 444.43 408.937 444.695 409.476V409.476Z" fill="#FFC701"/>
      <path d="M465.631 488.135C464.995 488.136 464.369 487.98 463.809 487.68L441.807 476.115L419.811 487.68C419.165 488.019 418.437 488.171 417.71 488.118C416.982 488.065 416.284 487.81 415.693 487.382C415.103 486.953 414.644 486.368 414.369 485.693C414.094 485.017 414.012 484.278 414.135 483.559L418.335 459.061L400.539 441.726C400.012 441.217 399.639 440.57 399.462 439.859C399.285 439.148 399.311 438.402 399.537 437.706C399.763 437.009 400.18 436.39 400.741 435.918C401.301 435.447 401.983 435.142 402.708 435.039L427.3 431.468L438.301 409.18C438.624 408.525 439.124 407.973 439.744 407.588C440.364 407.202 441.08 406.998 441.81 406.998C442.54 406.998 443.256 407.202 443.876 407.588C444.496 407.973 444.996 408.525 445.319 409.18L456.315 431.468L480.911 435.039C481.633 435.147 482.31 435.454 482.866 435.926C483.422 436.398 483.835 437.016 484.059 437.71C484.283 438.404 484.308 439.148 484.131 439.855C483.955 440.563 483.584 441.208 483.061 441.716L465.265 459.051L469.465 483.544C469.561 484.106 469.533 484.681 469.383 485.231C469.234 485.781 468.967 486.292 468.6 486.728C468.233 487.164 467.776 487.515 467.26 487.756C466.744 487.998 466.181 488.124 465.612 488.126L465.631 488.135ZM441.807 474.544L442.134 474.713L464.452 486.446C464.869 486.666 465.338 486.764 465.807 486.731C466.277 486.697 466.727 486.533 467.108 486.257C467.489 485.981 467.785 485.603 467.962 485.168C468.14 484.732 468.192 484.255 468.113 483.792L463.789 458.576L482.115 440.745C482.451 440.416 482.689 440 482.801 439.543C482.913 439.086 482.896 438.607 482.751 438.16C482.606 437.713 482.338 437.315 481.979 437.011C481.62 436.707 481.183 436.51 480.718 436.441L455.393 432.756L444.071 409.799C443.863 409.377 443.541 409.021 443.141 408.773C442.741 408.524 442.28 408.393 441.81 408.393C441.339 408.393 440.878 408.524 440.479 408.773C440.079 409.021 439.757 409.377 439.549 409.799L428.226 432.756L402.906 436.416C402.441 436.485 402.004 436.682 401.645 436.986C401.286 437.29 401.019 437.688 400.874 438.135C400.729 438.583 400.711 439.062 400.823 439.518C400.936 439.975 401.173 440.391 401.51 440.72L419.836 458.576L415.507 483.772C415.421 484.238 415.469 484.718 415.644 485.158C415.819 485.598 416.115 485.979 416.497 486.259C416.879 486.538 417.333 486.704 417.805 486.737C418.277 486.77 418.749 486.67 419.167 486.446L441.807 474.544Z" fill="black"/>
      <path d="M488.316 441.949C488.093 441.253 487.678 440.634 487.119 440.162C486.56 439.691 485.88 439.387 485.156 439.284L484.25 439.155C484.274 438.665 484.206 438.175 484.051 437.709C483.828 437.013 483.412 436.394 482.854 435.923C482.295 435.452 481.615 435.147 480.891 435.044L456.315 431.468L445.319 409.18C444.996 408.525 444.496 407.973 443.876 407.588C443.256 407.202 442.54 406.998 441.81 406.998C441.079 406.998 440.364 407.202 439.744 407.588C439.123 407.973 438.624 408.525 438.3 409.18L427.3 431.468L402.708 435.039C401.985 435.144 401.306 435.449 400.747 435.919C400.188 436.39 399.772 437.008 399.546 437.703C399.321 438.398 399.294 439.142 399.469 439.851C399.645 440.56 400.015 441.206 400.539 441.716L418.335 459.051L414.135 483.549C414.033 484.14 414.069 484.747 414.24 485.322C414.411 485.897 414.711 486.425 415.119 486.865C415.527 487.305 416.03 487.646 416.59 487.86C417.15 488.074 417.753 488.157 418.35 488.101C418.284 488.801 418.409 489.507 418.712 490.142C419.014 490.778 419.483 491.319 420.068 491.71C420.653 492.101 421.333 492.326 422.036 492.362C422.739 492.398 423.439 492.244 424.061 491.915L446.057 480.349L468.048 491.915C468.612 492.211 469.239 492.368 469.876 492.37C470.446 492.368 471.008 492.242 471.524 492.001C472.04 491.759 472.498 491.409 472.864 490.973C473.231 490.537 473.498 490.026 473.648 489.476C473.797 488.926 473.825 488.35 473.729 487.789L469.529 463.296L487.325 445.961C487.85 445.452 488.221 444.806 488.396 444.097C488.571 443.387 488.543 442.643 488.316 441.949V441.949ZM416.507 486.248C416.123 485.973 415.826 485.594 415.65 485.155C415.475 484.716 415.428 484.236 415.517 483.772L419.841 458.556L401.514 440.725C401.178 440.396 400.941 439.98 400.828 439.523C400.716 439.067 400.733 438.588 400.879 438.14C401.024 437.693 401.291 437.295 401.65 436.991C402.009 436.687 402.446 436.49 402.911 436.421L428.226 432.756L439.549 409.799C439.757 409.377 440.079 409.021 440.478 408.773C440.878 408.524 441.339 408.393 441.81 408.393C442.28 408.393 442.741 408.524 443.141 408.773C443.541 409.021 443.863 409.377 444.071 409.799L455.393 432.756L480.708 436.431C481.173 436.5 481.61 436.697 481.969 437.001C482.328 437.305 482.596 437.703 482.741 438.15C482.886 438.597 482.903 439.076 482.791 439.533C482.679 439.99 482.441 440.406 482.105 440.735L463.779 458.591L468.113 483.772C468.192 484.236 468.14 484.712 467.962 485.148C467.785 485.584 467.489 485.961 467.108 486.237C466.727 486.513 466.276 486.677 465.807 486.711C465.338 486.744 464.869 486.646 464.452 486.427L442.134 474.713L441.807 474.544L419.167 486.446C418.751 486.671 418.279 486.771 417.808 486.736C417.337 486.701 416.885 486.532 416.507 486.248V486.248Z" fill="black"/>
   </g>
   <defs>
      <clipPath id="clip0_0_1">
         <rect width="86.9106" height="74.69" fill="white" transform="translate(401.355 19)"/>
      </clipPath>
      <clipPath id="clip1_0_1">
         <rect width="114.891" height="84.7" fill="white" transform="translate(1120.35 407)"/>
      </clipPath>
      <clipPath id="clip2_0_1">
         <rect width="113" height="112.787" fill="white" transform="translate(1120.35)"/>
      </clipPath>
      <clipPath id="clip3_0_1">
         <rect width="89.1542" height="85.38" fill="white" transform="translate(399.355 407)"/>
      </clipPath>
   </defs>
</svg>
