<svg xmlns="http://www.w3.org/2000/svg" fill="none" viewBox="0 0 1236 659">
   <rect width="474.675" height="224" x="1.355" y="435" fill="#E4CCFF" rx="32"/>
   <path fill="#000" fill-opacity=".8" d="M146.723 531.4c-2.853 0-5.093-.773-6.72-2.32-1.6-1.573-2.4-3.707-2.4-6.4V501.8h5.04v20.84c0 1.387.347 2.467 1.04 3.24.693.773 1.707 1.16 3.04 1.16 1.307 0 2.307-.387 3-1.16.72-.773 1.08-1.853 1.08-3.24V501.8h5.04v20.88c0 2.693-.8 4.827-2.4 6.4-1.6 1.547-3.84 2.32-6.72 2.32Zm14.184-.4v-22h4.88v4.2h.08c.24-1.44.867-2.56 1.88-3.36 1.014-.827 2.334-1.24 3.96-1.24 2.16 0 3.88.72 5.16 2.16 1.307 1.44 1.96 3.373 1.96 5.8V531h-5v-13.92c0-1.333-.36-2.36-1.08-3.08-.693-.72-1.64-1.08-2.84-1.08-1.253 0-2.24.373-2.96 1.12-.693.747-1.04 1.813-1.04 3.2V531h-5Zm33.905.4c-1.6 0-2.92-.387-3.96-1.16-1.04-.773-1.694-1.867-1.96-3.28V531h-4.88v-29.2h5v6.16l-.16 5.24c.24-1.44.88-2.56 1.92-3.36 1.066-.827 2.413-1.24 4.04-1.24 2.213 0 3.986.76 5.32 2.28 1.333 1.52 2 3.573 2 6.16V523c0 2.587-.667 4.64-2 6.16-1.334 1.493-3.107 2.24-5.32 2.24Zm-1.76-4.32c1.28 0 2.28-.373 3-1.12.72-.747 1.08-1.813 1.08-3.2v-5.52c0-1.387-.36-2.453-1.08-3.2-.72-.747-1.72-1.12-3-1.12s-2.28.387-3 1.16c-.694.747-1.04 1.8-1.04 3.16v5.52c0 1.36.346 2.427 1.04 3.2.72.747 1.72 1.12 3 1.12Zm14.704 3.92v-22h4.88v4.2h.12c.213-1.44.853-2.56 1.92-3.36 1.067-.827 2.427-1.24 4.08-1.24 2.267 0 4.08.747 5.44 2.24 1.36 1.467 2.04 3.48 2.04 6.04v1.8h-5.24v-1.44c0-1.36-.36-2.413-1.08-3.16-.693-.773-1.707-1.16-3.04-1.16-2.747 0-4.12 1.533-4.12 4.6V531h-5Zm28.944.4c-2.266 0-4.053-.587-5.36-1.76-1.306-1.2-1.96-2.827-1.96-4.88 0-2.16.747-3.827 2.24-5 1.494-1.2 3.574-1.8 6.24-1.8h5.28v-1.84c0-1.067-.346-1.893-1.04-2.48-.693-.587-1.666-.88-2.92-.88-1.146 0-2.093.24-2.84.72-.72.48-1.12 1.12-1.2 1.92h-4.76c.107-2.053.974-3.693 2.6-4.92 1.654-1.253 3.774-1.88 6.36-1.88 2.72 0 4.867.667 6.44 2 1.574 1.333 2.36 3.16 2.36 5.48V531h-4.84v-3.72h-.08c-.293 1.28-1.013 2.293-2.16 3.04-1.146.72-2.6 1.08-4.36 1.08Zm1.64-3.72c1.414 0 2.56-.347 3.44-1.04.907-.72 1.36-1.667 1.36-2.84v-2.64h-5.16c-1.12 0-2 .293-2.64.88-.64.56-.96 1.333-.96 2.32 0 1.04.347 1.853 1.04 2.44.72.587 1.694.88 2.92.88Zm14.985 3.32v-22h4.88v4.2h.08c.24-1.44.866-2.56 1.88-3.36 1.013-.827 2.333-1.24 3.96-1.24 2.16 0 3.88.72 5.16 2.16 1.306 1.44 1.96 3.373 1.96 5.8V531h-5v-13.92c0-1.333-.36-2.36-1.08-3.08-.694-.72-1.64-1.08-2.84-1.08-1.254 0-2.24.373-2.96 1.12-.694.747-1.04 1.813-1.04 3.2V531h-5Zm30.024.4c-2.133 0-3.867-.76-5.2-2.28-1.333-1.52-2-3.56-2-6.12v-5.96c0-2.587.653-4.64 1.96-6.16 1.333-1.52 3.08-2.28 5.24-2.28 1.52 0 2.8.387 3.84 1.16 1.04.747 1.76 1.813 2.16 3.2h.08l-.16-5v-6.16h5V531h-4.88v-3.96h-.04c-.4 1.387-1.12 2.467-2.16 3.24-1.013.747-2.293 1.12-3.84 1.12Zm1.88-4.32c1.28 0 2.267-.387 2.96-1.16.72-.773 1.08-1.867 1.08-3.28v-5.28c0-1.413-.36-2.507-1.08-3.28-.693-.773-1.68-1.16-2.96-1.16s-2.28.373-3 1.12c-.72.747-1.08 1.813-1.08 3.2v5.52c0 1.387.36 2.453 1.08 3.2.72.747 1.72 1.12 3 1.12Zm23.264 4.32c-1.866 0-3.493-.36-4.88-1.08-1.386-.72-2.466-1.72-3.24-3-.746-1.307-1.12-2.827-1.12-4.56v-5.52c0-1.733.374-3.24 1.12-4.52.774-1.307 1.854-2.32 3.24-3.04 1.387-.72 3.014-1.08 4.88-1.08 1.84 0 3.44.36 4.8 1.08 1.387.72 2.454 1.733 3.2 3.04.774 1.28 1.16 2.787 1.16 4.52v3.96h-13.56v1.56c0 3.12 1.48 4.68 4.44 4.68 2.294 0 3.64-.76 4.04-2.28h4.92c-.373 1.893-1.386 3.413-3.04 4.56-1.626 1.12-3.613 1.68-5.96 1.68Zm-4.4-14.16v.84l8.72-.04v-.84c0-1.52-.36-2.68-1.08-3.48-.72-.827-1.8-1.24-3.24-1.24-1.466 0-2.573.413-3.32 1.24-.72.827-1.08 2-1.08 3.52Zm25.465 14.16c-2.133 0-3.867-.76-5.2-2.28-1.333-1.52-2-3.56-2-6.12v-5.96c0-2.587.653-4.64 1.96-6.16 1.333-1.52 3.08-2.28 5.24-2.28 1.52 0 2.8.387 3.84 1.16 1.04.747 1.76 1.813 2.16 3.2h.08l-.16-5v-6.16h5V531h-4.88v-3.96h-.04c-.4 1.387-1.12 2.467-2.16 3.24-1.013.747-2.293 1.12-3.84 1.12Zm1.88-4.32c1.28 0 2.267-.387 2.96-1.16.72-.773 1.08-1.867 1.08-3.28v-5.28c0-1.413-.36-2.507-1.08-3.28-.693-.773-1.68-1.16-2.96-1.16s-2.28.373-3 1.12c-.72.747-1.08 1.813-1.08 3.2v5.52c0 1.387.36 2.453 1.08 3.2.72.747 1.72 1.12 3 1.12ZM53.985 591.4c-1.866 0-3.506-.347-4.92-1.04-1.386-.72-2.466-1.72-3.24-3-.773-1.307-1.16-2.84-1.16-4.6v-5.52c0-1.76.387-3.28 1.16-4.56.774-1.307 1.854-2.307 3.24-3 1.414-.72 3.054-1.08 4.92-1.08 2.774 0 4.987.72 6.64 2.16 1.654 1.413 2.52 3.347 2.6 5.8h-4.88c-.08-1.147-.52-2.027-1.32-2.64-.773-.64-1.786-.96-3.04-.96-1.333 0-2.386.373-3.16 1.12-.773.72-1.16 1.76-1.16 3.12v5.56c0 1.36.387 2.413 1.16 3.16.774.747 1.827 1.12 3.16 1.12 1.28 0 2.307-.307 3.08-.92.774-.64 1.2-1.533 1.28-2.68h4.88c-.08 2.453-.946 4.4-2.6 5.84-1.653 1.413-3.866 2.12-6.64 2.12Zm22.985-.04c-2.827 0-5.067-.773-6.72-2.32-1.654-1.573-2.48-3.68-2.48-6.32v-5.44c0-2.64.826-4.733 2.48-6.28 1.653-1.573 3.893-2.36 6.72-2.36 2.826 0 5.066.787 6.72 2.36 1.653 1.547 2.48 3.627 2.48 6.24v5.48c0 2.64-.827 4.747-2.48 6.32-1.654 1.547-3.894 2.32-6.72 2.32Zm0-4.36c1.333 0 2.36-.36 3.08-1.08.746-.747 1.12-1.813 1.12-3.2v-5.44c0-1.387-.374-2.44-1.12-3.16-.72-.747-1.747-1.12-3.08-1.12-1.334 0-2.374.373-3.12 1.12-.72.72-1.08 1.773-1.08 3.16v5.44c0 1.387.36 2.453 1.08 3.2.746.72 1.786 1.08 3.12 1.08Zm13.064 4v-22h4.08v2.96h.2c.133-1.013.533-1.827 1.2-2.44.667-.613 1.493-.92 2.48-.92.907 0 1.693.307 2.36.92.667.613 1.12 1.427 1.36 2.44h.12c.16-1.013.573-1.827 1.24-2.44.693-.613 1.547-.92 2.56-.92 1.307 0 2.373.533 3.2 1.6.853 1.04 1.28 2.387 1.28 4.04V591h-4.32v-16.4c0-1.547-.64-2.32-1.92-2.32-1.28 0-1.92.773-1.92 2.32V591h-3.76v-16.4c0-1.547-.64-2.32-1.92-2.32-1.253 0-1.88.773-1.88 2.32V591h-4.36Zm24.224 7.2V569h4.88v3.96h.08c.4-1.387 1.107-2.453 2.12-3.2 1.04-.773 2.32-1.16 3.84-1.16 2.16 0 3.894.76 5.2 2.28 1.334 1.52 2 3.56 2 6.12v5.96c0 2.587-.666 4.64-2 6.16-1.306 1.52-3.04 2.28-5.2 2.28-1.493 0-2.76-.373-3.8-1.12-1.04-.773-1.76-1.853-2.16-3.24h-.08l.12 5v6.16h-5Zm9.08-11.12c1.28 0 2.267-.373 2.96-1.12.72-.747 1.08-1.813 1.08-3.2v-5.52c0-1.387-.36-2.453-1.08-3.2-.693-.747-1.68-1.12-2.96-1.12s-2.28.387-3 1.16c-.72.773-1.08 1.867-1.08 3.28v5.28c0 1.413.36 2.507 1.08 3.28.72.773 1.72 1.16 3 1.16Zm22.945 4.28c-2.827 0-5.067-.773-6.72-2.32-1.653-1.573-2.48-3.68-2.48-6.32v-5.44c0-2.64.827-4.733 2.48-6.28 1.653-1.573 3.893-2.36 6.72-2.36s5.067.787 6.72 2.36c1.653 1.547 2.48 3.627 2.48 6.24v5.48c0 2.64-.827 4.747-2.48 6.32-1.653 1.547-3.893 2.32-6.72 2.32Zm0-4.36c1.333 0 2.36-.36 3.08-1.08.747-.747 1.12-1.813 1.12-3.2v-5.44c0-1.387-.373-2.44-1.12-3.16-.72-.747-1.747-1.12-3.08-1.12s-2.373.373-3.12 1.12c-.72.72-1.08 1.773-1.08 3.16v5.44c0 1.387.36 2.453 1.08 3.2.747.72 1.787 1.08 3.12 1.08Zm14.184 4v-22h4.88v4.2h.08c.24-1.44.867-2.56 1.88-3.36 1.014-.827 2.334-1.24 3.96-1.24 2.16 0 3.88.72 5.16 2.16 1.307 1.44 1.96 3.373 1.96 5.8V591h-5v-13.92c0-1.333-.36-2.36-1.08-3.08-.693-.72-1.64-1.08-2.84-1.08-1.253 0-2.24.373-2.96 1.12-.693.747-1.04 1.813-1.04 3.2V591h-5Zm32.065.4c-1.867 0-3.494-.36-4.88-1.08-1.387-.72-2.467-1.72-3.24-3-.747-1.307-1.12-2.827-1.12-4.56v-5.52c0-1.733.373-3.24 1.12-4.52.773-1.307 1.853-2.32 3.24-3.04 1.386-.72 3.013-1.08 4.88-1.08 1.84 0 3.44.36 4.8 1.08 1.386.72 2.453 1.733 3.2 3.04.773 1.28 1.16 2.787 1.16 4.52v3.96h-13.56v1.56c0 3.12 1.48 4.68 4.44 4.68 2.293 0 3.64-.76 4.04-2.28h4.92c-.374 1.893-1.387 3.413-3.04 4.56-1.627 1.12-3.614 1.68-5.96 1.68Zm-4.4-14.16v.84l8.72-.04v-.84c0-1.52-.36-2.68-1.08-3.48-.72-.827-1.8-1.24-3.24-1.24-1.467 0-2.574.413-3.32 1.24-.72.827-1.08 2-1.08 3.52ZM206.676 591v-22h4.88v4.2h.08c.24-1.44.867-2.56 1.88-3.36 1.013-.827 2.333-1.24 3.96-1.24 2.16 0 3.88.72 5.16 2.16 1.307 1.44 1.96 3.373 1.96 5.8V591h-5v-13.92c0-1.333-.36-2.36-1.08-3.08-.693-.72-1.64-1.08-2.84-1.08-1.253 0-2.24.373-2.96 1.12-.693.747-1.04 1.813-1.04 3.2V591h-5Zm34.424 0c-2.053 0-3.693-.587-4.92-1.76-1.2-1.2-1.8-2.813-1.8-4.84v-10.88h-5.96V569h5.96v-6.2h5.04v6.2h8.44v4.52h-8.44v10.76c0 .64.174 1.173.52 1.6.374.4.88.6 1.52.6h6V591h-6.36Zm47.369 0c-2.187 0-3.947-.653-5.28-1.96-1.307-1.307-1.96-3.027-1.96-5.16v-17.56h-7.24v-4.52h12.24v21.96c0 .827.227 1.493.68 2 .48.48 1.12.72 1.92.72h6.44V591h-6.8Zm10.584 0v-4.52h7.52v-12.96h-6.72V569h11.72v17.48h6.76V591h-19.28Zm9.68-25.68c-1.013 0-1.813-.253-2.4-.76-.586-.533-.88-1.24-.88-2.12 0-.88.294-1.573.88-2.08.587-.533 1.387-.8 2.4-.8 1.014 0 1.814.267 2.4.8.587.507.88 1.2.88 2.08 0 .88-.293 1.587-.88 2.12-.586.507-1.386.76-2.4.76Zm24.265 26.08c-1.6 0-2.92-.387-3.96-1.16-1.04-.773-1.693-1.867-1.96-3.28V591h-4.88v-29.2h5v6.16l-.16 5.24c.24-1.44.88-2.56 1.92-3.36 1.067-.827 2.413-1.24 4.04-1.24 2.213 0 3.987.76 5.32 2.28 1.333 1.52 2 3.573 2 6.16V583c0 2.587-.667 4.64-2 6.16-1.333 1.493-3.107 2.24-5.32 2.24Zm-1.76-4.32c1.28 0 2.28-.373 3-1.12.72-.747 1.08-1.813 1.08-3.2v-5.52c0-1.387-.36-2.453-1.08-3.2-.72-.747-1.72-1.12-3-1.12s-2.28.387-3 1.16c-.693.747-1.04 1.8-1.04 3.16v5.52c0 1.36.347 2.427 1.04 3.2.72.747 1.72 1.12 3 1.12Zm14.704 3.92v-22h4.88v4.2h.12c.214-1.44.854-2.56 1.92-3.36 1.067-.827 2.427-1.24 4.08-1.24 2.267 0 4.08.747 5.44 2.24 1.36 1.467 2.04 3.48 2.04 6.04v1.8h-5.24v-1.44c0-1.36-.36-2.413-1.08-3.16-.693-.773-1.706-1.16-3.04-1.16-2.746 0-4.12 1.533-4.12 4.6V591h-5Zm28.945.4c-2.267 0-4.054-.587-5.36-1.76-1.307-1.2-1.96-2.827-1.96-4.88 0-2.16.746-3.827 2.24-5 1.493-1.2 3.573-1.8 6.24-1.8h5.28v-1.84c0-1.067-.347-1.893-1.04-2.48-.694-.587-1.667-.88-2.92-.88-1.147 0-2.094.24-2.84.72-.72.48-1.12 1.12-1.2 1.92h-4.76c.106-2.053.973-3.693 2.6-4.92 1.653-1.253 3.773-1.88 6.36-1.88 2.72 0 4.866.667 6.44 2 1.573 1.333 2.36 3.16 2.36 5.48V591h-4.84v-3.72h-.08c-.294 1.28-1.014 2.293-2.16 3.04-1.147.72-2.6 1.08-4.36 1.08Zm1.64-3.72c1.413 0 2.56-.347 3.44-1.04.906-.72 1.36-1.667 1.36-2.84v-2.64h-5.16c-1.12 0-2 .293-2.64.88-.64.56-.96 1.333-.96 2.32 0 1.04.346 1.853 1.04 2.44.72.587 1.693.88 2.92.88Zm15.624 3.32v-22h4.88v4.2h.12c.213-1.44.853-2.56 1.92-3.36 1.067-.827 2.427-1.24 4.08-1.24 2.267 0 4.08.747 5.44 2.24 1.36 1.467 2.04 3.48 2.04 6.04v1.8h-5.24v-1.44c0-1.36-.36-2.413-1.08-3.16-.693-.773-1.707-1.16-3.04-1.16-2.747 0-4.12 1.533-4.12 4.6V591h-5Zm26.024 7.2 3.12-8.4-8.48-20.8h5.44l4.32 11.24c.24.613.467 1.36.68 2.24.214.853.374 1.56.48 2.12.134-.56.307-1.267.52-2.12.24-.88.467-1.627.68-2.24l4.12-11.24h5.2l-10.84 29.2h-5.24Z"/>
   <rect width="474.675" height="224" x="744.03" y="35" fill="#E4CCFF" rx="32"/>
   <path fill="#000" fill-opacity=".8" d="M833.749 161v-29.2h8.68c1.973 0 3.68.387 5.12 1.16 1.467.747 2.6 1.8 3.4 3.16.8 1.36 1.2 2.96 1.2 4.8v10.92c0 1.84-.4 3.453-1.2 4.84-.8 1.36-1.933 2.427-3.4 3.2-1.44.747-3.147 1.12-5.12 1.12h-8.68Zm5-4.48h3.68c1.44 0 2.587-.413 3.44-1.24.853-.853 1.28-2 1.28-3.44v-10.92c0-1.413-.427-2.533-1.28-3.36-.853-.853-2-1.28-3.44-1.28h-3.68v20.24Zm27.145 4.88c-1.867 0-3.494-.36-4.88-1.08-1.387-.72-2.467-1.72-3.24-3-.747-1.307-1.12-2.827-1.12-4.56v-5.52c0-1.733.373-3.24 1.12-4.52.773-1.307 1.853-2.32 3.24-3.04 1.386-.72 3.013-1.08 4.88-1.08 1.84 0 3.44.36 4.8 1.08 1.386.72 2.453 1.733 3.2 3.04.773 1.28 1.16 2.787 1.16 4.52v3.96h-13.56v1.56c0 3.12 1.48 4.68 4.44 4.68 2.293 0 3.64-.76 4.04-2.28h4.92c-.374 1.893-1.387 3.413-3.04 4.56-1.627 1.12-3.614 1.68-5.96 1.68Zm-4.4-14.16v.84l8.72-.04v-.84c0-1.52-.36-2.68-1.08-3.48-.72-.827-1.8-1.24-3.24-1.24-1.467 0-2.574.413-3.32 1.24-.72.827-1.08 2-1.08 3.52Zm26.624 14.12c-1.68 0-3.16-.253-4.44-.76-1.28-.533-2.28-1.28-3-2.24-.693-.96-1.04-2.093-1.04-3.4h5.04c0 .773.307 1.373.92 1.8.64.4 1.493.6 2.56.6h1.72c1.253 0 2.187-.227 2.8-.68.613-.453.92-1.08.92-1.88 0-1.52-1.133-2.453-3.4-2.8l-3.08-.4c-4.613-.667-6.92-2.867-6.92-6.6 0-2.08.693-3.653 2.08-4.72 1.413-1.093 3.453-1.64 6.12-1.64h1.52c2.48 0 4.467.56 5.96 1.68 1.52 1.093 2.28 2.547 2.28 4.36h-5.04c0-.64-.28-1.133-.84-1.48-.56-.373-1.36-.56-2.4-.56h-1.52c-2.187 0-3.28.787-3.28 2.36 0 1.36.973 2.187 2.92 2.48l3.12.48c2.48.347 4.32 1.067 5.52 2.16 1.227 1.093 1.84 2.613 1.84 4.56 0 2.107-.733 3.747-2.2 4.92-1.44 1.173-3.573 1.76-6.4 1.76h-1.76Zm14.984-.36v-4.52h7.52v-12.96h-6.72V139h11.72v17.48h6.76V161h-19.28Zm9.68-25.68c-1.013 0-1.813-.253-2.4-.76-.586-.533-.88-1.24-.88-2.12 0-.88.294-1.573.88-2.08.587-.533 1.387-.8 2.4-.8 1.014 0 1.814.267 2.4.8.587.507.88 1.2.88 2.08 0 .88-.293 1.587-.88 2.12-.586.507-1.386.76-2.4.76Zm16.465 32.88v-4.16h6.52c2.24 0 3.36-1.053 3.36-3.16v-1.64l.08-4.12h-.08c-.214 1.44-.827 2.573-1.84 3.4-1.014.8-2.32 1.2-3.92 1.2-2.24 0-4.027-.76-5.36-2.28-1.307-1.52-1.96-3.573-1.96-6.16V147c0-2.56.653-4.6 1.96-6.12 1.333-1.52 3.12-2.28 5.36-2.28 1.6 0 2.906.413 3.92 1.24 1.013.8 1.626 1.92 1.84 3.36h.08l-.12-4.2h5v22c0 2.24-.734 4-2.2 5.28-1.467 1.28-3.48 1.92-6.04 1.92h-6.6Zm5.8-12.8c1.28 0 2.266-.373 2.96-1.12.72-.773 1.08-1.84 1.08-3.2v-3.84c0-1.36-.36-2.413-1.08-3.16-.694-.773-1.68-1.16-2.96-1.16s-2.267.373-2.96 1.12c-.694.747-1.04 1.813-1.04 3.2v3.84c0 1.387.346 2.453 1.04 3.2.693.747 1.68 1.12 2.96 1.12Zm14.304 5.6v-22h4.88v4.2h.08c.24-1.44.867-2.56 1.88-3.36 1.013-.827 2.333-1.24 3.96-1.24 2.16 0 3.88.72 5.16 2.16 1.307 1.44 1.96 3.373 1.96 5.8V161h-5v-13.92c0-1.333-.36-2.36-1.08-3.08-.693-.72-1.64-1.08-2.84-1.08-1.253 0-2.24.373-2.96 1.12-.693.747-1.04 1.813-1.04 3.2V161h-5Zm57.529 0c-2.05 0-3.69-.587-4.92-1.76-1.2-1.2-1.8-2.813-1.8-4.84v-10.88h-5.96V139h5.96v-6.2h5.04v6.2h8.44v4.52h-8.44v10.76c0 .64.17 1.173.52 1.6.37.4.88.6 1.52.6h6V161h-6.36Zm20.7.36c-2.82 0-5.06-.773-6.72-2.32-1.65-1.573-2.48-3.68-2.48-6.32v-5.44c0-2.64.83-4.733 2.48-6.28 1.66-1.573 3.9-2.36 6.72-2.36 2.83 0 5.07.787 6.72 2.36 1.66 1.547 2.48 3.627 2.48 6.24v5.48c0 2.64-.82 4.747-2.48 6.32-1.65 1.547-3.89 2.32-6.72 2.32Zm0-4.36c1.34 0 2.36-.36 3.08-1.08.75-.747 1.12-1.813 1.12-3.2v-5.44c0-1.387-.37-2.44-1.12-3.16-.72-.747-1.74-1.12-3.08-1.12-1.33 0-2.37.373-3.12 1.12-.72.72-1.08 1.773-1.08 3.16v5.44c0 1.387.36 2.453 1.08 3.2.75.72 1.79 1.08 3.12 1.08Zm14.31 4v-29.2h5v15.84h3.52l5.36-8.64h5.56l-6.64 10.64 6.76 11.36h-5.68l-5.36-9.12h-3.52V161h-5Zm31.94.4c-1.86 0-3.49-.36-4.88-1.08-1.38-.72-2.46-1.72-3.24-3-.74-1.307-1.12-2.827-1.12-4.56v-5.52c0-1.733.38-3.24 1.12-4.52.78-1.307 1.86-2.32 3.24-3.04 1.39-.72 3.02-1.08 4.88-1.08 1.84 0 3.44.36 4.8 1.08 1.39.72 2.46 1.733 3.2 3.04.78 1.28 1.16 2.787 1.16 4.52v3.96h-13.56v1.56c0 3.12 1.48 4.68 4.44 4.68 2.3 0 3.64-.76 4.04-2.28h4.92c-.37 1.893-1.38 3.413-3.04 4.56-1.62 1.12-3.61 1.68-5.96 1.68Zm-4.4-14.16v.84l8.72-.04v-.84c0-1.52-.36-2.68-1.08-3.48-.72-.827-1.8-1.24-3.24-1.24-1.46 0-2.57.413-3.32 1.24-.72.827-1.08 2-1.08 3.52Zm18.55 13.76v-22h4.88v4.2h.08c.24-1.44.86-2.56 1.88-3.36 1.01-.827 2.33-1.24 3.96-1.24 2.16 0 3.88.72 5.16 2.16 1.3 1.44 1.96 3.373 1.96 5.8V161h-5v-13.92c0-1.333-.36-2.36-1.08-3.08-.7-.72-1.64-1.08-2.84-1.08-1.26 0-2.24.373-2.96 1.12-.7.747-1.04 1.813-1.04 3.2V161h-5Zm31.18.36c-1.68 0-3.16-.253-4.44-.76-1.28-.533-2.28-1.28-3-2.24-.69-.96-1.04-2.093-1.04-3.4h5.04c0 .773.31 1.373.92 1.8.64.4 1.49.6 2.56.6h1.72c1.25 0 2.19-.227 2.8-.68.61-.453.92-1.08.92-1.88 0-1.52-1.13-2.453-3.4-2.8l-3.08-.4c-4.61-.667-6.92-2.867-6.92-6.6 0-2.08.69-3.653 2.08-4.72 1.41-1.093 3.45-1.64 6.12-1.64h1.52c2.48 0 4.47.56 5.96 1.68 1.52 1.093 2.28 2.547 2.28 4.36h-5.04c0-.64-.28-1.133-.84-1.48-.56-.373-1.36-.56-2.4-.56h-1.52c-2.19 0-3.28.787-3.28 2.36 0 1.36.97 2.187 2.92 2.48l3.12.48c2.48.347 4.32 1.067 5.52 2.16 1.23 1.093 1.84 2.613 1.84 4.56 0 2.107-.73 3.747-2.2 4.92-1.44 1.173-3.57 1.76-6.4 1.76h-1.76Z"/>
   <rect width="474.675" height="224" y="35" fill="#E4CCFF" rx="32"/>
   <path fill="#000" fill-opacity=".8" d="M110.871 131.4c-1.893 0-3.533-.347-4.92-1.04-1.386-.72-2.466-1.72-3.24-3-.746-1.307-1.12-2.84-1.12-4.6v-12.72c0-1.76.374-3.28 1.12-4.56.774-1.307 1.854-2.307 3.24-3 1.387-.72 3.027-1.08 4.92-1.08 1.867 0 3.494.36 4.88 1.08 1.387.693 2.467 1.693 3.24 3 .774 1.28 1.16 2.8 1.16 4.56h-5.04c0-1.36-.373-2.4-1.12-3.12-.72-.747-1.76-1.12-3.12-1.12s-2.413.36-3.16 1.08c-.746.72-1.12 1.76-1.12 3.12v12.76c0 1.36.374 2.413 1.12 3.16.747.72 1.8 1.08 3.16 1.08s2.4-.36 3.12-1.08c.747-.747 1.12-1.8 1.12-3.16h5.04c0 1.76-.386 3.293-1.16 4.6-.773 1.28-1.853 2.28-3.24 3-1.386.693-3.013 1.04-4.88 1.04Zm26.505-.4c-2.187 0-3.947-.653-5.28-1.96-1.307-1.307-1.96-3.027-1.96-5.16v-17.56h-7.24v-4.52h12.24v21.96c0 .827.226 1.493.68 2 .48.48 1.12.72 1.92.72h6.44V131h-6.8Zm10.584 0v-4.52h7.52v-12.96h-6.72V109h11.72v17.48h6.76V131h-19.28Zm9.68-25.68c-1.013 0-1.813-.253-2.4-.76-.587-.533-.88-1.24-.88-2.12 0-.88.293-1.573.88-2.08.587-.533 1.387-.8 2.4-.8s1.813.267 2.4.8c.587.507.88 1.2.88 2.08 0 .88-.293 1.587-.88 2.12-.587.507-1.387.76-2.4.76Zm22.424 26.08c-1.866 0-3.493-.36-4.88-1.08-1.386-.72-2.466-1.72-3.24-3-.746-1.307-1.12-2.827-1.12-4.56v-5.52c0-1.733.374-3.24 1.12-4.52.774-1.307 1.854-2.32 3.24-3.04 1.387-.72 3.014-1.08 4.88-1.08 1.84 0 3.44.36 4.8 1.08 1.387.72 2.454 1.733 3.2 3.04.774 1.28 1.16 2.787 1.16 4.52v3.96h-13.56v1.56c0 3.12 1.48 4.68 4.44 4.68 2.294 0 3.64-.76 4.04-2.28h4.92c-.373 1.893-1.386 3.413-3.04 4.56-1.626 1.12-3.613 1.68-5.96 1.68Zm-4.4-14.16v.84l8.72-.04v-.84c0-1.52-.36-2.68-1.08-3.48-.72-.827-1.8-1.24-3.24-1.24-1.466 0-2.573.413-3.32 1.24-.72.827-1.08 2-1.08 3.52ZM194.209 131v-22h4.88v4.2h.08c.24-1.44.866-2.56 1.88-3.36 1.013-.827 2.333-1.24 3.96-1.24 2.16 0 3.88.72 5.16 2.16 1.306 1.44 1.96 3.373 1.96 5.8V131h-5v-13.92c0-1.333-.36-2.36-1.08-3.08-.694-.72-1.64-1.08-2.84-1.08-1.254 0-2.24.373-2.96 1.12-.694.747-1.04 1.813-1.04 3.2V131h-5Zm34.424 0c-2.053 0-3.693-.587-4.92-1.76-1.2-1.2-1.8-2.813-1.8-4.84v-10.88h-5.96V109h5.96v-6.2h5.04v6.2h8.44v4.52h-8.44v10.76c0 .64.174 1.173.52 1.6.374.4.88.6 1.52.6h6V131h-6.36Zm45.689.4c-1.6 0-2.92-.387-3.96-1.16-1.04-.773-1.693-1.867-1.96-3.28V131h-4.88v-29.2h5v6.16l-.16 5.24c.24-1.44.88-2.56 1.92-3.36 1.067-.827 2.413-1.24 4.04-1.24 2.213 0 3.987.76 5.32 2.28 1.333 1.52 2 3.573 2 6.16V123c0 2.587-.667 4.64-2 6.16-1.333 1.493-3.107 2.24-5.32 2.24Zm-1.76-4.32c1.28 0 2.28-.373 3-1.12.72-.747 1.08-1.813 1.08-3.2v-5.52c0-1.387-.36-2.453-1.08-3.2-.72-.747-1.72-1.12-3-1.12s-2.28.387-3 1.16c-.693.747-1.04 1.8-1.04 3.16v5.52c0 1.36.347 2.427 1.04 3.2.72.747 1.72 1.12 3 1.12Zm14.704 3.92v-22h4.88v4.2h.12c.214-1.44.854-2.56 1.92-3.36 1.067-.827 2.427-1.24 4.08-1.24 2.267 0 4.08.747 5.44 2.24 1.36 1.467 2.04 3.48 2.04 6.04v1.8h-5.24v-1.44c0-1.36-.36-2.413-1.08-3.16-.693-.773-1.706-1.16-3.04-1.16-2.746 0-4.12 1.533-4.12 4.6V131h-5Zm28.945.4c-2.267 0-4.054-.587-5.36-1.76-1.307-1.2-1.96-2.827-1.96-4.88 0-2.16.746-3.827 2.24-5 1.493-1.2 3.573-1.8 6.24-1.8h5.28v-1.84c0-1.067-.347-1.893-1.04-2.48-.694-.587-1.667-.88-2.92-.88-1.147 0-2.094.24-2.84.72-.72.48-1.12 1.12-1.2 1.92h-4.76c.106-2.053.973-3.693 2.6-4.92 1.653-1.253 3.773-1.88 6.36-1.88 2.72 0 4.866.667 6.44 2 1.573 1.333 2.36 3.16 2.36 5.48V131h-4.84v-3.72h-.08c-.294 1.28-1.014 2.293-2.16 3.04-1.147.72-2.6 1.08-4.36 1.08Zm1.64-3.72c1.413 0 2.56-.347 3.44-1.04.906-.72 1.36-1.667 1.36-2.84v-2.64h-5.16c-1.12 0-2 .293-2.64.88-.64.56-.96 1.333-.96 2.32 0 1.04.346 1.853 1.04 2.44.72.587 1.693.88 2.92.88Zm14.984 3.32v-22h4.88v4.2h.08c.24-1.44.867-2.56 1.88-3.36 1.013-.827 2.333-1.24 3.96-1.24 2.16 0 3.88.72 5.16 2.16 1.307 1.44 1.96 3.373 1.96 5.8V131h-5v-13.92c0-1.333-.36-2.36-1.08-3.08-.693-.72-1.64-1.08-2.84-1.08-1.253 0-2.24.373-2.96 1.12-.693.747-1.04 1.813-1.04 3.2V131h-5Zm30.024.4c-2.133 0-3.866-.76-5.2-2.28-1.333-1.52-2-3.56-2-6.12v-5.96c0-2.587.654-4.64 1.96-6.16 1.334-1.52 3.08-2.28 5.24-2.28 1.52 0 2.8.387 3.84 1.16 1.04.747 1.76 1.813 2.16 3.2h.08l-.16-5v-6.16h5V131h-4.88v-3.96h-.04c-.4 1.387-1.12 2.467-2.16 3.24-1.013.747-2.293 1.12-3.84 1.12Zm1.88-4.32c1.28 0 2.267-.387 2.96-1.16.72-.773 1.08-1.867 1.08-3.28v-5.28c0-1.413-.36-2.507-1.08-3.28-.693-.773-1.68-1.16-2.96-1.16s-2.28.373-3 1.12c-.72.747-1.08 1.813-1.08 3.2v5.52c0 1.387.36 2.453 1.08 3.2.72.747 1.72 1.12 3 1.12ZM147.52 191v-4.52h7.52v-12.96h-6.72V169h11.72v17.48h6.76V191h-19.28Zm9.68-25.68c-1.013 0-1.813-.253-2.4-.76-.587-.533-.88-1.24-.88-2.12 0-.88.293-1.573.88-2.08.587-.533 1.387-.8 2.4-.8s1.813.267 2.4.8c.587.507.88 1.2.88 2.08 0 .88-.293 1.587-.88 2.12-.587.507-1.387.76-2.4.76Zm20.384 26.08c-2.133 0-3.866-.76-5.2-2.28-1.333-1.52-2-3.56-2-6.12v-5.96c0-2.587.654-4.64 1.96-6.16 1.334-1.52 3.08-2.28 5.24-2.28 1.52 0 2.8.387 3.84 1.16 1.04.747 1.76 1.813 2.16 3.2h.08l-.16-5v-6.16h5V191h-4.88v-3.96h-.04c-.4 1.387-1.12 2.467-2.16 3.24-1.013.747-2.293 1.12-3.84 1.12Zm1.88-4.32c1.28 0 2.267-.387 2.96-1.16.72-.773 1.08-1.867 1.08-3.28v-5.28c0-1.413-.36-2.507-1.08-3.28-.693-.773-1.68-1.16-2.96-1.16s-2.28.373-3 1.12c-.72.747-1.08 1.813-1.08 3.2v5.52c0 1.387.36 2.453 1.08 3.2.72.747 1.72 1.12 3 1.12Zm23.265 4.32c-1.867 0-3.494-.36-4.88-1.08-1.387-.72-2.467-1.72-3.24-3-.747-1.307-1.12-2.827-1.12-4.56v-5.52c0-1.733.373-3.24 1.12-4.52.773-1.307 1.853-2.32 3.24-3.04 1.386-.72 3.013-1.08 4.88-1.08 1.84 0 3.44.36 4.8 1.08 1.386.72 2.453 1.733 3.2 3.04.773 1.28 1.16 2.787 1.16 4.52v3.96h-13.56v1.56c0 3.12 1.48 4.68 4.44 4.68 2.293 0 3.64-.76 4.04-2.28h4.92c-.374 1.893-1.387 3.413-3.04 4.56-1.627 1.12-3.614 1.68-5.96 1.68Zm-4.4-14.16v.84l8.72-.04v-.84c0-1.52-.36-2.68-1.08-3.48-.72-.827-1.8-1.24-3.24-1.24-1.467 0-2.574.413-3.32 1.24-.72.827-1.08 2-1.08 3.52ZM216.873 191v-22h4.88v4.2h.08c.24-1.44.867-2.56 1.88-3.36 1.014-.827 2.334-1.24 3.96-1.24 2.16 0 3.88.72 5.16 2.16 1.307 1.44 1.96 3.373 1.96 5.8V191h-5v-13.92c0-1.333-.36-2.36-1.08-3.08-.693-.72-1.64-1.08-2.84-1.08-1.253 0-2.24.373-2.96 1.12-.693.747-1.04 1.813-1.04 3.2V191h-5Zm34.425 0c-2.054 0-3.694-.587-4.92-1.76-1.2-1.2-1.8-2.813-1.8-4.84v-10.88h-5.96V169h5.96v-6.2h5.04v6.2h8.44v4.52h-8.44v10.76c0 .64.173 1.173.52 1.6.373.4.88.6 1.52.6h6V191h-6.36Zm11.744 0v-4.52h7.52v-12.96h-6.72V169h11.72v17.48h6.76V191h-19.28Zm9.68-25.68c-1.013 0-1.813-.253-2.4-.76-.587-.533-.88-1.24-.88-2.12 0-.88.293-1.573.88-2.08.587-.533 1.387-.8 2.4-.8s1.813.267 2.4.8c.587.507.88 1.2.88 2.08 0 .88-.293 1.587-.88 2.12-.587.507-1.387.76-2.4.76ZM297.506 191c-2.053 0-3.693-.587-4.92-1.76-1.2-1.2-1.8-2.813-1.8-4.84v-10.88h-5.96V169h5.96v-6.2h5.04v6.2h8.44v4.52h-8.44v10.76c0 .64.174 1.173.52 1.6.374.4.88.6 1.52.6h6V191h-6.36Zm15.345 7.2 3.12-8.4-8.48-20.8h5.44l4.32 11.24c.24.613.466 1.36.68 2.24.213.853.373 1.56.48 2.12.133-.56.306-1.267.52-2.12.24-.88.466-1.627.68-2.24l4.12-11.24h5.2l-10.84 29.2h-5.24Z"/>
   <rect width="474.675" height="224" x="744.707" y="435" fill="#E4CCFF" rx="32"/>
   <path fill="#000" fill-opacity=".8" d="M834.426 561v-29.2h8.68c1.973 0 3.68.387 5.12 1.16 1.467.747 2.6 1.8 3.4 3.16.8 1.36 1.2 2.96 1.2 4.8v10.92c0 1.84-.4 3.453-1.2 4.84-.8 1.36-1.933 2.427-3.4 3.2-1.44.747-3.147 1.12-5.12 1.12h-8.68Zm5-4.48h3.68c1.44 0 2.587-.413 3.44-1.24.853-.853 1.28-2 1.28-3.44v-10.92c0-1.413-.427-2.533-1.28-3.36-.853-.853-2-1.28-3.44-1.28h-3.68v20.24Zm27.144 4.88c-1.866 0-3.493-.36-4.88-1.08-1.386-.72-2.466-1.72-3.24-3-.746-1.307-1.12-2.827-1.12-4.56v-5.52c0-1.733.374-3.24 1.12-4.52.774-1.307 1.854-2.32 3.24-3.04 1.387-.72 3.014-1.08 4.88-1.08 1.84 0 3.44.36 4.8 1.08 1.387.72 2.454 1.733 3.2 3.04.774 1.28 1.16 2.787 1.16 4.52v3.96h-13.56v1.56c0 3.12 1.48 4.68 4.44 4.68 2.294 0 3.64-.76 4.04-2.28h4.92c-.373 1.893-1.386 3.413-3.04 4.56-1.626 1.12-3.613 1.68-5.96 1.68Zm-4.4-14.16v.84l8.72-.04v-.84c0-1.52-.36-2.68-1.08-3.48-.72-.827-1.8-1.24-3.24-1.24-1.466 0-2.573.413-3.32 1.24-.72.827-1.08 2-1.08 3.52Zm26.625 14.12c-1.68 0-3.16-.253-4.44-.76-1.28-.533-2.28-1.28-3-2.24-.694-.96-1.04-2.093-1.04-3.4h5.04c0 .773.306 1.373.92 1.8.64.4 1.493.6 2.56.6h1.72c1.253 0 2.186-.227 2.8-.68.613-.453.92-1.08.92-1.88 0-1.52-1.134-2.453-3.4-2.8l-3.08-.4c-4.614-.667-6.92-2.867-6.92-6.6 0-2.08.693-3.653 2.08-4.72 1.413-1.093 3.453-1.64 6.12-1.64h1.52c2.48 0 4.466.56 5.96 1.68 1.52 1.093 2.28 2.547 2.28 4.36h-5.04c0-.64-.28-1.133-.84-1.48-.56-.373-1.36-.56-2.4-.56h-1.52c-2.187 0-3.28.787-3.28 2.36 0 1.36.973 2.187 2.92 2.48l3.12.48c2.48.347 4.32 1.067 5.52 2.16 1.226 1.093 1.84 2.613 1.84 4.56 0 2.107-.734 3.747-2.2 4.92-1.44 1.173-3.574 1.76-6.4 1.76h-1.76Zm14.984-.36v-4.52h7.52v-12.96h-6.72V539h11.72v17.48h6.76V561h-19.28Zm9.68-25.68c-1.013 0-1.813-.253-2.4-.76-.587-.533-.88-1.24-.88-2.12 0-.88.293-1.573.88-2.08.587-.533 1.387-.8 2.4-.8s1.813.267 2.4.8c.587.507.88 1.2.88 2.08 0 .88-.293 1.587-.88 2.12-.587.507-1.387.76-2.4.76Zm16.464 32.88v-4.16h6.52c2.24 0 3.36-1.053 3.36-3.16v-1.64l.08-4.12h-.08c-.213 1.44-.826 2.573-1.84 3.4-1.013.8-2.32 1.2-3.92 1.2-2.24 0-4.026-.76-5.36-2.28-1.306-1.52-1.96-3.573-1.96-6.16V547c0-2.56.654-4.6 1.96-6.12 1.334-1.52 3.12-2.28 5.36-2.28 1.6 0 2.907.413 3.92 1.24 1.014.8 1.627 1.92 1.84 3.36h.08l-.12-4.2h5v22c0 2.24-.733 4-2.2 5.28-1.466 1.28-3.48 1.92-6.04 1.92h-6.6Zm5.8-12.8c1.28 0 2.267-.373 2.96-1.12.72-.773 1.08-1.84 1.08-3.2v-3.84c0-1.36-.36-2.413-1.08-3.16-.693-.773-1.68-1.16-2.96-1.16s-2.266.373-2.96 1.12c-.693.747-1.04 1.813-1.04 3.2v3.84c0 1.387.347 2.453 1.04 3.2.694.747 1.68 1.12 2.96 1.12Zm14.305 5.6v-22h4.88v4.2h.08c.24-1.44.866-2.56 1.88-3.36 1.013-.827 2.333-1.24 3.96-1.24 2.16 0 3.88.72 5.16 2.16 1.306 1.44 1.96 3.373 1.96 5.8V561h-5v-13.92c0-1.333-.36-2.36-1.08-3.08-.694-.72-1.64-1.08-2.84-1.08-1.254 0-2.24.373-2.96 1.12-.694.747-1.04 1.813-1.04 3.2V561h-5Zm54.292.36c-1.68 0-3.16-.253-4.443-.76-1.28-.533-2.28-1.28-3-2.24-.694-.96-1.04-2.093-1.04-3.4h5.043c0 .773.3 1.373.92 1.8.64.4 1.49.6 2.56.6h1.72c1.25 0 2.18-.227 2.8-.68.61-.453.92-1.08.92-1.88 0-1.52-1.14-2.453-3.4-2.8l-3.08-.4c-4.617-.667-6.923-2.867-6.923-6.6 0-2.08.693-3.653 2.08-4.72 1.413-1.093 3.453-1.64 6.123-1.64h1.52c2.48 0 4.46.56 5.96 1.68 1.52 1.093 2.28 2.547 2.28 4.36h-5.04c0-.64-.28-1.133-.84-1.48-.56-.373-1.36-.56-2.4-.56h-1.52c-2.19 0-3.28.787-3.28 2.36 0 1.36.97 2.187 2.92 2.48l3.12.48c2.48.347 4.32 1.067 5.52 2.16 1.22 1.093 1.84 2.613 1.84 4.56 0 2.107-.74 3.747-2.2 4.92-1.44 1.173-3.58 1.76-6.4 1.76h-1.76Zm18.58 6.84 3.12-8.4-8.48-20.8h5.44l4.32 11.24c.24.613.47 1.36.68 2.24.21.853.37 1.56.48 2.12.13-.56.31-1.267.52-2.12.24-.88.47-1.627.68-2.24l4.12-11.24h5.2l-10.84 29.2h-5.24Zm27.63-6.84c-1.68 0-3.16-.253-4.44-.76-1.28-.533-2.28-1.28-3-2.24-.7-.96-1.04-2.093-1.04-3.4h5.04c0 .773.3 1.373.92 1.8.64.4 1.49.6 2.56.6h1.72c1.25 0 2.18-.227 2.8-.68.61-.453.92-1.08.92-1.88 0-1.52-1.14-2.453-3.4-2.8l-3.08-.4c-4.62-.667-6.92-2.867-6.92-6.6 0-2.08.69-3.653 2.08-4.72 1.41-1.093 3.45-1.64 6.12-1.64h1.52c2.48 0 4.46.56 5.96 1.68 1.52 1.093 2.28 2.547 2.28 4.36h-5.04c0-.64-.28-1.133-.84-1.48-.56-.373-1.36-.56-2.4-.56h-1.52c-2.19 0-3.28.787-3.28 2.36 0 1.36.97 2.187 2.92 2.48l3.12.48c2.48.347 4.32 1.067 5.52 2.16 1.22 1.093 1.84 2.613 1.84 4.56 0 2.107-.74 3.747-2.2 4.92-1.44 1.173-3.58 1.76-6.4 1.76h-1.76Zm26.34-.36c-2.05 0-3.69-.587-4.92-1.76-1.2-1.2-1.8-2.813-1.8-4.84v-10.88h-5.96V539h5.96v-6.2h5.04v6.2h8.44v4.52h-8.44v10.76c0 .64.17 1.173.52 1.6.37.4.88.6 1.52.6h6V561h-6.36Zm20.74.4c-1.86 0-3.49-.36-4.88-1.08-1.38-.72-2.46-1.72-3.24-3-.74-1.307-1.12-2.827-1.12-4.56v-5.52c0-1.733.38-3.24 1.12-4.52.78-1.307 1.86-2.32 3.24-3.04 1.39-.72 3.02-1.08 4.88-1.08 1.84 0 3.44.36 4.8 1.08 1.39.72 2.46 1.733 3.2 3.04.78 1.28 1.16 2.787 1.16 4.52v3.96h-13.56v1.56c0 3.12 1.48 4.68 4.44 4.68 2.3 0 3.64-.76 4.04-2.28h4.92c-.37 1.893-1.38 3.413-3.04 4.56-1.62 1.12-3.61 1.68-5.96 1.68Zm-4.4-14.16v.84l8.72-.04v-.84c0-1.52-.36-2.68-1.08-3.48-.72-.827-1.8-1.24-3.24-1.24-1.46 0-2.57.413-3.32 1.24-.72.827-1.08 2-1.08 3.52Zm17.43 13.76v-22h4.08v2.96h.2c.13-1.013.53-1.827 1.2-2.44.67-.613 1.49-.92 2.48-.92.91 0 1.69.307 2.36.92.67.613 1.12 1.427 1.36 2.44h.12c.16-1.013.57-1.827 1.24-2.44.69-.613 1.55-.92 2.56-.92 1.31 0 2.37.533 3.2 1.6.85 1.04 1.28 2.387 1.28 4.04V561h-4.32v-16.4c0-1.547-.64-2.32-1.92-2.32-1.28 0-1.92.773-1.92 2.32V561h-3.76v-16.4c0-1.547-.64-2.32-1.92-2.32-1.25 0-1.88.773-1.88 2.32V561h-4.36Z"/>
   <path fill="#9747FF" d="M478.675 143a4 4 0 0 0 0 8v-8Zm261.355 4-40-23.094v46.188l40-23.094Zm-261.355 4H704.03v-8H478.675v8Zm506.692 112a4 4 0 1 0-8 0h8ZM238.692 431l23.094-40h-46.188l23.094 40Zm738.675-168v36h8v-36h-8Zm-20 56H262.692v8h694.675v-8Zm-722.675 28v48h8v-48h-8Zm28-28c-15.464 0-28 12.536-28 28h8c0-11.046 8.955-20 20-20v-8Zm714.675-20c0 11.046-8.954 20-20 20v8c15.464 0 28-12.536 28-28h-8ZM480.03 543a4 4 0 0 0 0 8v-8Zm260.677 4-40-23.094v46.188l40-23.094Zm-260.677 4h224.677v-8H480.03v8Z"/>
   <g clip-path="url(#a)">
      <path fill="#C7B9FF" d="M438.205 37.179a30.352 30.352 0 0 0-16.822-5.007 30.328 30.328 0 0 0-16.827 5.012c.102-.324.208-.633.314-.966 3.404-9.908 9.522-16.533 16.518-16.533s13.104 6.62 16.503 16.538c.106.313.213.642.314.956Z"/>
      <path fill="#fff" d="M440.725 54.247a59.673 59.673 0 0 1-.903 10.463c-2.477 14.002-9.796 24.108-18.439 24.108s-15.963-10.14-18.44-24.108a60.258 60.258 0 0 1-.903-10.463c-.017-4.7.534-9.386 1.642-13.954.261-1.062.555-2.096.869-3.105a30.318 30.318 0 0 1 16.832-5.016 30.369 30.369 0 0 1 16.822 5.007c.319 1 .608 2.037.874 3.1a58.218 58.218 0 0 1 1.646 13.968Z"/>
      <path fill="#C7B9FF" d="M480.878 37.179a30.76 30.76 0 0 0-33.649 0c.101-.324.212-.633.319-.966 3.38-9.922 9.526-16.547 16.513-16.547 6.986 0 13.099 6.64 16.479 16.557.125.314.236.642.338.956Z"/>
      <path fill="#fff" d="M483.399 54.247a60.257 60.257 0 0 1-.903 10.463c-2.482 14.002-9.802 24.108-18.44 24.108-8.638 0-15.962-10.14-18.444-24.108a60.16 60.16 0 0 1-.903-10.463 58.31 58.31 0 0 1 1.646-13.954 46.82 46.82 0 0 1 .869-3.105 30.749 30.749 0 0 1 33.649 0c.324 1 .613 2.038.874 3.1a58.194 58.194 0 0 1 1.652 13.959Z"/>
      <path fill="#000" d="M486.595 44.3a46.701 46.701 0 0 0-.884-3.147 54.887 54.887 0 0 0-.323-.966c-2.241-6.543-5.529-11.458-9.372-14.282-3.39-4.438-7.547-6.905-11.96-6.905-7.098 0-13.519 6.359-17.165 17.01v.053c-.101.305-.207.609-.304.918a49.277 49.277 0 0 0-.879 3.148 55.767 55.767 0 0 0-1.236 6.649 51.975 51.975 0 0 0-.545-2.477 47.236 47.236 0 0 0-.889-3.148c-.101-.324-.212-.648-.318-.966-2.255-6.543-5.524-11.458-9.372-14.282-3.385-4.438-7.542-6.905-11.965-6.905-7.093 0-13.51 6.359-17.165 17.01v.053c-.106.305-.207.609-.304.918-.367 1.115-.628 2.144-.898 3.148a58.9 58.9 0 0 0-1.661 14.118c-.004 3.548.301 7.09.912 10.584 1.806 10.178 6.012 18.039 11.342 21.95 3.38 4.389 7.518 6.909 11.955 6.909 8.817 0 16.499-9.918 19.116-24.678.183-1.023.333-2.057.483-3.104 1.902 9.656 6.001 17.111 11.144 20.877 3.379 4.385 7.508 6.905 11.95 6.905 8.812 0 16.493-9.918 19.115-24.678a60.99 60.99 0 0 0 .894-10.579 58.413 58.413 0 0 0-1.671-14.132Zm-65.212-23.929c6.2 0 12.105 5.794 15.552 15.22a31.114 31.114 0 0 0-15.552-4.105 31.066 31.066 0 0 0-15.562 4.114c3.452-9.42 9.362-15.229 15.562-15.229Zm-17.546 45.387a10.755 10.755 0 0 0 17.719-.927 10.756 10.756 0 0 0-7.248-16.195 10.757 10.757 0 0 0-11.577 5.823v-.212a57.398 57.398 0 0 1 1.618-13.79 51.22 51.22 0 0 1 .787-2.83 29.586 29.586 0 0 1 16.247-4.77 29.638 29.638 0 0 1 16.238 4.761c.28.889.545 1.835.792 2.825a57.216 57.216 0 0 1 1.627 13.804 59.559 59.559 0 0 1-.889 10.342c-2.501 14.085-9.656 23.543-17.768 23.543-7.904 0-14.871-8.946-17.546-22.384v.01Zm60.219-45.387c6.195 0 12.105 5.794 15.552 15.22a31.503 31.503 0 0 0-31.114 0c3.453-9.411 9.353-15.22 15.562-15.22Zm-17.551 45.387a10.765 10.765 0 0 0 17.708-.868 10.76 10.76 0 0 0-7.13-16.232 10.761 10.761 0 0 0-11.621 5.7l-.058-.743a57.28 57.28 0 0 1 1.618-13.148c.217-.908.482-1.835.782-2.83a30.07 30.07 0 0 1 32.49 0c.28.889.545 1.835.787 2.825a57.162 57.162 0 0 1 1.632 13.785 59.757 59.757 0 0 1-.893 10.342c-2.497 14.085-9.657 23.543-17.764 23.543-7.904 0-14.871-8.946-17.551-22.384v.01Z"/>
      <path fill="#fff" d="M458.793 59.495a4.027 4.027 0 1 0 0-8.054 4.027 4.027 0 0 0 0 8.054Zm-42.668 0a4.027 4.027 0 1 0 0-8.054 4.027 4.027 0 0 0 0 8.054Z"/>
   </g>
   <g clip-path="url(#b)">
      <path fill="#000" d="M1235.25 459.339v5.553h-2.56a7.832 7.832 0 0 0-2.94.396l-.83.383-.06.147a13.938 13.938 0 0 0-.49 3.517c-.04.779-.04 1.57 0 2.323V491.7H1125.9v-28.837a50.937 50.937 0 0 1 12.05-32.055 2.57 2.57 0 0 0-.08-.268l-.07-.217-.77-.345a8.067 8.067 0 0 0-3.11-.446h-.56s.49-5.47.74-5.47c1 .059 2-.078 2.95-.403l.84-.383.04-.14c.51-1.659 6.01-5.853 6.01-5.853 0 2.215 0 4.321.47 5.859l.07.217.76.364a51.208 51.208 0 0 1 48.02-8.561 51.19 51.19 0 0 1 33.39 35.541h3.06v8.209h.05c1 .36 2.05.515 3.1.453h.57l1.82-.026Z"/>
      <path fill="#F24E1E" d="M1221.91 458.216h-10.28c0-10.618-4.22-20.8-11.73-28.308a40.013 40.013 0 0 0-28.3-11.725c-10.62 0-20.8 4.217-28.31 11.725a40.028 40.028 0 0 0-11.73 28.308h-10.31c0-13.348 5.3-26.149 14.74-35.588a50.335 50.335 0 0 1 35.59-14.741c13.35 0 26.15 5.303 35.58 14.741a50.332 50.332 0 0 1 14.75 35.588Z"/>
      <path fill="#FFC700" d="M1211.63 458.216h-10.32c0-7.887-3.13-15.451-8.71-21.028a29.72 29.72 0 0 0-21.02-8.71c-7.89 0-15.45 3.133-21.03 8.71a29.725 29.725 0 0 0-8.71 21.028h-10.3c0-10.618 4.22-20.8 11.73-28.308a40.036 40.036 0 0 1 28.31-11.725c10.61 0 20.8 4.217 28.3 11.725a40.028 40.028 0 0 1 11.73 28.308h.02Z"/>
      <path fill="#A259FF" d="M1201.31 458.216h-10.3c.05-2.583-.42-5.149-1.37-7.548a19.508 19.508 0 0 0-4.19-6.427 19.457 19.457 0 0 0-13.88-5.82 19.443 19.443 0 0 0-18.06 12.247 19.483 19.483 0 0 0-1.37 7.548h-10.3c0-7.887 3.13-15.451 8.71-21.028a29.743 29.743 0 0 1 21.03-8.71 29.72 29.72 0 0 1 21.02 8.71 29.725 29.725 0 0 1 8.71 21.028Z"/>
      <path fill="#C7B9FF" d="M1221.92 458.216h-100.68v27.05h100.68v-27.05Z"/>
      <path fill="#fff" d="M1133.68 431.759v-.9c.03-2.368 0-4.468-.51-6.134l-.18-.574-1.15-.556a8.565 8.565 0 0 0-3.46-.523h-1.49v-3.715h1.67a8.41 8.41 0 0 0 3.31-.485l1.19-.536.18-.53c.48-2.001.67-4.064.56-6.121v-.9h3.72v.9c0 2.368 0 4.468.52 6.134l.18.574 1.14.556c1.11.411 2.29.589 3.47.523h1.49v3.741h-1.67a8.348 8.348 0 0 0-3.31.485l-1.22.536-.17.53c-.55 1.748-.59 3.976-.57 6.121v.9l-3.7-.026Z"/>
      <path fill="#000" d="M1129.14 480.071v-16.666h7.02l2.07 6.428c.45 1.57.57 3.593.57 7.021h1.48c0-3.46.16-5.483.63-7.021l2.1-6.428h6.71v16.666h-4.36v-4.832c.09-3.205.76-6.367 1.97-9.338l-1.52-.523-4.58 14.68h-3.64l-4.55-14.68-1.52.497a26.972 26.972 0 0 1 1.95 9.338v4.832l-4.33.026Zm35.44-.001-1.13-3.497h-6.23l-1.17 3.472h-4.6l6.03-16.666h5.95l6.03 16.666-4.88.025Zm-6.25-6.906h4.03l-.79-2.476a16.935 16.935 0 0 1-.43-4.966h-1.5c.1 1.68-.06 3.365-.47 4.998l-.84 2.444Zm11.53-1.334c0-4.972 3.57-8.833 9.07-8.833 4.91 0 7.31 2.502 8.15 5.023l-4.38 1.532c-.53-1.596-1.6-2.975-3.83-2.975-2.56 0-4.31 1.953-4.31 5.285 0 3.453 1.86 5.241 4.29 5.241 2.28 0 3.47-1.277 3.71-2.554h-4.61v-3.312h9.01v8.808h-4a7.481 7.481 0 0 1 1.19-3.357h-1.69c-.43 1.168-1.62 3.766-5.11 3.766-3.92.025-7.49-2.93-7.49-8.624Zm20.03 8.241v-16.666h4.51v16.666h-4.51Zm7.06-8.285c0-5.049 3.59-8.789 8.93-8.789 4.17 0 7.17 2.189 8.12 5.336l-4.29 1.474c-.59-1.998-1.78-3.191-3.88-3.191-2.55 0-4.07 1.876-4.07 5.163 0 3.287 1.55 5.107 4.07 5.107 2.05 0 3.29-1.22 3.95-3.192l4.27 1.551c-1.14 3.192-4 5.285-8.19 5.285-5.42-.051-8.91-3.574-8.91-8.744Z"/>
      <path fill="#fff" d="M1185.67 428.287v-.9c.08-1.285-.02-2.576-.31-3.83l-.07-.236-.6-.294a5.294 5.294 0 0 0-2.08-.3h-1.25v-3l.91.038h.48c.68.041 1.35-.054 1.98-.28l.64-.281.07-.204c.3-1.243.41-2.523.34-3.798v-.9h3.03v.9c-.08 1.285.03 2.575.31 3.829l.08.237.6.293c.66.238 1.37.34 2.07.3h1.27v3.038h-1.38a5.19 5.19 0 0 0-1.99.275l-.63.287-.07.204a12.995 12.995 0 0 0-.35 3.83v.9l-3.05-.108Zm32.52 38.711v-.9c0-2.374 0-4.468-.52-6.14l-.17-.574-1.15-.549a9.199 9.199 0 0 0-3.72-.639h-1.23v-3.606h1.67a8.406 8.406 0 0 0 3.31-.479l1.19-.542.17-.523c.5-2.001.69-4.065.57-6.122v-.9h3.72v.9c0 2.368 0 4.468.51 6.134l.18.575 1.15.555c1.1.41 2.28.589 3.46.523h1.49v3.734h-1.67c-1.12-.065-2.25.1-3.31.485l-1.19.537-.17.51c-.55 1.749-.59 3.977-.56 6.115v.906h-3.73Z"/>
      <path fill="#000" d="M1227.89 453.837h-.57a7.877 7.877 0 0 1-3.1-.447l-.77-.37-.06-.223c-.48-1.532-.5-3.645-.48-5.853v-1.794h-1.82a51.178 51.178 0 0 0-33.39-35.536 51.172 51.172 0 0 0-25.08-1.811 51.211 51.211 0 0 0-22.92 10.354l-.83-.581c-.48-1.538-.5-3.644-.47-5.859v-1.787h-5.51v1.793c.1 1.964-.07 3.933-.52 5.847l-.05.134-.85.389c-.94.322-1.94.458-2.93.403h-.73l-1.81-.039v5.547l1.82-.038h.56a7.93 7.93 0 0 1 3.11.453l.77.376.07.211c0 .089.05.172.07.274a51.018 51.018 0 0 0-12.05 32.042v28.825h102.46v-22.391c.02-1.188.19-2.37.5-3.517l.06-.153.83-.37c.94-.33 1.95-.469 2.95-.409h2.56v-5.553l-1.82.083Zm-95.66-31.039a9.433 9.433 0 0 0-3.83-.639h-.6v-1.915h.78c1.25.076 2.5-.114 3.67-.555l1.51-.683.3-.893c.53-2.084.75-4.236.64-6.383h1.91c-.03 2.476 0 4.64.56 6.414l.3.939.72.357.76.364c.36.164.73.288 1.12.37.9.186 1.82.269 2.73.249h.6v1.915l-.77-.019a8.953 8.953 0 0 0-3.68.562l-1.54.695-.31.9a21.768 21.768 0 0 0-.6 6.383h-1.91c.07-1.706-.02-3.415-.25-5.106-.07-.433-.17-.86-.3-1.277l-.28-.778v-.186l-1.53-.714Zm.53 4.85c.05.996.05 2.081.04 3.192v1.8h5.52v-1.8c0-1.972 0-4.194.53-5.84l.02-.128.83-.383a7.877 7.877 0 0 1 2.95-.396h.75l1.8.032v-5.553l-1.81.045h-1.33a49.435 49.435 0 0 1 45.63-7.133 49.357 49.357 0 0 1 19.97 12.918 49.43 49.43 0 0 1 11.63 20.755h-1.87v1.806c.1 1.959-.07 3.923-.52 5.834l-.05.14-.84.39c-.95.319-1.95.453-2.94.395h-.8a40.887 40.887 0 0 0-5.93-17.116 40.975 40.975 0 0 0-12.73-12.883h.38v-4.825l-1.82.038h-.33a4.818 4.818 0 0 1-1.72-.223l-.22-.115c-.22-1.123-.3-2.267-.24-3.409v-1.793h-4.84v1.8c.06 1.121-.02 2.245-.25 3.344l-.27.121c-.5.157-1.02.222-1.55.192a40.908 40.908 0 0 0-18.49-.893 40.842 40.842 0 0 0-16.98 7.346 40.95 40.95 0 0 0-12.02 14.081 40.92 40.92 0 0 0-4.58 17.935h-8.53a49.185 49.185 0 0 1 10.61-29.674Zm38.82 10.213a20.328 20.328 0 0 0-14.05 5.658 20.366 20.366 0 0 0-6.25 13.803h-8.52a28.842 28.842 0 0 1 8.77-19.773 28.849 28.849 0 0 1 40.11 0 28.798 28.798 0 0 1 8.77 19.773h-8.51a20.345 20.345 0 0 0-6.27-13.787 20.34 20.34 0 0 0-14.05-5.648v-.026Zm18.51 19.436h-37.04c.22-4.769 2.27-9.27 5.72-12.568a18.547 18.547 0 0 1 25.63 0 18.518 18.518 0 0 1 5.71 12.568h-.02Zm-18.51-29.725a30.612 30.612 0 0 0-21.33 8.669 30.607 30.607 0 0 0-9.27 21.081h-8.5a39.214 39.214 0 0 1 11.78-27.087 39.2 39.2 0 0 1 27.35-11.165c2.99-.003 5.96.34 8.87 1.021v3.581l1.79-.032h.35c.58-.032 1.16.046 1.71.23l.22.108c.22 1.122.3 2.267.24 3.409v1.8h4.82v-1.807c-.05-1.121.04-2.244.26-3.344l.26-.121.2-.071a39.23 39.23 0 0 1 13.85 12.67 39.083 39.083 0 0 1 6.38 17.655v3.191h-8.37a30.628 30.628 0 0 0-9.27-21.089 30.631 30.631 0 0 0-21.34-8.674v-.025Zm15.06-12.434h1.24c-.09 1.376.03 2.757.34 4.098l.2.606.94.447c.79.304 1.63.438 2.47.396h.37v1.251h-.49c-.37-.001-.75.018-1.12.057-.42.033-.84.137-1.23.307l-.98.446v.103l-.16.466a13.11 13.11 0 0 0-.39 4.091h-1.23c.09-1.374-.03-2.753-.36-4.091l-.18-.6-.95-.454a5.899 5.899 0 0 0-2.46-.402h-.38v-1.225h.49c.8.047 1.6-.075 2.35-.358l.86-.383.13-.063.18-.569c.33-1.339.45-2.721.36-4.097v-.026Zm34.4 69.209h-98.9v-25.244h91.49c.82.04 1.62.221 2.37.536l.77.377.08.21c.47 1.532.49 3.645.47 5.853v1.8h3.75l-.03 16.468Zm6.88-26.808h-.77a9.114 9.114 0 0 0-3.69.568l-.64.294-.89.408-.29.894a15.546 15.546 0 0 0-.59 4.008c-.03.76-.03 1.571 0 2.4h-1.91c0-2.47 0-4.634-.55-6.382l-.19-.588-.11-.364-1.55-.753a9.537 9.537 0 0 0-3.08-.702c-.34 0-.68-.038-1.04-.038h-.34v-1.775h.78c1.25.072 2.5-.117 3.68-.555l1.57-.721.29-.906c.56-1.768.64-3.939.64-6.383h1.91c0 2.47 0 4.64.56 6.383l.3.944.69.338.78.383c1.23.478 2.55.695 3.86.639h.6l-.02 1.908Z"/>
      <path fill="#F5F5F5" d="M1190.11 457.322h-37.06c.22-4.768 2.27-9.27 5.72-12.568a18.552 18.552 0 0 1 25.63 0 18.52 18.52 0 0 1 5.71 12.568Z"/>
   </g>
   <g clip-path="url(#c)">
      <path fill="#F24E1E" d="M1210.13 64.661h-20.09c-1.28.002-2.5.51-3.4 1.412a4.833 4.833 0 0 0-1.42 3.403v14.44h-54.19a9.768 9.768 0 0 1-4.89-1.301 9.79 9.79 0 0 1-3.57-3.571 9.732 9.732 0 0 1-1.31-4.882c0-1.714.45-3.397 1.31-4.88l36.71-63.513a9.695 9.695 0 0 1 3.56-3.565 9.736 9.736 0 0 1 4.87-1.305 9.8 9.8 0 0 1 4.88 1.305 9.695 9.695 0 0 1 3.56 3.565l33.98 58.892Z"/>
      <path fill="#000" d="M1164.93 56.99c0-4.257 1.64-6.008 4.06-8.023 2.05-1.77 3.86-3.352 3.86-6.002 0-2.982-2.05-4.796-5.02-4.796-3.49 0-5.5 2.279-5.54 6.793l-4.47-.697c.05-6.466 3.91-10.101 10.01-10.101 5.45 0 9.73 3.308 9.73 8.657 0 3.585-1.89 6.008-5.49 8.983-2.24 1.884-2.84 3.026-2.84 5.217l-4.3-.031Zm-.79 10.333v-6.052h5.9v6.052h-5.9Z"/>
      <path fill="#FFC701" d="M1222.26 64.655h-32.22a4.819 4.819 0 0 0-4.82 4.815v32.224a4.819 4.819 0 0 0 4.82 4.815h32.22c2.66 0 4.82-2.156 4.82-4.815V69.47c0-2.66-2.16-4.815-4.82-4.815Z"/>
      <path fill="#000" d="M1227.96 69.156a5.706 5.706 0 0 0-1.77-3.834 5.726 5.726 0 0 0-3.93-1.565h-9.35l-12.29-21.3-18.34-31.753a10.466 10.466 0 0 0-4.8-4.357l-.59-1.023a10.582 10.582 0 0 0-3.89-3.896 10.666 10.666 0 0 0-5.32-1.426c-1.87 0-3.71.492-5.32 1.426a10.684 10.684 0 0 0-3.9 3.896l-18.33 31.753-18.34 31.759a10.667 10.667 0 0 0-1.36 4.216c-.16 1.485 0 2.987.47 4.407a10.613 10.613 0 0 0 5.8 6.444 10.553 10.553 0 0 0 9.69 6.277h47.94v11.52c0 1.459.56 2.863 1.56 3.922a5.728 5.728 0 0 0 3.83 1.772 5.717 5.717 0 0 0 1.78 3.833 5.698 5.698 0 0 0 3.92 1.566h32.22a5.727 5.727 0 0 0 5.72-5.713V74.85a5.68 5.68 0 0 0-1.57-3.922 5.684 5.684 0 0 0-3.83-1.772Zm-104.61 9.417a8.805 8.805 0 0 1 0-8.846l18.35-31.753 18.32-31.753a8.92 8.92 0 0 1 3.24-3.24 8.824 8.824 0 0 1 4.42-1.186 8.818 8.818 0 0 1 7.66 4.426l18.34 31.753 14.89 25.783h-5.88L1170.94 8.79a3.84 3.84 0 0 0-1.38-1.366 3.77 3.77 0 0 0-5.13 1.366l-36.67 63.487c-.33.572-.5 1.22-.5 1.88a3.773 3.773 0 0 0 1.87 3.26c.57.331 1.22.507 1.88.51h53.32v5.091h-53.3a8.788 8.788 0 0 1-7.68-4.438v-.006Zm60.98-9.11v6.649h-53.3a1.97 1.97 0 0 1-.98-.268 1.975 1.975 0 0 1-.71-2.676l36.65-63.513c.17-.295.42-.54.72-.71a1.966 1.966 0 0 1 2.67.71l31.24 54.102h-10.58a5.703 5.703 0 0 0-5.71 5.713v-.006Zm1.79 32.237V69.47c0-1.038.42-2.034 1.15-2.768a3.918 3.918 0 0 1 2.77-1.15h32.22c1.04.002 2.04.415 2.77 1.15.73.734 1.15 1.73 1.15 2.768v32.23c0 1.038-.42 2.034-1.15 2.768a3.916 3.916 0 0 1-2.77 1.149h-32.22a3.916 3.916 0 0 1-2.77-1.149 3.935 3.935 0 0 1-1.15-2.768Z"/>
      <path fill="#000" d="M1203.76 97.933V93.25h4.78v4.683h-4.78Zm1.48-7.665-1.26-9.002v-8.004h4.3v8.004l-1.26 8.97-1.78.032Z"/>
   </g>
   <g clip-path="url(#d)">
      <path fill="#FFC701" d="m444.695 409.476 11.159 22.611 24.958 3.64a3.222 3.222 0 0 1 2.659 3.955 3.214 3.214 0 0 1-.876 1.533l-18.059 17.603 4.26 24.854a3.22 3.22 0 0 1-4.666 3.393l-22.323-11.714-22.318 11.714a3.218 3.218 0 0 1-4.479-1.636 3.218 3.218 0 0 1-.192-1.757l4.265-24.854-18.059-17.603a3.213 3.213 0 0 1-.807-3.303 3.219 3.219 0 0 1 2.605-2.185l24.958-3.625 11.144-22.626a3.22 3.22 0 0 1 2.886-1.797 3.22 3.22 0 0 1 2.885 1.797Z"/>
      <path fill="#000" d="M465.631 488.135a3.845 3.845 0 0 1-1.822-.455l-22.002-11.565-21.996 11.565a3.91 3.91 0 0 1-5.442-1.987 3.913 3.913 0 0 1-.234-2.134l4.2-24.498-17.796-17.335a3.908 3.908 0 0 1-1.002-4.02 3.914 3.914 0 0 1 3.171-2.667l24.592-3.571 11.001-22.288a3.91 3.91 0 0 1 3.509-2.182 3.91 3.91 0 0 1 3.509 2.182l10.996 22.288 24.596 3.571a3.915 3.915 0 0 1 2.15 6.677l-17.796 17.335 4.2 24.493a3.907 3.907 0 0 1-.082 1.687 3.913 3.913 0 0 1-2.123 2.525 3.915 3.915 0 0 1-1.648.37l.019.009Zm-23.824-13.591.327.169 22.318 11.733a2.523 2.523 0 0 0 3.51-1.278 2.52 2.52 0 0 0 .151-1.376l-4.324-25.216 18.326-17.831a2.523 2.523 0 0 0-.136-3.734 2.524 2.524 0 0 0-1.261-.57l-25.325-3.685-11.322-22.957a2.515 2.515 0 0 0-2.261-1.406 2.515 2.515 0 0 0-2.261 1.406l-11.323 22.957-25.32 3.66a2.524 2.524 0 0 0-1.396 4.304l18.326 17.856-4.329 25.196a2.514 2.514 0 0 0 3.66 2.674l22.64-11.902Z"/>
      <path fill="#000" d="M488.316 441.949a3.894 3.894 0 0 0-3.16-2.665l-.906-.129c.024-.49-.044-.98-.199-1.446a3.894 3.894 0 0 0-3.16-2.665l-24.576-3.576-10.996-22.288a3.91 3.91 0 0 0-3.509-2.182 3.912 3.912 0 0 0-3.51 2.182l-11 22.288-24.592 3.571a3.917 3.917 0 0 0-3.239 4.812 3.92 3.92 0 0 0 1.07 1.865l17.796 17.335-4.2 24.498a3.896 3.896 0 0 0 .984 3.316 3.911 3.911 0 0 0 3.231 1.236 3.897 3.897 0 0 0 3.686 4.261 3.904 3.904 0 0 0 2.025-.447l21.996-11.566 21.991 11.566a3.962 3.962 0 0 0 1.828.455 3.926 3.926 0 0 0 3.772-2.894c.149-.55.177-1.126.081-1.687l-4.2-24.493 17.796-17.335a3.897 3.897 0 0 0 .991-4.012Zm-71.809 44.299a2.477 2.477 0 0 1-.99-2.476l4.324-25.216-18.327-17.831a2.531 2.531 0 0 1-.635-2.585 2.528 2.528 0 0 1 2.032-1.719l25.315-3.665 11.323-22.957a2.52 2.52 0 0 1 4.522 0l11.322 22.957 25.315 3.675a2.524 2.524 0 0 1 1.397 4.304l-18.326 17.856 4.334 25.181a2.52 2.52 0 0 1-2.306 2.939 2.531 2.531 0 0 1-1.355-.284l-22.318-11.714-.327-.169-22.64 11.902a2.472 2.472 0 0 1-2.66-.198Z"/>
   </g>
   <defs>
      <clipPath id="a">
         <path fill="#fff" d="M0 0h86.911v74.69H0z" transform="translate(401.355 19)"/>
      </clipPath>
      <clipPath id="b">
         <path fill="#fff" d="M0 0h114.891v84.7H0z" transform="translate(1120.35 407)"/>
      </clipPath>
      <clipPath id="c">
         <path fill="#fff" d="M0 0h113v112.787H0z" transform="translate(1120.35)"/>
      </clipPath>
      <clipPath id="d">
         <path fill="#fff" d="M0 0h89.154v85.38H0z" transform="translate(399.355 407)"/>
      </clipPath>
   </defs>
</svg>