<svg
	class="right-svg-graphic"
	width="475"
	height="622"
	viewBox="0 0 475 622"
	fill="none"
	xmlns="http://www.w3.org/2000/svg"
>
	<path
		d="M322.481 251.381C342.582 251.381 358.877 235.086 358.877 214.985C358.877 194.885 342.582 178.59 322.481 178.59C302.38 178.59 286.086 194.885 286.086 214.985C286.086 235.086 302.38 251.381 322.481 251.381Z"
		fill="#F9DFB8"
	/>
	<path
		d="M332.621 179.592C338.92 179.592 345.111 181.228 350.588 184.337C356.066 187.447 360.643 191.925 363.871 197.334C367.1 202.742 368.87 208.896 369.008 215.193C369.147 221.49 367.649 227.715 364.661 233.26C367.816 229.312 370.114 224.75 371.409 219.865C372.704 214.98 372.967 209.878 372.181 204.886C371.396 199.893 369.578 195.119 366.846 190.868C364.113 186.616 360.524 182.981 356.309 180.193C352.094 177.405 347.344 175.525 342.362 174.675C337.38 173.824 332.275 174.02 327.374 175.251C322.472 176.482 317.88 178.721 313.891 181.825C309.903 184.928 306.604 188.829 304.206 193.278C307.608 189.007 311.93 185.558 316.85 183.188C321.77 180.818 327.161 179.589 332.621 179.592Z"
		fill="#F9DFB8"
	/>
	<path
		d="M254.47 214.908C313.517 214.908 361.383 167.042 361.383 107.996C361.383 48.9496 313.517 1.08325 254.47 1.08325C195.424 1.08325 147.558 48.9496 147.558 107.996C147.558 167.042 195.424 214.908 254.47 214.908Z"
		fill="#F9DFB8"
	/>
	<path
		d="M170.562 41.6617C188.984 20.9438 214.734 8.19355 242.379 6.10203C270.024 4.01051 297.399 12.7413 318.729 30.4518C317.854 29.6207 316.99 28.7829 316.081 27.9753C294.887 9.15061 267.085 -0.486669 238.787 1.1825C210.489 2.85167 184.013 15.6906 165.179 36.8764C146.345 58.0622 136.696 85.8605 138.353 114.159C140.01 142.458 152.837 168.94 174.015 187.783C174.923 188.59 175.857 189.351 176.784 190.122C156.698 171.014 144.82 144.849 143.659 117.15C142.498 89.4506 152.144 62.3836 170.562 41.6617Z"
		fill="#F9DFB8"
	/>
	<path
		d="M219 202.5C220.5 211.5 220 228.5 219 237.5C218 246.5 286 240.5 284 234.5C282 228.5 280 213 280 206C280 199 217.5 193.5 219 202.5Z"
		fill="#E6CFC8"
	/>
	<path
		d="M253.564 214.002C291.594 214.002 322.423 183.173 322.423 145.143C322.423 107.114 291.594 76.2844 253.564 76.2844C215.535 76.2844 184.706 107.114 184.706 145.143C184.706 183.173 215.535 214.002 253.564 214.002Z"
		fill="#FFE6DE"
	/>
	<path
		d="M288.74 225.695L215.052 229.008C215.052 229.008 221.202 267.116 181.336 270.74C141.471 274.364 105.229 263.492 90.7327 290.673C76.2361 317.854 82.4844 414.639 82.4844 414.639C82.4844 414.639 109.666 512.491 131.41 526.988C153.155 541.485 343.423 521.552 343.423 521.552L423.052 421.008L420.355 343.468C418.946 302.977 381.978 272.577 342.161 280.07C341.379 280.217 340.592 280.376 339.799 280.546C339.799 280.546 331.052 274.008 307.052 262.008C292.375 254.67 288.74 225.695 288.74 225.695Z"
		fill="#CACACA"
	/>
	<path
		d="M128.786 268.928C128.786 268.928 146.3 300.706 139.052 346.008C131.803 391.31 162.216 487.122 162.216 487.122L183.961 481.686C183.961 481.686 169.464 387.458 173.088 365.713C176.712 343.968 177.712 279.801 159.592 268.928C141.471 258.056 128.786 268.928 128.786 268.928Z"
		fill="#2F2E41"
	/>
	<path
		d="M338.525 285.59L346.141 486.216L360.638 495.277C360.638 495.277 381.477 275.109 370.604 275.109H348.482C347.173 275.109 345.876 275.367 344.667 275.868C343.457 276.369 342.358 277.104 341.432 278.03C340.506 278.955 339.772 280.055 339.271 281.264C338.77 282.474 338.512 283.77 338.512 285.08C338.512 285.25 338.516 285.42 338.525 285.59Z"
		fill="#2F2E41"
	/>
	<path
		d="M172.182 482.592C177.186 482.592 181.243 478.536 181.243 473.532C181.243 468.528 177.186 464.471 172.182 464.471C167.178 464.471 163.122 468.528 163.122 473.532C163.122 478.536 167.178 482.592 172.182 482.592Z"
		fill="#6C63FF"
	/>
	<path
		d="M353.39 491.652C358.394 491.652 362.45 487.596 362.45 482.592C362.45 477.588 358.394 473.532 353.39 473.532C348.386 473.532 344.329 477.588 344.329 482.592C344.329 487.596 348.386 491.652 353.39 491.652Z"
		fill="#6C63FF"
	/>
	<path
		d="M194.672 59.069V127.928H210.619L230.914 106.183L228.196 127.928H298.685L294.336 106.183L303.034 127.928H314.269V59.069H194.672Z"
		fill="#F9DFB8"
	/>
	<path
		d="M183.8 140.613C186.802 140.613 189.236 136.151 189.236 130.647C189.236 125.142 186.802 120.68 183.8 120.68C180.797 120.68 178.363 125.142 178.363 130.647C178.363 136.151 180.797 140.613 183.8 140.613Z"
		fill="#FFE6DE"
	/>
	<path
		d="M323.329 140.613C326.332 140.613 328.766 136.151 328.766 130.647C328.766 125.142 326.332 120.68 323.329 120.68C320.327 120.68 317.893 125.142 317.893 130.647C317.893 136.151 320.327 140.613 323.329 140.613Z"
		fill="#FFE6DE"
	/>
	<path
		d="M474.152 602.446V608.516C474.155 610.182 473.846 611.834 473.242 613.386C472.973 614.078 472.649 614.747 472.272 615.386C471.08 617.387 469.389 619.043 467.364 620.193C465.339 621.343 463.05 621.947 460.722 621.946H14.1717C11.8432 621.947 9.55428 621.343 7.52949 620.193C5.50471 619.043 3.81352 617.387 2.62173 615.386C2.24472 614.747 1.92032 614.078 1.65173 613.386C1.047 611.834 0.738343 610.182 0.741727 608.516V602.446C0.741251 600.683 1.08807 598.937 1.76237 597.308C2.43668 595.679 3.42526 594.198 4.67169 592.951C5.91811 591.704 7.39797 590.715 9.02676 590.04C10.6556 589.364 12.4014 589.017 14.1646 589.016H39.9117V586.186C39.9116 586.113 39.9259 586.04 39.9539 585.972C39.9819 585.904 40.023 585.843 40.0748 585.791C40.1266 585.739 40.1882 585.697 40.256 585.669C40.3238 585.641 40.3965 585.626 40.4699 585.626H53.9017C54.05 585.626 54.1923 585.685 54.2973 585.789C54.4023 585.894 54.4615 586.036 54.4617 586.184V589.016H62.8517V586.186C62.8516 586.113 62.8659 586.04 62.8939 585.972C62.9219 585.904 62.963 585.843 63.0148 585.791C63.0666 585.739 63.1282 585.697 63.196 585.669C63.2638 585.641 63.3364 585.626 63.4099 585.626H76.8417C76.99 585.626 77.1323 585.685 77.2373 585.789C77.3423 585.894 77.4015 586.036 77.4017 586.184V589.016H85.8017V586.186C85.8016 586.113 85.8159 586.04 85.8439 585.972C85.8719 585.904 85.913 585.843 85.9648 585.791C86.0166 585.739 86.0782 585.697 86.146 585.669C86.2138 585.641 86.2865 585.626 86.3599 585.626H99.7917C99.94 585.626 100.082 585.685 100.187 585.789C100.292 585.894 100.351 586.036 100.352 586.184V589.016H108.742V586.186C108.742 586.113 108.756 586.04 108.784 585.972C108.812 585.904 108.853 585.843 108.905 585.791C108.957 585.739 109.018 585.697 109.086 585.669C109.154 585.641 109.226 585.626 109.3 585.626H122.732C122.88 585.626 123.022 585.685 123.127 585.789C123.232 585.894 123.291 586.036 123.292 586.184V589.016H131.682V586.186C131.682 586.113 131.696 586.04 131.724 585.972C131.752 585.904 131.793 585.843 131.845 585.791C131.897 585.739 131.958 585.697 132.026 585.669C132.094 585.641 132.166 585.626 132.24 585.626H145.672C145.82 585.626 145.962 585.685 146.067 585.789C146.172 585.894 146.231 586.036 146.232 586.184V589.016H154.632V586.186C154.632 586.113 154.646 586.04 154.674 585.972C154.702 585.904 154.743 585.843 154.795 585.791C154.847 585.739 154.908 585.697 154.976 585.669C155.044 585.641 155.116 585.626 155.19 585.626H168.622C168.77 585.626 168.912 585.685 169.017 585.789C169.122 585.894 169.181 586.036 169.182 586.185V589.016H177.572V586.186C177.572 586.113 177.586 586.04 177.614 585.972C177.642 585.904 177.683 585.843 177.735 585.791C177.787 585.739 177.848 585.697 177.916 585.669C177.984 585.641 178.056 585.626 178.13 585.626H283.332C283.405 585.626 283.478 585.641 283.546 585.669C283.614 585.697 283.675 585.738 283.727 585.789C283.779 585.841 283.821 585.903 283.849 585.971C283.877 586.038 283.892 586.111 283.892 586.185V589.016H292.292V586.186C292.292 586.113 292.306 586.04 292.334 585.972C292.362 585.904 292.403 585.843 292.455 585.791C292.507 585.739 292.568 585.697 292.636 585.669C292.704 585.641 292.776 585.626 292.85 585.626H306.282C306.43 585.628 306.571 585.687 306.676 585.792C306.781 585.897 306.84 586.038 306.842 586.186V589.016H315.232V586.186C315.232 586.113 315.246 586.04 315.274 585.972C315.302 585.904 315.343 585.843 315.395 585.791C315.447 585.739 315.508 585.697 315.576 585.669C315.644 585.641 315.716 585.626 315.79 585.626H329.222C329.295 585.626 329.368 585.641 329.436 585.669C329.504 585.697 329.565 585.738 329.617 585.789C329.669 585.841 329.711 585.903 329.739 585.971C329.767 586.038 329.782 586.111 329.782 586.185V589.016H338.172V586.186C338.172 586.113 338.186 586.04 338.214 585.972C338.242 585.904 338.283 585.843 338.335 585.791C338.387 585.739 338.448 585.698 338.516 585.669C338.584 585.641 338.656 585.627 338.73 585.626H352.162C352.235 585.626 352.308 585.641 352.376 585.669C352.444 585.697 352.505 585.738 352.557 585.789C352.609 585.841 352.651 585.903 352.679 585.971C352.707 586.038 352.722 586.111 352.722 586.185V589.016H361.122V586.186C361.122 586.113 361.136 586.04 361.164 585.972C361.192 585.904 361.233 585.843 361.285 585.791C361.337 585.739 361.398 585.698 361.466 585.669C361.534 585.641 361.606 585.627 361.68 585.626H375.112C375.259 585.628 375.399 585.688 375.502 585.793C375.605 585.898 375.662 586.039 375.662 586.186V589.016H384.062V586.186C384.062 586.113 384.076 586.04 384.104 585.972C384.132 585.904 384.173 585.843 384.225 585.791C384.277 585.739 384.338 585.698 384.406 585.669C384.474 585.641 384.546 585.627 384.62 585.626H398.052C398.125 585.626 398.198 585.641 398.266 585.669C398.334 585.697 398.395 585.738 398.447 585.789C398.499 585.841 398.541 585.903 398.569 585.971C398.597 586.038 398.612 586.111 398.612 586.185V589.016H407.002V586.186C407.002 586.113 407.016 586.04 407.044 585.972C407.072 585.905 407.113 585.843 407.165 585.791C407.217 585.739 407.278 585.698 407.346 585.669C407.414 585.641 407.486 585.627 407.56 585.626H420.992C421.065 585.626 421.138 585.641 421.206 585.669C421.274 585.697 421.335 585.738 421.387 585.789C421.439 585.841 421.481 585.903 421.509 585.971C421.537 586.038 421.552 586.111 421.552 586.185V589.016H460.722C464.283 589.015 467.698 590.429 470.217 592.946C472.735 595.464 474.151 598.878 474.152 602.439L474.152 602.446Z"
		fill="#3F3D56"
	/>
	<path
		d="M438.194 346.812H29.1507C27.6722 346.812 26.2082 347.103 24.8422 347.669C23.4763 348.235 22.2351 349.064 21.1897 350.11C20.1442 351.155 19.3149 352.396 18.7491 353.762C18.1833 355.128 17.8921 356.592 17.8921 358.071V585.982C17.8921 588.968 19.0782 591.832 21.1896 593.943C23.301 596.055 26.1647 597.241 29.1507 597.241H438.194C441.18 597.241 444.044 596.055 446.155 593.943C448.267 591.832 449.453 588.968 449.453 585.982V358.071C449.453 355.085 448.267 352.221 446.155 350.11C444.044 347.998 441.18 346.812 438.194 346.812Z"
		fill="#3F3D56"
	/>
	<path
		d="M234 497C247.807 497 259 485.807 259 472C259 458.193 247.807 447 234 447C220.193 447 209 458.193 209 472C209 485.807 220.193 497 234 497Z"
		fill="#6C63FF"
	/>
</svg>