<svg
    class="svg-graphic"
    viewBox="0 0 476 294"
    fill="none"
    xmlns="http://www.w3.org/2000/svg"
    role="img"
  >
    <title>A lady sitting with a laptop on her lap, next to a website.</title>
    <rect x="107.651" width="368" height="213" fill="#FBFBFB" />
    <path
      d="M119.329 11.553C121.03 11.553 122.41 10.1736 122.41 8.47216C122.41 6.77069 121.03 5.39137 119.329 5.39137C117.627 5.39137 116.248 6.77069 116.248 8.47216C116.248 10.1736 117.627 11.553 119.329 11.553Z"
      fill="#6C63FF"
    />
    <path
      d="M127.801 11.553C129.503 11.553 130.882 10.1736 130.882 8.47216C130.882 6.77069 129.503 5.39137 127.801 5.39137C126.1 5.39137 124.72 6.77069 124.72 8.47216C124.72 10.1736 126.1 11.553 127.801 11.553Z"
      fill="#6C63FF"
    />
    <path
      d="M136.273 11.553C137.975 11.553 139.354 10.1736 139.354 8.47216C139.354 6.77069 137.975 5.39137 136.273 5.39137C134.572 5.39137 133.193 6.77069 133.193 8.47216C133.193 10.1736 134.572 11.553 136.273 11.553Z"
      fill="#6C63FF"
    />
    <path
      opacity="0.3"
      d="M207.902 124.674H163.23V129.295H207.902V124.674Z"
      fill="#6C63FF"
    />
    <path
      opacity="0.3"
      d="M205.487 134.686H163.23V139.308H205.487V134.686Z"
      fill="#6C63FF"
    />
    <path
      opacity="0.3"
      d="M194.017 144.699H163.23V149.32H194.017V144.699Z"
      fill="#6C63FF"
    />
    <g opacity="0.3">
      <path
        opacity="0.3"
        d="M311.878 124.674H267.207V129.295H311.878V124.674Z"
        fill="#6C63FF"
      />
      <path
        opacity="0.3"
        d="M309.464 134.686H267.207V139.308H309.464V134.686Z"
        fill="#6C63FF"
      />
      <path
        opacity="0.3"
        d="M297.994 144.699H267.207V149.32H297.994V144.699Z"
        fill="#6C63FF"
      />
      <path
        opacity="0.3"
        d="M311.878 124.674H267.207V129.295H311.878V124.674Z"
        fill="#6C63FF"
      />
      <path
        opacity="0.3"
        d="M309.464 134.686H267.207V139.308H309.464V134.686Z"
        fill="#6C63FF"
      />
      <path
        opacity="0.3"
        d="M297.994 144.699H267.207V149.32H297.994V144.699Z"
        fill="#6C63FF"
      />
    </g>
    <path
      opacity="0.3"
      d="M419.706 124.674H375.035V129.295H419.706V124.674Z"
      fill="#6C63FF"
    />
    <path
      opacity="0.3"
      d="M417.291 134.686H375.035V139.308H417.291V134.686Z"
      fill="#6C63FF"
    />
    <path
      opacity="0.3"
      d="M405.822 144.699H375.035V149.32H405.822V144.699Z"
      fill="#6C63FF"
    />
    <path
      opacity="0.3"
      d="M214.063 64.5984H157.069V115.431H214.063V64.5984Z"
      fill="#6C63FF"
    />
    <path d="M318.04 64.5984H261.045V115.431H318.04V64.5984Z" fill="#3F3D56" />
    <path
      d="M425.868 64.5984H368.873V115.431H425.868V64.5984Z"
      fill="#3F3D56"
    />
    <path
      d="M282.117 115.218L281.365 115.203C281.381 114.37 281.851 94.7456 289.577 89.3214L290.009 89.9367C282.595 95.1421 282.121 115.018 282.117 115.218Z"
      fill="#6C63FF"
    />
    <path
      d="M293.552 89.0732C295.629 89.0732 297.312 87.39 297.312 85.3136C297.312 83.2373 295.629 81.554 293.552 81.554C291.476 81.554 289.793 83.2373 289.793 85.3136C289.793 87.39 291.476 89.0732 293.552 89.0732Z"
      fill="#6C63FF"
    />
    <path
      d="M292.792 98.5885C290.837 99.2028 288.754 99.2927 286.753 98.8493C288.024 97.2315 289.735 96.0156 291.681 95.3481C293.627 94.6807 295.724 94.5901 297.72 95.0873C296.413 96.6658 294.713 97.8731 292.792 98.5885Z"
      fill="#6C63FF"
    />
    <path
      d="M389.945 115.218L389.193 115.203C389.209 114.37 389.679 94.7456 397.405 89.3214L397.836 89.9367C390.422 95.1421 389.948 115.018 389.945 115.218Z"
      fill="#6C63FF"
    />
    <path
      d="M401.38 89.0732C403.456 89.0732 405.14 87.39 405.14 85.3136C405.14 83.2373 403.456 81.554 401.38 81.554C399.304 81.554 397.62 83.2373 397.62 85.3136C397.62 87.39 399.304 89.0732 401.38 89.0732Z"
      fill="#6C63FF"
    />
    <path
      d="M400.62 98.5885C398.664 99.2028 396.582 99.2927 394.581 98.8493C395.851 97.2315 397.563 96.0156 399.508 95.3481C401.454 94.6807 403.552 94.5901 405.548 95.0873C404.24 96.6658 402.541 97.8731 400.62 98.5885Z"
      fill="#6C63FF"
    />
    <path
      d="M475.93 213.345H107.006V0H475.93V213.345ZM108.546 211.804H474.39V1.5404H108.546V211.804Z"
      fill="#2F2E41"
    />
    <path d="M475.16 15.454H107.776V16.9944H475.16V15.454Z" fill="#2F2E41" />
    <path
      d="M39.0649 109.74C39.0649 109.74 49.0089 125.511 45.4575 129.782C41.9062 134.052 72.1013 134.159 72.1013 134.159C72.1013 134.159 67.5657 111.216 68.9006 105.936L39.0649 109.74Z"
      fill="#FFE6DE"
    />
    <path
      opacity="0.1"
      d="M39.0649 109.74C39.0649 109.74 49.0089 125.511 45.4575 129.782C41.9062 134.052 72.1013 134.159 72.1013 134.159C72.1013 134.159 67.5657 111.216 68.9006 105.936L39.0649 109.74Z"
      fill="black"
    />
    <path
      d="M54.9568 115.456C72.1776 115.456 86.1378 101.496 86.1378 84.2747C86.1378 67.0539 72.1776 53.0937 54.9568 53.0937C37.736 53.0937 23.7758 67.0539 23.7758 84.2747C23.7758 101.496 37.736 115.456 54.9568 115.456Z"
      fill="#F9DFB8"
    />
    <path
      d="M128.295 253.285V271.769L146.779 267.918L145.239 254.825L128.295 253.285Z"
      fill="#FFE6DE"
    />
    <path
      d="M193.761 256.365L245.365 264.838L232.271 284.092C232.271 284.092 196.072 271.769 186.83 271.769C177.587 271.769 193.761 256.365 193.761 256.365Z"
      fill="#FFE6DE"
    />
    <path
      d="M76.6912 219.396C76.6912 219.396 115.201 174.724 127.524 177.035C139.847 179.346 145.239 193.209 145.239 193.209L152.171 261.757C152.171 261.757 127.524 264.067 127.524 261.757C127.524 259.446 122.903 210.153 122.903 210.153C122.903 210.153 86.7038 290.254 67.4489 237.11L76.6912 219.396Z"
      fill="#2F2E41"
    />
    <path
      d="M14.3052 249.434C14.3052 249.434 15.0754 287.943 38.1814 290.254C61.2873 292.565 86.7038 274.85 86.7038 274.85L128.294 254.925C128.294 254.925 177.587 281.012 192.221 274.08C192.221 274.08 207.625 257.906 197.612 253.285C187.6 248.663 196.842 253.285 196.842 253.285L137.537 222.477C137.537 222.477 125.984 219.396 105.959 227.868C85.9336 236.34 58.9767 240.191 58.9767 240.191L14.3052 249.434Z"
      fill="#2F2E41"
    />
    <path
      d="M52.8151 117.73C65.5761 117.73 75.921 107.385 75.921 94.6239C75.921 81.8628 65.5761 71.518 52.8151 71.518C40.054 71.518 29.7092 81.8628 29.7092 94.6239C29.7092 107.385 40.054 117.73 52.8151 117.73Z"
      fill="#FFE6DE"
    />
    <path
      d="M85.9336 159.32L84.3932 191.669C84.3932 191.669 85.1634 234.03 78.2316 237.11C74.7272 238.666 67.6876 241.793 61.1794 245.213C56.2964 247.77 51.7137 250.481 49.1566 252.815C48.4787 253.391 47.8941 254.069 47.4237 254.825C44.3429 260.216 24.3178 259.446 19.6966 255.595C15.0754 251.744 18.1562 260.216 14.3052 261.757C10.5774 263.251 5.40942 251.036 8.57493 232.797C8.67505 232.189 8.79059 231.573 8.91382 230.949C12.449 213.273 6.89589 170.935 7.75081 154.576C7.80061 153.326 7.93182 152.081 8.14362 150.848C10.4542 138.525 39.9374 113.448 45.452 124.13C52.2451 137.316 67.8493 125.27 70.5296 119.27C85.9336 118.5 91.325 136.985 91.325 136.985L85.9336 159.32Z"
      fill="#3F3D56"
    />
    <path
      d="M148.32 264.838C148.32 264.838 135.996 269.459 132.146 268.689C128.295 267.918 124.444 270.999 124.444 275.62C124.444 280.241 119.822 291.024 126.754 291.794C133.686 292.565 162.183 291.024 168.345 293.335C168.345 293.335 196.072 294.105 193.761 282.552C191.451 270.999 179.898 271.769 179.898 271.769C179.898 271.769 148.32 270.229 148.32 264.838Z"
      fill="#2F2E41"
    />
    <path
      d="M238.433 267.148C238.433 267.148 239.973 262.527 242.284 262.527C244.594 262.527 263.079 265.608 265.39 264.838C267.7 264.067 294.657 262.527 290.036 275.62C285.415 288.714 270.011 290.254 270.011 290.254C270.011 290.254 242.284 287.173 238.433 287.943C234.582 288.714 220.718 287.943 223.029 284.092C225.339 280.241 239.973 273.31 238.433 267.148Z"
      fill="#2F2E41"
    />
    <path
      d="M168.325 156.52L172.55 173.95C172.597 174.144 172.59 174.347 172.529 174.538L153.362 234.436C153.286 234.673 153.131 234.877 152.923 235.014C152.714 235.151 152.466 235.212 152.218 235.188C151.97 235.163 151.738 235.055 151.561 234.88C151.383 234.705 151.271 234.475 151.243 234.227L148.591 210.893C148.574 210.738 148.59 210.581 148.638 210.433L166.232 156.439C166.305 156.213 166.45 156.018 166.644 155.883C166.839 155.747 167.072 155.679 167.309 155.688C167.546 155.697 167.773 155.783 167.956 155.934C168.14 156.084 168.269 156.289 168.325 156.52Z"
      fill="#D0CDE1"
    />
    <path
      d="M166.771 157.992L170.672 172.946L153.766 227.563L149.865 210.658L166.771 157.992Z"
      fill="#F2F2F2"
    />
    <path
      d="M81.5937 239.267C82.2439 241.218 149.215 238.617 149.865 237.967C150.432 237.152 150.911 236.281 151.295 235.366C151.907 234.065 152.466 232.765 152.466 232.765L149.865 211.711L83.5443 209.358C83.5443 209.358 81.8862 227.199 81.5481 235.366C81.4329 236.664 81.4482 237.971 81.5937 239.267Z"
      fill="#D0CDE1"
    />
    <path
      opacity="0.1"
      d="M141.413 214.559L142.713 232.765H113.454V214.559H141.413Z"
      fill="black"
    />
    <path
      opacity="0.1"
      d="M103.701 220.411L103.876 220.376L103.051 228.214H86.7949V220.411H103.701Z"
      fill="black"
    />
    <path
      opacity="0.1"
      d="M81.5937 239.267C82.2439 241.218 149.215 238.617 149.865 237.967C150.432 237.152 150.911 236.281 151.295 235.366H81.5481C81.4329 236.664 81.4482 237.971 81.5937 239.267Z"
      fill="black"
    />
    <path
      d="M59.6229 61.3757C65.5256 61.3757 70.3108 56.3667 70.3108 50.1878C70.3108 44.009 65.5256 39 59.6229 39C53.7201 39 48.9351 44.009 48.9351 50.1878C48.9351 56.3667 53.7201 61.3757 59.6229 61.3757Z"
      fill="#F9DFB8"
    />
    <path
      d="M71.2174 57.4713C64.1333 54.7919 52.3377 53.4333 46.2692 54.362L47.1014 48.2847C52.9356 51.3 64.6771 52.717 72.0497 51.3941L71.2174 57.4713Z"
      fill="#3F3D56"
    />
    <path
      d="M57.5097 59.6467C57.5097 59.6467 48.6315 74.4143 27.9865 79.9425C7.34146 85.4708 27.8178 116.494 27.8178 116.494C27.8178 116.494 20.3718 105.213 31.1116 93.2659C41.8513 81.3186 59.1345 73.1506 57.5097 59.6467Z"
      fill="#F9DFB8"
    />
    <path
      d="M58.2144 58.7493C58.2144 58.7493 66.7435 79.0332 76.1071 80.9509C85.4708 82.8687 84.7606 114.919 70.1173 119.725C70.1173 119.725 80.7949 100.936 71.668 88.3347C62.5411 75.7335 56.7761 65.772 58.2144 58.7493Z"
      fill="#F9DFB8"
    />
    <path
      opacity="0.1"
      d="M61.1794 245.213C59.277 248.81 57.0434 252.545 56.666 254.055C56.4119 255.079 53.5929 254.486 49.1566 252.815C40.2608 249.449 24.8415 241.739 10.4542 234.03C9.79103 233.678 9.16191 233.265 8.5749 232.797C8.67503 232.189 8.79056 231.573 8.91379 230.949C12.449 213.273 6.89586 170.935 7.75078 154.576L14.3052 152.389L27.3985 164.712V217.085C27.3985 217.085 61.2872 235.57 63.5978 237.11C64.7763 237.896 63.1511 241.477 61.1794 245.213Z"
      fill="black"
    />
    <path
      d="M89.7845 203.222L110.58 214.004C110.58 214.004 122.903 200.911 130.605 210.924C138.307 220.936 108.269 224.017 108.269 224.017C108.269 224.017 82.0825 217.855 81.3123 209.383C80.5421 200.911 89.7845 203.222 89.7845 203.222Z"
      fill="#FFE6DE"
    />
    <path
      d="M55.1257 231.719L67.4489 234.8C67.4489 234.8 81.3124 217.855 95.9462 224.017C110.58 230.179 77.4614 242.502 77.4614 242.502C77.4614 242.502 59.7469 251.744 52.8151 244.042C45.8833 236.34 55.1257 231.719 55.1257 231.719Z"
      fill="#FFE6DE"
    />
    <path
      d="M82.0826 130.053C82.8528 130.823 91.325 136.985 91.325 136.985C91.325 136.985 93.6356 166.252 90.5548 172.414C87.474 178.575 85.1634 178.575 87.474 181.656C89.7846 184.737 92.8654 182.426 89.7846 187.818C86.7038 193.209 83.623 192.439 85.9336 194.75C88.2442 197.06 87.474 197.83 87.474 197.83L96.7164 205.532C96.7164 205.532 91.046 214.564 83.8686 213.899C76.6912 213.234 70.5297 178.575 70.5297 178.575L82.0826 130.053Z"
      fill="#3F3D56"
    />
    <path
      d="M14.3052 148.538L7.37341 150.848C7.37341 150.848 -11.1113 218.626 10.4542 230.179C32.0197 241.732 55.8959 253.285 56.6661 250.204C57.4363 247.123 65.9084 234.8 63.5978 233.259C61.2872 231.719 27.3985 213.234 27.3985 213.234V160.861L14.3052 148.538Z"
      fill="#3F3D56"
    />
    <path
      opacity="0.1"
      d="M24.7032 176.65L23.1628 213.619L63.9832 232.874L26.2436 213.619L24.7032 176.65Z"
      fill="black"
    />
  </svg>