<svg
	class="left-svg-graphic"
	width="462"
	height="312"
	viewBox="0 0 462 312"
	fill="none"
	xmlns="http://www.w3.org/2000/svg"
>
	<path
		d="M461.83 12.656H0.196838V231.709H461.83V12.656Z"
		fill="#E5E5E5"
	/>
	<path
		d="M448.63 31.4402H13.3974V214.203H448.63V31.4402Z"
		fill="white"
	/>
	<path
		d="M461.633 0H0V19.6116H461.633V0Z"
		fill="#6C63FF"
	/>
	<path
		d="M14.5738 13.4044C16.5813 13.4044 18.2088 11.777 18.2088 9.76945C18.2088 7.76193 16.5813 6.13452 14.5738 6.13452C12.5663 6.13452 10.9389 7.76193 10.9389 9.76945C10.9389 11.777 12.5663 13.4044 14.5738 13.4044Z"
		fill="white"
	/>
	<path
		d="M28.3708 13.4044C30.3783 13.4044 32.0058 11.777 32.0058 9.76945C32.0058 7.76193 30.3783 6.13452 28.3708 6.13452C26.3633 6.13452 24.7359 7.76193 24.7359 9.76945C24.7359 11.777 26.3633 13.4044 28.3708 13.4044Z"
		fill="white"
	/>
	<path
		d="M42.1684 13.4044C44.176 13.4044 45.8034 11.777 45.8034 9.76945C45.8034 7.76193 44.176 6.13452 42.1684 6.13452C40.1609 6.13452 38.5335 7.76193 38.5335 9.76945C38.5335 11.777 40.1609 13.4044 42.1684 13.4044Z"
		fill="white"
	/>
	<path
		d="M84.7032 73.0461C84.2279 73.0461 83.772 73.235 83.436 73.571C83.0999 73.9071 82.9111 74.363 82.9111 74.8383C82.9111 75.3136 83.0999 75.7694 83.436 76.1055C83.772 76.4416 84.2279 76.6304 84.7032 76.6304H133.67C134.145 76.6304 134.601 76.4416 134.937 76.1055C135.273 75.7694 135.462 75.3136 135.462 74.8383C135.462 74.363 135.273 73.9071 134.937 73.571C134.601 73.235 134.145 73.0461 133.67 73.0461H84.7032Z"
		fill="#3F3D56"
	/>
	<path
		d="M57.0099 97.7234C56.5346 97.7234 56.0787 97.9122 55.7427 98.2483C55.4066 98.5844 55.2178 99.0402 55.2178 99.5155C55.2178 99.9908 55.4066 100.447 55.7427 100.783C56.0787 101.119 56.5346 101.308 57.0099 101.308H161.363C161.838 101.308 162.294 101.119 162.63 100.783C162.966 100.447 163.155 99.9908 163.155 99.5155C163.155 99.0402 162.966 98.5844 162.63 98.2483C162.294 97.9122 161.838 97.7234 161.363 97.7234H57.0099Z"
		fill="#CCCCCC"
	/>
	<path
		d="M57.0099 111.981C56.5346 111.981 56.0787 112.17 55.7427 112.506C55.4066 112.842 55.2178 113.298 55.2178 113.773C55.2178 114.249 55.4066 114.704 55.7427 115.041C56.0787 115.377 56.5346 115.565 57.0099 115.565H161.363C161.838 115.565 162.294 115.377 162.63 115.041C162.966 114.704 163.155 114.249 163.155 113.773C163.155 113.298 162.966 112.842 162.63 112.506C162.294 112.17 161.838 111.981 161.363 111.981H57.0099Z"
		fill="#CCCCCC"
	/>
	<path
		d="M57.0099 126.239C56.5346 126.239 56.0787 126.428 55.7427 126.764C55.4066 127.1 55.2178 127.556 55.2178 128.031C55.2178 128.506 55.4066 128.962 55.7427 129.298C56.0787 129.634 56.5346 129.823 57.0099 129.823H161.363C161.838 129.823 162.294 129.634 162.63 129.298C162.966 128.962 163.155 128.506 163.155 128.031C163.155 127.556 162.966 127.1 162.63 126.764C162.294 126.428 161.838 126.239 161.363 126.239H57.0099Z"
		fill="#CCCCCC"
	/>
	<path
		d="M57.0099 140.497C56.5346 140.497 56.0787 140.686 55.7427 141.022C55.4066 141.358 55.2178 141.814 55.2178 142.289C55.2178 142.764 55.4066 143.22 55.7427 143.556C56.0787 143.892 56.5346 144.081 57.0099 144.081H161.363C161.838 144.081 162.294 143.892 162.63 143.556C162.966 143.22 163.155 142.764 163.155 142.289C163.155 141.814 162.966 141.358 162.63 141.022C162.294 140.686 161.838 140.497 161.363 140.497H57.0099Z"
		fill="#CCCCCC"
	/>
	<path
		d="M57.0099 154.755C56.5346 154.755 56.0787 154.944 55.7427 155.28C55.4066 155.616 55.2178 156.072 55.2178 156.547C55.2178 157.022 55.4066 157.478 55.7427 157.814C56.0787 158.15 56.5346 158.339 57.0099 158.339H161.363C161.838 158.339 162.294 158.15 162.63 157.814C162.966 157.478 163.155 157.022 163.155 156.547C163.155 156.072 162.966 155.616 162.63 155.28C162.294 154.944 161.838 154.755 161.363 154.755H57.0099Z"
		fill="#CCCCCC"
	/>
	<path
		d="M57.0099 169.013C56.5346 169.013 56.0787 169.202 55.7427 169.538C55.4066 169.874 55.2178 170.33 55.2178 170.805C55.2178 171.28 55.4066 171.736 55.7427 172.072C56.0787 172.408 56.5346 172.597 57.0099 172.597H161.363C161.838 172.597 162.294 172.408 162.63 172.072C162.966 171.736 163.155 171.28 163.155 170.805C163.155 170.33 162.966 169.874 162.63 169.538C162.294 169.202 161.838 169.013 161.363 169.013H57.0099Z"
		fill="#CCCCCC"
	/>
	<path
		d="M401.256 173.364H243.266C242.21 173.363 241.197 172.943 240.451 172.196C239.704 171.45 239.284 170.437 239.283 169.381V76.4458C239.284 75.3898 239.704 74.3774 240.451 73.6307C241.197 72.884 242.21 72.464 243.266 72.4629H401.256C402.312 72.464 403.324 72.884 404.071 73.6307C404.818 74.3774 405.238 75.3898 405.239 76.4458V169.381C405.238 170.437 404.818 171.45 404.071 172.196C403.324 172.943 402.312 173.363 401.256 173.364Z"
		fill="#F1F1F1"
	/>
	<path
		d="M422.039 194.621H264.049C262.993 194.619 261.981 194.199 261.234 193.453C260.488 192.706 260.068 191.694 260.066 190.638V97.7022C260.068 96.6462 260.488 95.6338 261.234 94.8871C261.981 94.1404 262.993 93.7204 264.049 93.7192H422.039C423.095 93.7204 424.108 94.1404 424.855 94.8871C425.601 95.6338 426.021 96.6462 426.022 97.7022V190.638C426.021 191.694 425.601 192.706 424.855 193.453C424.108 194.199 423.095 194.619 422.039 194.621Z"
		fill="white"
	/>
	<path
		d="M422.039 195.976H264.049C262.634 195.974 261.277 195.411 260.276 194.411C259.276 193.41 258.713 192.053 258.711 190.638V97.7024C258.713 96.2871 259.276 94.9302 260.276 93.9294C261.277 92.9286 262.634 92.3656 264.049 92.364H422.039C423.455 92.3656 424.812 92.9286 425.812 93.9294C426.813 94.9302 427.376 96.2871 427.378 97.7024V190.638C427.376 192.053 426.813 193.41 425.812 194.411C424.812 195.411 423.455 195.974 422.039 195.976ZM264.049 95.0747C263.353 95.0755 262.685 95.3526 262.192 95.8453C261.7 96.3379 261.422 97.0058 261.422 97.7024V190.638C261.422 191.334 261.7 192.002 262.192 192.495C262.685 192.987 263.353 193.264 264.049 193.265H422.039C422.736 193.264 423.404 192.987 423.897 192.495C424.389 192.002 424.666 191.334 424.667 190.638V97.7024C424.666 97.0058 424.389 96.3379 423.897 95.8452C423.404 95.3526 422.736 95.0755 422.039 95.0747H264.049Z"
		fill="#3F3D56"
	/>
	<path
		d="M342.831 170.234C350.403 170.234 356.541 164.096 356.541 156.524C356.541 148.953 350.403 142.815 342.831 142.815C335.26 142.815 329.122 148.953 329.122 156.524C329.122 164.096 335.26 170.234 342.831 170.234Z"
		fill="#FF6583"
	/>
	<path
		d="M369.279 143.335C368.472 142.479 367.502 141.793 366.426 141.317C365.35 140.842 364.189 140.586 363.013 140.565C361.837 140.544 360.668 140.758 359.576 141.195C358.484 141.632 357.49 142.283 356.652 143.11L312.19 187.572C306.494 193.295 300.549 184.543 296.75 181.013C287.613 171.978 277.745 188.921 271.604 193.773H414.485V191.954L369.279 143.335Z"
		fill="#6C63FF"
	/>
	<path
		d="M193.156 197.231L190.752 163.915L195.07 132.695L182.807 131.867L180.386 166.354L187.227 198.785C186.645 199.59 186.325 200.556 186.312 201.55C186.299 202.544 186.594 203.518 187.156 204.338C187.717 205.159 188.519 205.785 189.45 206.133C190.381 206.48 191.397 206.531 192.359 206.279C193.321 206.027 194.181 205.484 194.822 204.725C195.464 203.965 195.855 203.026 195.942 202.036C196.029 201.045 195.808 200.052 195.31 199.192C194.811 198.332 194.059 197.647 193.156 197.231Z"
		fill="#FFE6DE"
	/>
	<path
		d="M181.242 136.354L184.122 123.891C184.673 121.505 186.116 119.42 188.155 118.063C190.195 116.706 192.676 116.181 195.09 116.594C197.504 117.007 199.669 118.328 201.141 120.286C202.612 122.244 203.279 124.691 203.005 127.125L201.42 141.207L181.242 136.354Z"
		fill="#CBCBCB"
	/>
	<path
		d="M203.945 305.776H209.726L212.476 283.477L203.944 283.477L203.945 305.776Z"
		fill="#FFE6DE"
	/>
	<path
		d="M202.47 303.888L213.855 303.888H213.856C215.78 303.888 217.625 304.653 218.986 306.013C220.347 307.374 221.111 309.219 221.111 311.143V311.379L202.47 311.38L202.47 303.888Z"
		fill="#2F2E41"
	/>
	<path
		d="M232.746 305.587L238.304 303.995L234.808 281.8L226.605 284.15L232.746 305.587Z"
		fill="#FFE6DE"
	/>
	<path
		d="M230.809 304.178L241.754 301.043L241.754 301.043C243.604 300.513 245.589 300.74 247.272 301.673C248.954 302.606 250.197 304.17 250.727 306.02L250.792 306.247L232.872 311.38L230.809 304.178Z"
		fill="#2F2E41"
	/>
	<path
		d="M200.82 297.682L203.509 230.133L196.525 199.564C187.126 183.807 197.266 158.672 197.369 158.419L197.407 158.327L197.506 158.314L222.091 154.983L222.436 155.776C232.052 177.761 234.721 202.159 230.084 225.703L227.526 238.791L240.172 289.851L228.203 295.835L219.02 272.022L212.813 296.386L200.82 297.682Z"
		fill="#2F2E41"
	/>
	<path
		d="M194.131 164.684L186.111 141.183C181.125 132.403 184.287 124.607 187.819 119.614C191.632 114.222 191.861 111.198 191.911 111.165L191.952 111.138L202.49 110.818L212.243 120.728C212.856 120.489 218.038 133.259 217.599 133.901L224.41 155.919L194.131 164.684Z"
		fill="#CBCBCB"
	/>
	<path
		d="M259.074 168.749L232.653 148.312L212.278 124.266L203.48 132.848L227.554 157.66L256.276 174.202C256.487 175.173 256.993 176.056 257.725 176.728C258.457 177.401 259.379 177.831 260.365 177.96C261.351 178.089 262.352 177.91 263.232 177.448C264.113 176.986 264.829 176.264 265.282 175.379C265.736 174.495 265.906 173.492 265.768 172.507C265.63 171.523 265.191 170.605 264.512 169.879C263.832 169.153 262.945 168.655 261.972 168.453C260.999 168.251 259.987 168.354 259.074 168.749V168.749Z"
		fill="#FFE6DE"
	/>
	<path
		d="M200.979 141.543L193.617 131.083C192.208 129.08 191.617 126.614 191.967 124.19C192.317 121.765 193.581 119.567 195.5 118.044C197.418 116.522 199.847 115.791 202.287 116.001C204.727 116.211 206.995 117.346 208.625 119.174L218.057 129.751L200.979 141.543Z"
		fill="#CBCBCB"
	/>
	<path
		d="M195.982 107.937C202.893 107.937 208.495 102.334 208.495 95.4234C208.495 88.5124 202.893 82.9099 195.982 82.9099C189.071 82.9099 183.468 88.5124 183.468 95.4234C183.468 102.334 189.071 107.937 195.982 107.937Z"
		fill="#FFE6DE"
	/>
	<path
		d="M208.706 89.0753H188.836V80.414C193.197 78.6814 197.464 77.2079 200.044 80.414C202.341 80.4141 204.544 81.3266 206.169 82.9509C207.793 84.5752 208.706 86.7782 208.706 89.0753Z"
		fill="#F9DFB8"
	/>
	<path
		d="M191.574 78.3372C173.369 77.84 176.816 107.832 176.816 107.832C176.816 107.832 180.251 108.286 181.818 108.553L183.711 107.487L185.748 108.823C186.683 108.828 187.665 108.81 188.684 108.791L189.617 106.868L191.699 108.756C195.489 108.762 205.774 108.866 205.774 108.866C205.774 108.866 211.973 78.8942 191.574 78.3372Z"
		fill="#F9DFB8"
	/>
</svg>